{
.appVersion = "3151";
.formatVersion = 3;
axes = (
{
name = Weight;
tag = wght;
},
{
name = Width;
tag = wdth;
},
{
name = Slant;
tag = slnt;
}
);
classes = (
{
code = "zero one two three four five six seven eight nine ";
name = Num;
},
{
code = "zero.canadian one.canadian two.canadian three.canadian four.canadian five.canadian six.canadian seven.canadian eight.canadian nine.canadian 
";
name = Num_can;
},
{

glyphs = (
{
glyphname = idotless;
lastChange = "2023-01-13 15:55:56 +0000";
layers = (
{
layerId = "2974A4AB-0281-4EAC-B7D6-9B88228DB59B";
shapes = (
{
closed = 1;
nodes = (
(116,516,l),
(55,516,l),
(55,0,l),
(116,0,l)
);
}
);
width = 171;
}
);
note = dotlessi;
unicode = 305;
},
{
glyphname = "acuteFinal-canadian";
lastChange = "2023-01-13 15:55:56 +0000";
layers = (
{
layerId = "2974A4AB-0281-4EAC-B7D6-9B88228DB59B";
shapes = (
{
closed = 1;
nodes = (
(77,345,l),
(197,690,l),
(149,690,l),
(29,345,l)
);
}
);
width = 226;
}
);
metricRight = "=|";
note = uni141F;
unicode = 5151;
},
{
glyphname = "graveFinal-canadian";
kernLeft = mwestleft;
kernRight = mwestright;
lastChange = "2023-01-13 15:55:56 +0000";
layers = (
{
layerId = "2974A4AB-0281-4EAC-B7D6-9B88228DB59B";
shapes = (
{
closed = 1;
nodes = (
(197,345,l),
(77,690,l),
(29,690,l),
(149,345,l)
);
}
);
width = 226;
}
);
metricLeft = "=|acuteFinal-canadian";
metricRight = "=|acuteFinal-canadian";
note = uni1420;
unicode = 5152;
},
{
glyphname = "ringBottomhalfFinal-canadian";
kernLeft = mwestleft;
kernRight = mwestright;
lastChange = "2023-01-13 15:55:56 +0000";
layers = (
{
layerId = "2974A4AB-0281-4EAC-B7D6-9B88228DB59B";
shapes = (
{
closed = 1;
nodes = (
(228,339,o),
(268,384,o),
(268,473,cs),
(268,690,l),
(224,690,l),
(224,470,ls),
(224,407,o),
(204,380,o),
(159,380,cs),
(115,380,o),
(94,408,o),
(94,469,cs),
(94,690,l),
(50,690,l),
(50,470,ls),
(50,385,o),
(91,339,o),
(159,339,cs)
);
}
);
width = 318;
}
);
metricLeft = "ai-canadian";
metricRight = "==|ai-canadian";
note = uni1421;
unicode = 5153;
},
{
glyphname = "ringTophalfFinal-canadian";
lastChange = "2023-01-13 15:55:56 +0000";
layers = (
{
layerId = "2974A4AB-0281-4EAC-B7D6-9B88228DB59B";
shapes = (
{
closed = 1;
nodes = (
(94,345,l),
(94,565,ls),
(94,627,o),
(115,655,o),
(159,655,cs),
(204,655,o),
(224,628,o),
(224,565,cs),
(224,345,l),
(268,345,l),
(268,561,ls),
(268,650,o),
(228,696,o),
(159,696,cs),
(91,696,o),
(50,649,o),
(50,564,cs),
(50,345,l)
);
}
);
width = 318;
}
);
metricLeft = "ai-canadian";
metricRight = "==|ai-canadian";
note = uni1422;
unicode = 5154;
},
{
glyphname = "ringRighthalfFinal-canadian";
kernLeft = mwestleft;
kernRight = mwestright;
lastChange = "2023-01-13 15:55:56 +0000";
layers = (
{
layerId = "2974A4AB-0281-4EAC-B7D6-9B88228DB59B";
shapes = (
{
closed = 1;
nodes = (
(71,345,ls),
(175,345,o),
(227,408,o),
(227,517,cs),
(227,625,o),
(175,690,o),
(73,690,cs),
(46,690,l),
(46,647,l),
(69,647,ls),
(147,647,o),
(183,601,o),
(183,517,cs),
(183,431,o),
(147,387,o),
(69,387,cs),
(46,387,l),
(46,345,l)
);
}
);
width = 276;
}
);
metricLeft = "=|t-canadian";
metricWidth = "t-canadian";
note = uni1423;
unicode = 5155;
},
{
glyphname = "ringFinal-canadian";
kernLeft = mwestleft;
kernRight = mwestright;
lastChange = "2023-01-13 15:55:56 +0000";
layers = (
{
layerId = "2974A4AB-0281-4EAC-B7D6-9B88228DB59B";
shapes = (
{
closed = 1;
nodes = (
(289,397,o),
(350,461,o),
(350,547,cs),
(350,631,o),
(288,696,o),
(200,696,cs),
(111,696,o),
(49,632,o),
(49,547,cs),
(49,461,o),
(111,397,o),
(200,397,cs)
);
},
{
closed = 1;
nodes = (
(134,436,o),
(91,480,o),
(91,547,cs),
(91,612,o),
(134,657,o),
(200,657,cs),
(265,657,o),
(308,611,o),
(308,547,cs),
(308,480,o),
(265,436,o),
(200,436,cs)
);
}
);
width = 399;
}
);
note = uni1424;
unicode = 5156;
},
{
glyphname = "doubleacuteFinal-canadian";
lastChange = "2023-01-13 15:55:56 +0000";
layers = (
{
layerId = "2974A4AB-0281-4EAC-B7D6-9B88228DB59B";
shapes = (
{
closed = 1;
nodes = (
(197,690,l),
(149,690,l),
(29,345,l),
(77,345,l)
);
},
{
closed = 1;
nodes = (
(303,690,l),
(255,690,l),
(135,345,l),
(185,345,l)
);
}
);
width = 332;
}
);
metricLeft = "acuteFinal-canadian";
metricRight = "=|";
note = uni1425;
unicode = 5157;
},
{
glyphname = "doubleshortverticalstrokesFinal-canadian";
kernLeft = mwestleft;
kernRight = mwestright;
lastChange = "2023-01-13 15:56:00 +0000";
layers = (
{
layerId = "2974A4AB-0281-4EAC-B7D6-9B88228DB59B";
shapes = (
{
closed = 1;
nodes = (
(94,690,l),
(50,690,l),
(50,345,l),
(94,345,l)
);
},
{
closed = 1;
nodes = (
(189,690,l),
(146,690,l),
(146,345,l),
(189,345,l)
);
}
);
width = 239;
}
);
metricLeft = "pWestCree-canadian";
metricRight = "pWestCree-canadian";
note = uni1426;
unicode = 5158;
},
{
glyphname = "middledotFinal-canadian";
lastChange = "2023-01-13 15:55:56 +0000";
layers = (
{
layerId = "2974A4AB-0281-4EAC-B7D6-9B88228DB59B";
shapes = (
{
closed = 1;
nodes = (
(107,314,o),
(126,332,o),
(126,355,cs),
(126,377,o),
(107,395,o),
(85,395,cs),
(62,395,o),
(44,377,o),
(44,355,cs),
(44,332,o),
(62,314,o),
(85,314,cs)
);
}
);
width = 170;
}
);
note = uni1427;
unicode = 5159;
},
{
glyphname = "shorthorizontalstrokeFinal-canadian";
kernLeft = mwestleft;
kernRight = mwestright;
lastChange = "2023-01-13 15:55:56 +0000";
layers = (
{
layerId = "2974A4AB-0281-4EAC-B7D6-9B88228DB59B";
shapes = (
{
closed = 1;
nodes = (
(293,504,l),
(293,549,l),
(50,549,l),
(50,504,l)
);
}
);
width = 343;
}
);
metricRight = "=|";
note = uni1428;
unicode = 5160;
},
{
glyphname = "plusFinal-canadian";
kernLeft = mwestleft;
kernRight = mwestright;
lastChange = "2023-01-13 15:55:56 +0000";
layers = (
{
layerId = "2974A4AB-0281-4EAC-B7D6-9B88228DB59B";
shapes = (
{
closed = 1;
nodes = (
(193,407,l),
(193,528,l),
(293,528,l),
(293,571,l),
(193,571,l),
(193,690,l),
(152,690,l),
(152,571,l),
(50,571,l),
(50,528,l),
(152,528,l),
(152,407,l)
);
}
);
width = 343;
}
);
metricLeft = "shorthorizontalstrokeFinal-canadian";
metricRight = "shorthorizontalstrokeFinal-canadian";
note = uni1429;
unicode = 5161;
},
{
glyphname = "downtackFinal-canadian";
kernLeft = mwestleft;
kernRight = mwestright;
lastChange = "2023-01-13 15:55:56 +0000";
layers = (
{
layerId = "2974A4AB-0281-4EAC-B7D6-9B88228DB59B";
shapes = (
{
closed = 1;
nodes = (
(194,345,l),
(194,647,l),
(293,647,l),
(293,690,l),
(50,690,l),
(50,647,l),
(151,647,l),
(151,345,l)
);
}
);
width = 343;
}
);
metricLeft = "shorthorizontalstrokeFinal-canadian";
metricRight = "shorthorizontalstrokeFinal-canadian";
note = uni142A;
unicode = 5162;
},
{
glyphname = "thFinalWoodScree-canadian";
lastChange = "2023-01-13 15:55:56 +0000";
layers = (
{
layerId = "2974A4AB-0281-4EAC-B7D6-9B88228DB59B";
shapes = (
{
closed = 1;
nodes = (
(193,345,l),
(193,430,l),
(293,430,l),
(293,469,l),
(193,469,l),
(193,565,l),
(293,565,l),
(293,605,l),
(193,605,l),
(193,690,l),
(150,690,l),
(150,605,l),
(50,605,l),
(50,565,l),
(150,565,l),
(150,469,l),
(50,469,l),
(50,430,l),
(150,430,l),
(150,345,l)
);
}
);
width = 343;
}
);
metricLeft = "hyphen-canadian";
metricRight = "hyphen-canadian";
note = uni167E;
unicode = 5758;
},
{
glyphname = "ringSmallFinal-canadian";
kernLeft = mwestleft;
kernRight = mwestright;
lastChange = "2023-01-13 15:55:56 +0000";
layers = (
{
layerId = "2974A4AB-0281-4EAC-B7D6-9B88228DB59B";
shapes = (
{
closed = 1;
nodes = (
(181,535,o),
(217,571,o),
(217,619,cs),
(217,667,o),
(181,702,o),
(134,702,cs),
(87,702,o),
(50,667,o),
(50,619,cs),
(50,571,o),
(87,535,o),
(134,535,cs)
);
},
{
closed = 1;
nodes = (
(103,566,o),
(83,588,o),
(83,619,cs),
(83,649,o),
(103,671,o),
(134,671,cs),
(164,671,o),
(185,649,o),
(185,619,cs),
(185,588,o),
(164,566,o),
(134,566,cs)
);
}
);
width = 268;
}
);
note = g725;
unicode = 6366;
},
{
glyphname = "raiseddotFinal-canadian";
kernLeft = mwestleft;
kernRight = mwestright;
lastChange = "2023-01-13 15:55:56 +0000";
layers = (
{
layerId = "2974A4AB-0281-4EAC-B7D6-9B88228DB59B";
shapes = (
{
closed = 1;
nodes = (
(111,621,o),
(129,639,o),
(129,662,cs),
(129,684,o),
(111,702,o),
(89,702,cs),
(66,702,o),
(48,684,o),
(48,662,cs),
(48,639,o),
(66,621,o),
(89,621,cs)
);
}
);
width = 178;
}
);
note = g725;
unicode = 6367;
},
{
glyphname = "plusFinal-canadian.base";
lastChange = "2023-01-13 15:55:56 +0000";
layers = (
{
layerId = "2974A4AB-0281-4EAC-B7D6-9B88228DB59B";
shapes = (
{
closed = 1;
nodes = (
(193,0,l),
(193,122,l),
(293,122,l),
(293,164,l),
(193,164,l),
(193,283,l),
(152,283,l),
(152,164,l),
(50,164,l),
(50,122,l),
(152,122,l),
(152,0,l)
);
}
);
width = 343;
}
);
metricLeft = "shorthorizontalstrokeFinal-canadian";
metricRight = "shorthorizontalstrokeFinal-canadian";
note = uni1429;
},
{
glyphname = "e-canadian";
kernLeft = ecanleft;
kernRight = ecanright;
lastChange = "2023-01-13 15:55:56 +0000";
layers = (
{
anchors = (
{
name = middle_center_can;
pos = (267,454);
},
{
name = top_center_can;
pos = (267,690);
},
{
name = top_left_can;
pos = (98,690);
},
{
name = top_right_can;
pos = (438,690);
}
);
layerId = "2974A4AB-0281-4EAC-B7D6-9B88228DB59B";
shapes = (
{
closed = 1;
nodes = (
(281,0,l),
(511,670,l),
(511,690,l),
(27,690,l),
(27,670,l),
(257,0,l)
);
},
{
closed = 1;
nodes = (
(284,71,l),
(90,654,l),
(80,639,l),
(457,639,l),
(449,654,l),
(255,71,l)
);
}
);
width = 538;
}
);
metricRight = "=|";
note = uni1401;
unicode = 5121;
},
{
glyphname = "i-canadian";
kernLeft = icanleft;
kernRight = icanright;
lastChange = "2023-01-13 15:55:56 +0000";
layers = (
{
anchors = (
{
name = middle_center_can;
pos = (266,403);
},
{
name = top_center_can;
pos = (270,690);
},
{
name = top_left_can;
pos = (99,690);
},
{
name = top_right_can;
pos = (440,690);
}
);
layerId = "2974A4AB-0281-4EAC-B7D6-9B88228DB59B";
shapes = (
{
closed = 1;
nodes = (
(511,0,l),
(511,19,l),
(281,690,l),
(257,690,l),
(27,19,l),
(27,0,l)
);
},
{
closed = 1;
nodes = (
(284,618,l),
(254,618,l),
(449,36,l),
(456,51,l),
(80,51,l),
(89,36,l)
);
}
);
width = 538;
}
);
metricLeft = "e-canadian";
metricWidth = "e-canadian";
note = uni1403;
unicode = 5123;
},
{
glyphname = "o-canadian";
kernLeft = ocanleft;
kernRight = ocanright;
lastChange = "2023-01-13 15:55:56 +0000";
layers = (
{
anchors = (
{
name = middle_center_can;
pos = (214,345);
},
{
name = top_center_can;
pos = (273,690);
},
{
name = top_double;
pos = (350,690);
},
{
name = top_left_can;
pos = (87,690);
},
{
name = top_right_can;
pos = (457,690);
}
);
layerId = "2974A4AB-0281-4EAC-B7D6-9B88228DB59B";
shapes = (
{
closed = 1;
nodes = (
(80,0,l),
(490,332,l),
(490,357,l),
(80,690,l),
(63,690,l),
(63,0,l)
);
},
{
closed = 1;
nodes = (
(114,619,l),
(99,612,l),
(444,329,l),
(444,360,l),
(99,77,l),
(114,71,l)
);
}
);
width = 521;
}
);
metricLeft = "nunavuth-canadian";
note = uni1405;
unicode = 5125;
},
{
glyphname = "eeCarrier-canadian";
lastChange = "2023-01-13 15:55:56 +0000";
layers = (
{
layerId = "2974A4AB-0281-4EAC-B7D6-9B88228DB59B";
shapes = (
{
closed = 1;
nodes = (
(80,0,l),
(490,332,l),
(490,357,l),
(80,690,l),
(63,690,l),
(63,0,l)
);
},
{
closed = 1;
nodes = (
(110,619,l),
(99,616,l),
(444,333,l),
(444,356,l),
(99,74,l),
(110,71,l)
);
},
{
closed = 1;
nodes = (
(226,438,l),
(198,438,l),
(198,252,l),
(226,252,l)
);
}
);
width = 521;
}
);
metricLeft = "nunavuth-canadian";
metricRight = "o-canadian";
note = uni1408;
unicode = 5128;
},
{
glyphname = "a-canadian";
kernLeft = acanleft;
kernRight = acanright;
lastChange = "2023-01-13 15:55:56 +0000";
layers = (
{
anchors = (
{
name = middle_center_can;
pos = (302,345);
},
{
name = top_center_can;
pos = (234,690);
},
{
name = top_left_can;
pos = (60,690);
},
{
name = top_right_can;
pos = (431,690);
}
);
layerId = "2974A4AB-0281-4EAC-B7D6-9B88228DB59B";
shapes = (
{
closed = 1;
nodes = (
(458,0,l),
(458,690,l),
(440,690,l),
(30,357,l),
(30,332,l),
(440,0,l)
);
},
{
closed = 1;
nodes = (
(421,77,l),
(75,359,l),
(75,329,l),
(421,612,l),
(407,619,l),
(407,71,l)
);
}
);
width = 521;
}
);
metricRight = "nunavuth-canadian";
note = uni140A;
unicode = 5130;
},
{
glyphname = "ai-canadian";
lastChange = "2023-01-13 15:55:56 +0000";
layers = (
{
layerId = "2974A4AB-0281-4EAC-B7D6-9B88228DB59B";
shapes = (
{
closed = 1;
nodes = (
(201,339,o),
(231,370,o),
(244,423,c),
(231,423,l),
(245,367,o),
(278,339,o),
(325,339,cs),
(382,339,o),
(426,377,o),
(426,476,cs),
(426,690,l),
(384,690,l),
(384,476,ls),
(384,398,o),
(355,380,o),
(321,380,cs),
(287,380,o),
(258,400,o),
(258,475,cs),
(258,690,l),
(217,690,l),
(217,476,ls),
(217,398,o),
(188,380,o),
(154,380,cs),
(119,380,o),
(92,400,o),
(92,475,cs),
(92,690,l),
(50,690,l),
(50,474,ls),
(50,377,o),
(95,339,o),
(152,339,cs)
);
}
);
width = 476;
}
);
metricRight = "=|";
note = uni141C;
unicode = 5148;
},
{
glyphname = "ycreew-canadian";
lastChange = "2023-01-13 15:55:56 +0000";
layers = (
{
layerId = "2974A4AB-0281-4EAC-B7D6-9B88228DB59B";
shapes = (
{
closed = 1;
nodes = (
(268,510,o),
(294,545,o),
(294,603,cs),
(294,662,o),
(268,696,o),
(229,696,cs),
(189,696,o),
(163,662,o),
(163,603,cs),
(163,545,o),
(189,510,o),
(229,510,cs)
);
},
{
closed = 1;
nodes = (
(155,339,o),
(181,374,o),
(181,432,cs),
(181,491,o),
(155,525,o),
(115,525,cs),
(76,525,o),
(50,491,o),
(50,432,cs),
(50,374,o),
(76,339,o),
(115,339,cs)
);
},
{
closed = 1;
nodes = (
(92,366,o),
(78,387,o),
(78,432,cs),
(78,476,o),
(92,497,o),
(115,497,cs),
(139,497,o),
(152,476,o),
(152,432,cs),
(152,387,o),
(139,366,o),
(115,366,cs)
);
},
{
closed = 1;
nodes = (
(205,537,o),
(192,558,o),
(192,603,cs),
(192,647,o),
(205,668,o),
(229,668,cs),
(252,668,o),
(266,647,o),
(266,603,cs),
(266,558,o),
(252,537,o),
(229,537,cs)
);
}
);
width = 344;
}
);
metricRight = "=|";
note = uni141D;
unicode = 5149;
},
{
glyphname = "glottalstop-canadian";
lastChange = "2023-01-13 15:55:56 +0000";
layers = (
{
layerId = "2974A4AB-0281-4EAC-B7D6-9B88228DB59B";
shapes = (
{
closed = 1;
nodes = (
(289,345,l),
(289,356,l),
(175,690,l),
(161,690,l),
(47,356,l),
(47,345,l)
);
},
{
closed = 1;
nodes = (
(180,644,l),
(157,644,l),
(249,363,l),
(257,381,l),
(79,381,l),
(86,363,l)
);
}
);
width = 336;
}
);
metricRight = "=|";
note = uni141E;
unicode = 5150;
},
{
glyphname = "pe-canadian";
kernLeft = ecanleft;
kernRight = ecanright;
lastChange = "2023-01-13 15:55:56 +0000";
layers = (
{
anchors = (
{
name = middle_center_can;
pos = (267,454);
},
{
name = top_center_can;
pos = (267,690);
},
{
name = top_left_can;
pos = (98,690);
},
{
name = top_right_can;
pos = (438,690);
}
);
layerId = "2974A4AB-0281-4EAC-B7D6-9B88228DB59B";
shapes = (
{
closed = 1;
nodes = (
(281,0,l),
(511,670,l),
(511,690,l),
(457,690,l),
(251,74,l),
(289,74,l),
(82,690,l),
(27,690,l),
(27,670,l),
(257,0,l)
);
}
);
width = 538;
}
);
metricLeft = "e-canadian";
metricRight = "e-canadian";
note = uni142F;
unicode = 5167;
},
{
glyphname = "pi-canadian";
kernLeft = icanleft;
kernRight = icanright;
lastChange = "2023-01-13 15:55:56 +0000";
layers = (
{
anchors = (
{
name = middle_center_can;
pos = (270,403);
},
{
name = top_center_can;
pos = (270,690);
},
{
name = top_left_can;
pos = (99,690);
},
{
name = top_right_can;
pos = (440,690);
}
);
layerId = "2974A4AB-0281-4EAC-B7D6-9B88228DB59B";
shapes = (
{
closed = 1;
nodes = (
(81,0,l),
(288,615,l),
(250,615,l),
(457,0,l),
(511,0,l),
(511,19,l),
(281,690,l),
(257,690,l),
(27,19,l),
(27,0,l)
);
}
);
width = 538;
}
);
metricLeft = "e-canadian";
metricRight = "e-canadian";
note = uni1431;
unicode = 5169;
},
{
glyphname = "po-canadian";
kernLeft = ocanleft;
kernRight = ocanright;
lastChange = "2023-01-13 15:55:56 +0000";
layers = (
{
anchors = (
{
name = middle_center_can;
pos = (165,345);
},
{
name = top_center_can;
pos = (250,690);
},
{
name = top_double;
pos = (333,690);
},
{
name = top_left_can;
pos = (69,690);
},
{
name = top_right_can;
pos = (431,690);
}
);
layerId = "2974A4AB-0281-4EAC-B7D6-9B88228DB59B";
shapes = (
{
closed = 1;
nodes = (
(59,0,l),
(464,332,l),
(464,357,l),
(59,690,l),
(42,690,l),
(42,634,l),
(412,329,l),
(412,360,l),
(42,56,l),
(42,0,l)
);
}
);
width = 495;
}
);
metricRight = "o-canadian";
note = uni1433;
unicode = 5171;
},
{
glyphname = "pa-canadian";
kernLeft = acanleft;
kernRight = acanright;
lastChange = "2023-01-13 15:55:56 +0000";
layers = (
{
anchors = (
{
name = middle_center_can;
pos = (240,345);
},
{
name = top_center_can;
pos = (245,690);
},
{
name = top_left_can;
pos = (60,690);
},
{
name = top_right_can;
pos = (426,690);
}
);
layerId = "2974A4AB-0281-4EAC-B7D6-9B88228DB59B";
shapes = (
{
closed = 1;
nodes = (
(453,0,l),
(453,56,l),
(83,360,l),
(83,329,l),
(453,634,l),
(453,690,l),
(436,690,l),
(30,357,l),
(30,332,l),
(436,0,l)
);
}
);
width = 495;
}
);
metricRight = "=|po-canadian";
note = uni1438;
unicode = 5176;
},
{
glyphname = "p-canadian";
kernLeft = mwestleft;
kernRight = mwestright;
lastChange = "2023-01-13 15:55:56 +0000";
layers = (
{
layerId = "2974A4AB-0281-4EAC-B7D6-9B88228DB59B";
shapes = (
{
closed = 1;
nodes = (
(259,345,l),
(259,385,l),
(83,532,l),
(83,502,l),
(259,648,l),
(259,690,l),
(249,690,l),
(50,526,l),
(50,509,l),
(249,345,l)
);
}
);
width = 309;
}
);
note = uni1449;
unicode = 5193;
},
{
glyphname = "pWestCree-canadian";
kernLeft = mwestleft;
kernRight = mwestright;
lastChange = "2023-01-13 15:55:56 +0000";
layers = (
{
layerId = "2974A4AB-0281-4EAC-B7D6-9B88228DB59B";
shapes = (
{
closed = 1;
nodes = (
(94,345,l),
(94,690,l),
(50,690,l),
(50,345,l)
);
}
);
width = 144;
}
);
metricRight = "=|";
note = uni144A;
unicode = 5194;
},
{
color = 6;
glyphname = "hCarrier-canadian";
lastChange = "2023-01-13 15:55:56 +0000";
layers = (
{
layerId = "2974A4AB-0281-4EAC-B7D6-9B88228DB59B";
shapes = (
{
closed = 1;
nodes = (
(94,183,l),
(94,333,ls),
(94,372,o),
(112,394,o),
(146,394,cs),
(176,394,o),
(190,374,o),
(190,332,cs),
(190,183,l),
(234,183,l),
(234,340,ls),
(234,404,o),
(199,434,o),
(155,434,cs),
(114,434,o),
(86,406,o),
(83,367,c),
(94,361,l),
(94,527,l),
(50,527,l),
(50,183,l)
);
}
);
width = 269;
}
);
metricLeft = "pWestCree-canadian";
note = uni144B;
unicode = 5195;
},
{
glyphname = "te-canadian";
lastChange = "2023-01-13 15:55:56 +0000";
layers = (
{
anchors = (
{
name = middle_center_can;
pos = (271,345);
},
{
name = top_center_can;
pos = (271,690);
},
{
name = top_left_can;
pos = (91,690);
},
{
name = top_right_can;
pos = (454,690);
}
);
layerId = "2974A4AB-0281-4EAC-B7D6-9B88228DB59B";
shapes = (
{
closed = 1;
nodes = (
(407,-13,o),
(485,71,o),
(485,237,cs),
(485,690,l),
(424,690,l),
(424,236,ls),
(424,103,o),
(369,45,o),
(271,45,cs),
(178,45,o),
(121,105,o),
(121,236,cs),
(121,690,l),
(59,690,l),
(59,234,ls),
(59,71,o),
(141,-13,o),
(272,-13,cs)
);
}
);
width = 544;
}
);
metricRight = "=|";
note = uni144C;
unicode = 5196;
},
{
glyphname = "ti-canadian";
lastChange = "2023-01-13 15:55:56 +0000";
layers = (
{
anchors = (
{
name = middle_center_can;
pos = (271,345);
},
{
name = middle_right_can;
pos = (575,345);
},
{
name = top_center_can;
pos = (271,690);
},
{
name = top_left_can;
pos = (91,690);
},
{
name = top_right_can;
pos = (454,690);
}
);
layerId = "2974A4AB-0281-4EAC-B7D6-9B88228DB59B";
shapes = (
{
closed = 1;
nodes = (
(121,0,l),
(121,454,ls),
(121,586,o),
(175,644,o),
(272,644,cs),
(367,644,o),
(424,584,o),
(424,454,cs),
(424,0,l),
(485,0,l),
(485,456,ls),
(485,618,o),
(404,702,o),
(272,702,cs),
(140,702,o),
(59,619,o),
(59,453,cs),
(59,0,l)
);
}
);
width = 544;
}
);
metricLeft = "te-canadian";
metricRight = "te-canadian";
note = uni144E;
unicode = 5198;
},
{
glyphname = "to-canadian";
kernLeft = toleft;
lastChange = "2023-01-13 15:55:56 +0000";
layers = (
{
anchors = (
{
name = middle_center_can;
pos = (192,345);
},
{
name = middle_right_can;
pos = (493,345);
},
{
name = top_center_can;
pos = (203,690);
},
{
name = top_double;
pos = (247,690);
},
{
name = top_left_can;
pos = (69,690);
},
{
name = top_right_can;
pos = (376,690);
}
);
layerId = "2974A4AB-0281-4EAC-B7D6-9B88228DB59B";
shapes = (
{
closed = 1;
nodes = (
(123,0,ls),
(314,0,o),
(403,121,o),
(403,346,cs),
(403,571,o),
(314,690,o),
(119,690,cs),
(42,690,l),
(42,633,l),
(119,633,ls),
(277,633,o),
(341,538,o),
(341,346,cs),
(341,156,o),
(277,57,o),
(124,57,cs),
(42,57,l),
(42,0,l)
);
}
);
width = 453;
}
);
note = uni1450;
unicode = 5200;
},
{
glyphname = "ta-canadian";
kernRight = taright;
lastChange = "2023-01-13 15:56:00 +0000";
layers = (
{
anchors = (
{
name = middle_center_can;
pos = (262,345);
},
{
name = top_center_can;
pos = (251,690);
},
{
name = top_left_can;
pos = (77,690);
},
{
name = top_right_can;
pos = (384,690);
}
);
layerId = "2974A4AB-0281-4EAC-B7D6-9B88228DB59B";
shapes = (
{
closed = 1;
nodes = (
(412,0,l),
(412,57,l),
(334,57,ls),
(176,57,o),
(112,152,o),
(112,344,cs),
(112,534,o),
(176,633,o),
(329,633,cs),
(412,633,l),
(412,690,l),
(329,690,ls),
(139,690,o),
(50,569,o),
(50,344,cs),
(50,119,o),
(139,0,o),
(335,0,cs)
);
}
);
width = 454;
}
);
metricLeft = "=|to-canadian";
metricRight = "=|to-canadian";
note = uni1455;
unicode = 5205;
},
{
glyphname = "t-canadian";
kernLeft = mwestleft;
kernRight = mwestright;
lastChange = "2023-01-13 15:55:56 +0000";
layers = (
{
layerId = "2974A4AB-0281-4EAC-B7D6-9B88228DB59B";
shapes = (
{
closed = 1;
nodes = (
(230,345,l),
(230,387,l),
(209,387,ls),
(129,387,o),
(94,431,o),
(94,517,cs),
(94,602,o),
(129,647,o),
(209,647,cs),
(230,647,l),
(230,690,l),
(203,690,ls),
(102,690,o),
(49,625,o),
(49,517,cs),
(49,409,o),
(102,345,o),
(205,345,cs)
);
}
);
width = 276;
}
);
note = uni1466;
unicode = 5222;
},
{
glyphname = "ke-canadian";
lastChange = "2023-01-13 15:55:56 +0000";
layers = (
{
anchors = (
{
name = middle_center_can;
pos = (237,441);
},
{
name = top_center_can;
pos = (222,690);
},
{
name = top_left_can;
pos = (84,690);
},
{
name = top_right_can;
pos = (360,690);
}
);
layerId = "2974A4AB-0281-4EAC-B7D6-9B88228DB59B";
shapes = (
{
closed = 1;
nodes = (
(391,0,l),
(391,449,ls),
(391,615,o),
(333,702,o),
(224,702,cs),
(115,702,o),
(53,613,o),
(53,451,cs),
(53,295,o),
(114,205,o),
(215,205,cs),
(279,205,o),
(325,249,o),
(336,313,c),
(329,341,l),
(329,0,l)
);
},
{
closed = 1;
nodes = (
(151,259,o),
(113,322,o),
(113,454,cs),
(113,586,o),
(151,648,o),
(222,648,cs),
(294,648,o),
(330,587,o),
(330,454,cs),
(330,322,o),
(293,259,o),
(222,259,cs)
);
}
);
width = 450;
}
);
metricRight = "te-canadian";
note = uni146B;
unicode = 5227;
},
{
glyphname = "ki-canadian";
lastChange = "2023-01-13 15:55:56 +0000";
layers = (
{
anchors = (
{
name = middle_center_can;
pos = (243,441);
},
{
name = top_center_can;
pos = (228,690);
},
{
name = top_left_can;
pos = (90,690);
},
{
name = top_right_can;
pos = (367,690);
}
);
layerId = "2974A4AB-0281-4EAC-B7D6-9B88228DB59B";
shapes = (
{
closed = 1;
nodes = (
(121,0,l),
(121,341,l),
(114,313,l),
(125,249,o),
(171,205,o),
(234,205,cs),
(336,205,o),
(397,295,o),
(397,451,cs),
(397,613,o),
(335,702,o),
(228,702,cs),
(117,702,o),
(59,612,o),
(59,449,cs),
(59,0,l)
);
},
{
closed = 1;
nodes = (
(157,259,o),
(120,322,o),
(120,454,cs),
(120,587,o),
(156,648,o),
(228,648,cs),
(299,648,o),
(337,586,o),
(337,454,cs),
(337,322,o),
(298,259,o),
(228,259,cs)
);
}
);
width = 450;
}
);
metricLeft = "te-canadian";
metricRight = "=|ke-canadian";
note = uni146D;
unicode = 5229;
},
{
glyphname = "ko-canadian";
lastChange = "2023-01-13 15:55:56 +0000";
layers = (
{
anchors = (
{
name = middle_center_can;
pos = (237,397);
},
{
name = top_center_can;
pos = (222,690);
},
{
name = top_double;
pos = (360,690);
},
{
name = top_left_can;
pos = (84,690);
},
{
name = top_right_can;
pos = (360,690);
}
);
layerId = "2974A4AB-0281-4EAC-B7D6-9B88228DB59B";
shapes = (
{
closed = 1;
nodes = (
(332,-13,o),
(391,74,o),
(391,241,cs),
(391,690,l),
(329,690,l),
(329,349,l),
(336,377,l),
(325,440,o),
(279,485,o),
(215,485,cs),
(114,485,o),
(53,395,o),
(53,237,cs),
(53,76,o),
(114,-13,o),
(223,-13,cs)
);
},
{
closed = 1;
nodes = (
(151,42,o),
(113,103,o),
(113,236,cs),
(113,368,o),
(151,431,o),
(222,431,cs),
(293,431,o),
(330,368,o),
(330,236,cs),
(330,102,o),
(294,42,o),
(222,42,cs)
);
}
);
width = 450;
}
);
metricLeft = "ke-canadian";
metricRight = "te-canadian";
note = uni146F;
unicode = 5231;
},
{
glyphname = "ka-canadian";
lastChange = "2023-01-13 15:55:56 +0000";
layers = (
{
anchors = (
{
name = middle_center_can;
pos = (243,398);
},
{
name = top_center_can;
pos = (228,690);
},
{
name = top_left_can;
pos = (90,690);
},
{
name = top_right_can;
pos = (367,690);
}
);
layerId = "2974A4AB-0281-4EAC-B7D6-9B88228DB59B";
shapes = (
{
closed = 1;
nodes = (
(335,-13,o),
(397,76,o),
(397,239,cs),
(397,395,o),
(336,485,o),
(234,485,cs),
(171,485,o),
(125,440,o),
(114,377,c),
(121,349,l),
(121,690,l),
(59,690,l),
(59,241,ls),
(59,74,o),
(117,-13,o),
(226,-13,cs)
);
},
{
closed = 1;
nodes = (
(156,42,o),
(120,102,o),
(120,236,cs),
(120,368,o),
(157,431,o),
(228,431,cs),
(298,431,o),
(337,368,o),
(337,236,cs),
(337,103,o),
(299,42,o),
(228,42,cs)
);
}
);
width = 450;
}
);
metricLeft = "te-canadian";
metricRight = "==|ke-canadian";
note = uni1472;
unicode = 5234;
},
{
glyphname = "k-canadian";
kernLeft = mwestleft;
kernRight = mwestright;
lastChange = "2023-01-13 15:55:56 +0000";
layers = (
{
layerId = "2974A4AB-0281-4EAC-B7D6-9B88228DB59B";
shapes = (
{
closed = 1;
nodes = (
(196,339,o),
(238,382,o),
(238,473,cs),
(238,557,o),
(200,601,o),
(153,601,cs),
(114,601,o),
(85,571,o),
(82,521,c),
(94,522,l),
(94,690,l),
(50,690,l),
(50,469,ls),
(50,384,o),
(88,339,o),
(144,339,cs)
);
},
{
closed = 1;
nodes = (
(111,375,o),
(92,401,o),
(92,470,cs),
(92,537,o),
(113,565,o),
(145,565,cs),
(176,565,o),
(197,538,o),
(197,471,cs),
(197,404,o),
(177,375,o),
(145,375,cs)
);
}
);
width = 278;
}
);
note = uni1483;
unicode = 5251;
},
{
glyphname = "kw-canadian";
kernLeft = mwestleft;
kernRight = mwestright;
lastChange = "2023-01-13 15:56:00 +0000";
layers = (
{
layerId = "2974A4AB-0281-4EAC-B7D6-9B88228DB59B";
shapes = (
{
closed = 1;
nodes = (
(190,339,o),
(227,384,o),
(227,469,cs),
(227,690,l),
(184,690,l),
(184,522,l),
(196,521,l),
(192,571,o),
(163,601,o),
(126,601,cs),
(77,601,o),
(40,557,o),
(40,473,cs),
(40,382,o),
(81,339,o),
(133,339,cs)
);
},
{
closed = 1;
nodes = (
(100,375,o),
(80,404,o),
(80,471,cs),
(80,538,o),
(101,565,o),
(132,565,cs),
(164,565,o),
(185,537,o),
(185,470,cs),
(185,401,o),
(166,375,o),
(132,375,cs)
);
}
);
width = 277;
}
);
metricLeft = "=|k-canadian";
metricRight = "=|k-canadian";
note = uni1484;
unicode = 5252;
},
{
glyphname = "ce-canadian";
kernLeft = celeft;
lastChange = "2023-01-13 15:55:56 +0000";
layers = (
{
anchors = (
{
name = middle_center_can;
pos = (235,420);
},
{
name = top_center_can;
pos = (220,690);
},
{
name = top_left_can;
pos = (83,690);
},
{
name = top_right_can;
pos = (356,690);
}
);
layerId = "2974A4AB-0281-4EAC-B7D6-9B88228DB59B";
shapes = (
{
closed = 1;
nodes = (
(386,0,l),
(386,471,ls),
(386,614,o),
(328,702,o),
(221,702,cs),
(112,702,o),
(52,618,o),
(52,479,cs),
(52,391,l),
(113,391,l),
(113,489,ls),
(113,588,o),
(148,647,o),
(220,647,cs),
(290,647,o),
(326,588,o),
(326,483,cs),
(326,0,l)
);
}
);
width = 445;
}
);
metricRight = "te-canadian";
note = uni1489;
unicode = 5257;
},
{
glyphname = "ci-canadian";
kernRight = ciright;
lastChange = "2023-01-13 15:55:56 +0000";
layers = (
{
anchors = (
{
name = middle_center_can;
pos = (242,420);
},
{
name = top_center_can;
pos = (228,690);
},
{
name = top_left_can;
pos = (91,690);
},
{
name = top_right_can;
pos = (365,690);
}
);
layerId = "2974A4AB-0281-4EAC-B7D6-9B88228DB59B";
shapes = (
{
closed = 1;
nodes = (
(121,0,l),
(121,483,ls),
(121,588,o),
(156,647,o),
(225,647,cs),
(298,647,o),
(333,588,o),
(333,489,cs),
(333,391,l),
(394,391,l),
(394,479,ls),
(394,618,o),
(333,702,o),
(226,702,cs),
(117,702,o),
(59,614,o),
(59,471,cs),
(59,0,l)
);
}
);
width = 446;
}
);
metricLeft = "te-canadian";
metricRight = "=|ce-canadian";
note = uni148B;
unicode = 5259;
},
{
glyphname = "co-canadian";
kernLeft = coleft;
lastChange = "2023-01-13 15:55:56 +0000";
layers = (
{
anchors = (
{
name = middle_center_can;
pos = (235,420);
},
{
name = top_center_can;
pos = (219,690);
},
{
name = top_double;
pos = (356,690);
},
{
name = top_left_can;
pos = (83,690);
},
{
name = top_right_can;
pos = (356,690);
}
);
layerId = "2974A4AB-0281-4EAC-B7D6-9B88228DB59B";
shapes = (
{
closed = 1;
nodes = (
(328,-13,o),
(386,75,o),
(386,218,cs),
(386,690,l),
(326,690,l),
(326,207,ls),
(326,102,o),
(290,43,o),
(220,43,cs),
(148,43,o),
(113,102,o),
(113,201,cs),
(113,298,l),
(52,298,l),
(52,211,ls),
(52,71,o),
(112,-13,o),
(221,-13,cs)
);
}
);
width = 445;
}
);
metricLeft = "ce-canadian";
metricRight = "te-canadian";
note = uni148D;
unicode = 5261;
},
{
glyphname = "ca-canadian";
kernRight = caright;
lastChange = "2023-01-13 15:55:56 +0000";
layers = (
{
anchors = (
{
name = middle_center_can;
pos = (242,420);
},
{
name = top_center_can;
pos = (228,690);
},
{
name = top_left_can;
pos = (91,690);
},
{
name = top_right_can;
pos = (364,690);
}
);
layerId = "2974A4AB-0281-4EAC-B7D6-9B88228DB59B";
shapes = (
{
closed = 1;
nodes = (
(333,-13,o),
(394,72,o),
(394,211,cs),
(394,298,l),
(333,298,l),
(333,201,ls),
(333,102,o),
(298,43,o),
(225,43,cs),
(156,43,o),
(121,102,o),
(121,207,cs),
(121,690,l),
(59,690,l),
(59,218,ls),
(59,75,o),
(117,-13,o),
(225,-13,cs)
);
}
);
width = 446;
}
);
metricLeft = "te-canadian";
metricRight = "=|ce-canadian";
note = uni1490;
unicode = 5264;
},
{
glyphname = "c-canadian";
kernLeft = mwestleft;
kernRight = mwestright;
lastChange = "2023-01-13 15:55:56 +0000";
layers = (
{
layerId = "2974A4AB-0281-4EAC-B7D6-9B88228DB59B";
shapes = (
{
closed = 1;
nodes = (
(200,339,o),
(238,382,o),
(238,458,cs),
(238,485,l),
(198,485,l),
(198,451,ls),
(198,403,o),
(178,377,o),
(146,377,cs),
(111,377,o),
(94,402,o),
(94,457,cs),
(94,690,l),
(50,690,l),
(50,463,ls),
(50,381,o),
(86,339,o),
(145,339,cs)
);
}
);
width = 270;
}
);
note = uni14A1;
unicode = 5281;
},
{
glyphname = "thSayisi-canadian";
lastChange = "2023-01-13 15:55:56 +0000";
layers = (
{
layerId = "2974A4AB-0281-4EAC-B7D6-9B88228DB59B";
shapes = (
{
closed = 1;
nodes = (
(185,339,o),
(220,381,o),
(220,463,cs),
(220,690,l),
(176,690,l),
(176,457,ls),
(176,402,o),
(159,377,o),
(124,377,cs),
(92,377,o),
(72,403,o),
(72,451,cs),
(72,485,l),
(32,485,l),
(32,458,ls),
(32,382,o),
(70,339,o),
(128,339,cs)
);
}
);
width = 270;
}
);
metricLeft = "=|c-canadian";
metricRight = "=|c-canadian";
note = uni14A2;
unicode = 5282;
},
{
glyphname = "me-canadian";
kernLeft = meleft;
lastChange = "2023-01-13 15:55:56 +0000";
layers = (
{
anchors = (
{
name = middle_center_can;
pos = (154,345);
},
{
name = top_center_can;
pos = (185,690);
},
{
name = top_left_can;
pos = (64,690);
},
{
name = top_right_can;
pos = (304,690);
}
);
layerId = "2974A4AB-0281-4EAC-B7D6-9B88228DB59B";
shapes = (
{
closed = 1;
nodes = (
(335,0,l),
(335,690,l),
(33,690,l),
(33,633,l),
(274,633,l),
(274,0,l)
);
}
);
width = 398;
}
);
metricRight = "nunavuth-canadian";
note = uni14A3;
unicode = 5283;
},
{
glyphname = "mi-canadian";
kernRight = miright;
lastChange = "2023-01-13 15:55:56 +0000";
layers = (
{
anchors = (
{
name = middle_center_can;
pos = (245,345);
},
{
name = top_center_can;
pos = (213,690);
},
{
name = top_left_can;
pos = (94,690);
},
{
name = top_right_can;
pos = (333,690);
}
);
layerId = "2974A4AB-0281-4EAC-B7D6-9B88228DB59B";
shapes = (
{
closed = 1;
nodes = (
(124,0,l),
(124,633,l),
(365,633,l),
(365,690,l),
(63,690,l),
(63,0,l)
);
}
);
width = 398;
}
);
metricLeft = "nunavuth-canadian";
metricRight = "=|me-canadian";
note = uni14A5;
unicode = 5285;
},
{
glyphname = "mo-canadian";
kernLeft = moleft;
lastChange = "2023-01-13 15:55:56 +0000";
layers = (
{
anchors = (
{
name = middle_center_can;
pos = (154,345);
},
{
name = top_center_can;
pos = (185,690);
},
{
name = top_double;
pos = (305,690);
},
{
name = top_left_can;
pos = (64,690);
},
{
name = top_right_can;
pos = (304,690);
}
);
layerId = "2974A4AB-0281-4EAC-B7D6-9B88228DB59B";
shapes = (
{
closed = 1;
nodes = (
(335,0,l),
(335,690,l),
(274,690,l),
(274,57,l),
(33,57,l),
(33,0,l)
);
}
);
width = 398;
}
);
metricLeft = "me-canadian";
metricRight = "nunavuth-canadian";
note = uni14A7;
unicode = 5287;
},
{
glyphname = "ma-canadian";
kernRight = maright;
lastChange = "2023-01-13 15:55:56 +0000";
layers = (
{
anchors = (
{
name = middle_center_can;
pos = (245,345);
},
{
name = top_center_can;
pos = (213,690);
},
{
name = top_left_can;
pos = (94,690);
},
{
name = top_right_can;
pos = (333,690);
}
);
layerId = "2974A4AB-0281-4EAC-B7D6-9B88228DB59B";
shapes = (
{
closed = 1;
nodes = (
(365,0,l),
(365,57,l),
(124,57,l),
(124,690,l),
(63,690,l),
(63,0,l)
);
}
);
width = 398;
}
);
metricLeft = "nunavuth-canadian";
metricRight = "=|me-canadian";
note = uni14AA;
unicode = 5290;
},
{
glyphname = "m-canadian";
kernLeft = mwestleft;
kernRight = mwestright;
lastChange = "2023-01-13 15:55:56 +0000";
layers = (
{
layerId = "2974A4AB-0281-4EAC-B7D6-9B88228DB59B";
shapes = (
{
closed = 1;
nodes = (
(217,387,l),
(94,387,l),
(94,690,l),
(50,690,l),
(50,345,l),
(217,345,l)
);
}
);
width = 245;
}
);
metricLeft = "pWestCree-canadian";
note = uni14BB;
unicode = 5307;
},
{
glyphname = "mh-canadian";
kernLeft = mwestleft;
kernRight = mwestright;
lastChange = "2023-01-13 15:55:56 +0000";
layers = (
{
layerId = "2974A4AB-0281-4EAC-B7D6-9B88228DB59B";
shapes = (
{
closed = 1;
nodes = (
(195,345,l),
(195,690,l),
(153,690,l),
(153,387,l),
(28,387,l),
(28,345,l)
);
}
);
width = 245;
}
);
metricLeft = "=|m-canadian";
metricRight = "=|m-canadian";
note = uni14BD;
unicode = 5309;
},
{
glyphname = "mAthapascan-canadian";
lastChange = "2023-01-13 15:55:56 +0000";
layers = (
{
layerId = "2974A4AB-0281-4EAC-B7D6-9B88228DB59B";
shapes = (
{
closed = 1;
nodes = (
(230,345,l),
(230,384,l),
(99,384,l),
(100,362,l),
(180,480,ls),
(212,527,o),
(218,562,o),
(218,596,cs),
(218,655,o),
(188,696,o),
(134,696,cs),
(76,696,o),
(44,653,o),
(44,578,c),
(85,578,l),
(85,639,o),
(100,661,o),
(133,661,cs),
(163,661,o),
(178,638,o),
(178,596,cs),
(178,567,o),
(176,544,o),
(143,494,cs),
(56,366,l),
(56,345,l)
);
}
);
width = 269;
}
);
note = uni14BE;
unicode = 5310;
},
{
glyphname = "ne-canadian";
kernLeft = neleft;
lastChange = "2023-01-13 15:55:56 +0000";
layers = (
{
anchors = (
{
name = middle_center_can;
pos = (389,245);
},
{
name = top_center_can;
pos = (382,491);
},
{
name = top_left_can;
pos = (80,491);
},
{
name = top_right_can;
pos = (532,491);
}
);
layerId = "2974A4AB-0281-4EAC-B7D6-9B88228DB59B";
shapes = (
{
closed = 1;
nodes = (
(497,-13,o),
(562,71,o),
(562,231,cs),
(562,390,o),
(497,472,o),
(382,472,cs),
(49,472,l),
(49,416,l),
(301,416,l),
(298,433,l),
(244,401,o),
(217,319,o),
(217,228,cs),
(217,71,o),
(282,-13,o),
(390,-13,cs)
);
},
{
closed = 1;
nodes = (
(315,42,o),
(278,102,o),
(278,231,cs),
(278,350,o),
(316,418,o),
(390,418,cs),
(463,418,o),
(502,358,o),
(502,231,cs),
(502,102,o),
(465,42,o),
(390,42,cs)
);
}
);
width = 615;
}
);
metricRight = "=|ke-canadian";
note = uni14C0;
unicode = 5312;
},
{
glyphname = "ni-canadian";
kernRight = niright;
lastChange = "2023-01-13 15:55:56 +0000";
layers = (
{
anchors = (
{
name = middle_center_can;
pos = (227,245);
},
{
name = top_center_can;
pos = (235,491);
},
{
name = top_left_can;
pos = (84,491);
},
{
name = top_right_can;
pos = (535,491);
}
);
layerId = "2974A4AB-0281-4EAC-B7D6-9B88228DB59B";
shapes = (
{
closed = 1;
nodes = (
(333,-13,o),
(398,71,o),
(398,228,cs),
(398,319,o),
(371,401,o),
(317,433,c),
(314,416,l),
(566,416,l),
(566,472,l),
(234,472,ls),
(119,472,o),
(53,389,o),
(53,230,cs),
(53,71,o),
(119,-13,o),
(225,-13,cs)
);
},
{
closed = 1;
nodes = (
(151,42,o),
(113,102,o),
(113,231,cs),
(113,359,o),
(153,419,o),
(225,419,cs),
(299,419,o),
(337,351,o),
(337,231,cs),
(337,102,o),
(299,42,o),
(225,42,cs)
);
}
);
width = 615;
}
);
metricLeft = "ke-canadian";
metricRight = "=|ne-canadian";
note = uni14C2;
unicode = 5314;
},
{
glyphname = "no-canadian";
kernLeft = noleft;
lastChange = "2023-01-13 15:55:56 +0000";
layers = (
{
anchors = (
{
name = middle_center_can;
pos = (388,245);
},
{
name = top_center_can;
pos = (386,491);
},
{
name = top_double;
pos = (390,491);
},
{
name = top_left_can;
pos = (79,491);
},
{
name = top_right_can;
pos = (532,491);
}
);
layerId = "2974A4AB-0281-4EAC-B7D6-9B88228DB59B";
shapes = (
{
closed = 1;
nodes = (
(382,0,ls),
(497,0,o),
(562,82,o),
(562,242,cs),
(562,402,o),
(497,485,o),
(390,485,cs),
(282,485,o),
(217,402,o),
(217,244,cs),
(217,154,o),
(244,71,o),
(299,40,c),
(301,57,l),
(49,57,l),
(49,0,l)
);
},
{
closed = 1;
nodes = (
(316,53,o),
(278,122,o),
(278,242,cs),
(278,370,o),
(315,431,o),
(390,431,cs),
(465,431,o),
(502,370,o),
(502,242,cs),
(502,113,o),
(463,53,o),
(390,53,cs)
);
}
);
width = 615;
}
);
metricLeft = "ne-canadian";
metricRight = "=|ke-canadian";
note = uni14C4;
unicode = 5316;
},
{
glyphname = "na-canadian";
kernRight = naright;
lastChange = "2023-01-13 15:55:56 +0000";
layers = (
{
anchors = (
{
name = middle_center_can;
pos = (227,245);
},
{
name = top_center_can;
pos = (229,491);
},
{
name = top_double;
pos = (337,491);
},
{
name = top_left_can;
pos = (84,491);
},
{
name = top_right_can;
pos = (535,491);
}
);
layerId = "2974A4AB-0281-4EAC-B7D6-9B88228DB59B";
shapes = (
{
closed = 1;
nodes = (
(566,0,l),
(566,56,l),
(314,56,l),
(316,40,l),
(371,71,o),
(398,154,o),
(398,244,cs),
(398,402,o),
(333,485,o),
(225,485,cs),
(119,485,o),
(53,402,o),
(53,242,cs),
(53,82,o),
(119,0,o),
(234,0,cs)
);
},
{
closed = 1;
nodes = (
(153,53,o),
(113,113,o),
(113,242,cs),
(113,370,o),
(151,431,o),
(225,431,cs),
(299,431,o),
(337,370,o),
(337,242,cs),
(337,122,o),
(299,53,o),
(225,53,cs)
);
}
);
width = 615;
}
);
metricLeft = "ke-canadian";
metricRight = "=|ne-canadian";
note = uni14C7;
unicode = 5319;
},
{
glyphname = "n-canadian";
kernLeft = mwestleft;
kernRight = mwestright;
lastChange = "2023-01-13 15:56:00 +0000";
layers = (
{
layerId = "2974A4AB-0281-4EAC-B7D6-9B88228DB59B";
shapes = (
{
closed = 1;
nodes = (
(321,434,l),
(321,476,l),
(181,476,l),
(182,457,l),
(212,471,o),
(225,517,o),
(225,567,cs),
(225,651,o),
(188,696,o),
(132,696,cs),
(76,696,o),
(40,650,o),
(40,565,cs),
(40,481,o),
(75,434,o),
(138,434,cs)
);
},
{
closed = 1;
nodes = (
(99,469,o),
(79,499,o),
(79,565,cs),
(79,632,o),
(99,660,o),
(133,660,cs),
(166,660,o),
(185,631,o),
(185,565,cs),
(185,498,o),
(165,469,o),
(132,469,cs)
);
}
);
width = 349;
}
);
metricLeft = "=|k-canadian";
note = uni14D0;
unicode = 5328;
},
{
glyphname = "nh-canadian";
kernLeft = mwestleft;
kernRight = mwestright;
lastChange = "2023-01-13 15:56:00 +0000";
layers = (
{
layerId = "2974A4AB-0281-4EAC-B7D6-9B88228DB59B";
shapes = (
{
closed = 1;
nodes = (
(212,434,ls),
(273,434,o),
(309,481,o),
(309,565,cs),
(309,650,o),
(272,696,o),
(216,696,cs),
(160,696,o),
(125,651,o),
(125,567,cs),
(125,517,o),
(137,471,o),
(167,457,c),
(169,476,l),
(28,476,l),
(28,434,l)
);
},
{
closed = 1;
nodes = (
(185,469,o),
(164,498,o),
(164,565,cs),
(164,631,o),
(183,660,o),
(216,660,cs),
(249,660,o),
(270,632,o),
(270,565,cs),
(270,499,o),
(249,469,o),
(216,469,cs)
);
}
);
width = 349;
}
);
metricLeft = "=|n-canadian";
metricRight = "=|n-canadian";
note = uni14D2;
unicode = 5330;
},
{
glyphname = "le-canadian";
kernLeft = neleft;
lastChange = "2023-01-13 15:55:56 +0000";
layers = (
{
anchors = (
{
name = middle_center_can;
pos = (388,245);
},
{
name = top_center_can;
pos = (383,491);
},
{
name = top_left_can;
pos = (80,491);
},
{
name = top_right_can;
pos = (532,491);
}
);
layerId = "2974A4AB-0281-4EAC-B7D6-9B88228DB59B";
shapes = (
{
closed = 1;
nodes = (
(353,0,ls),
(485,0,o),
(562,81,o),
(562,236,cs),
(562,390,o),
(486,472,o),
(351,472,cs),
(49,472,l),
(49,416,l),
(350,416,ls),
(448,416,o),
(501,355,o),
(501,235,cs),
(501,116,o),
(449,55,o),
(348,55,cs),
(340,55,l),
(340,0,l)
);
}
);
width = 615;
}
);
metricLeft = "ne-canadian";
metricRight = "=|ke-canadian";
note = uni14D3;
unicode = 5331;
},
{
glyphname = "li-canadian";
kernRight = niright;
lastChange = "2023-01-13 15:55:56 +0000";
layers = (
{
anchors = (
{
name = middle_center_can;
pos = (227,245);
},
{
name = top_center_can;
pos = (235,491);
},
{
name = top_left_can;
pos = (84,491);
},
{
name = top_right_can;
pos = (535,491);
}
);
layerId = "2974A4AB-0281-4EAC-B7D6-9B88228DB59B";
shapes = (
{
closed = 1;
nodes = (
(275,0,l),
(275,55,l),
(268,55,ls),
(166,55,o),
(114,116,o),
(114,236,cs),
(114,356,o),
(167,416,o),
(266,416,cs),
(566,416,l),
(566,472,l),
(264,472,ls),
(132,472,o),
(53,390,o),
(53,236,cs),
(53,81,o),
(130,0,o),
(263,0,cs)
);
}
);
width = 615;
}
);
metricLeft = "ke-canadian";
metricRight = "=|ne-canadian";
note = uni14D5;
unicode = 5333;
},
{
glyphname = "lo-canadian";
kernLeft = noleft;
lastChange = "2023-01-13 15:55:56 +0000";
layers = (
{
anchors = (
{
name = middle_center_can;
pos = (388,245);
},
{
name = top_center_can;
pos = (386,491);
},
{
name = top_double;
pos = (353,491);
},
{
name = top_left_can;
pos = (79,491);
},
{
name = top_right_can;
pos = (532,491);
}
);
layerId = "2974A4AB-0281-4EAC-B7D6-9B88228DB59B";
shapes = (
{
closed = 1;
nodes = (
(352,0,ls),
(483,0,o),
(562,82,o),
(562,237,cs),
(562,391,o),
(485,472,o),
(353,472,cs),
(340,472,l),
(340,417,l),
(348,417,ls),
(449,417,o),
(501,356,o),
(501,238,cs),
(501,117,o),
(448,56,o),
(350,56,cs),
(49,56,l),
(49,0,l)
);
}
);
width = 615;
}
);
metricLeft = "ne-canadian";
metricRight = "=|ke-canadian";
note = uni14D7;
unicode = 5335;
},
{
glyphname = "la-canadian";
kernRight = naright;
lastChange = "2023-01-13 15:55:56 +0000";
layers = (
{
anchors = (
{
name = middle_center_can;
pos = (227,245);
},
{
name = top_center_can;
pos = (229,491);
},
{
name = top_left_can;
pos = (84,491);
},
{
name = top_right_can;
pos = (535,491);
}
);
layerId = "2974A4AB-0281-4EAC-B7D6-9B88228DB59B";
shapes = (
{
closed = 1;
nodes = (
(566,0,l),
(566,56,l),
(266,56,ls),
(166,56,o),
(114,117,o),
(114,238,cs),
(114,356,o),
(166,417,o),
(268,417,cs),
(275,417,l),
(275,472,l),
(263,472,ls),
(130,472,o),
(53,390,o),
(53,237,cs),
(53,82,o),
(131,0,o),
(264,0,cs)
);
}
);
width = 615;
}
);
metricLeft = "ke-canadian";
metricRight = "=|ne-canadian";
note = uni14DA;
unicode = 5338;
},
{
glyphname = "l-canadian";
kernLeft = mwestleft;
kernRight = mwestright;
lastChange = "2023-01-13 15:55:56 +0000";
layers = (
{
layerId = "2974A4AB-0281-4EAC-B7D6-9B88228DB59B";
shapes = (
{
closed = 1;
nodes = (
(321,345,l),
(321,387,l),
(208,387,ls),
(129,387,o),
(94,430,o),
(94,517,cs),
(94,601,o),
(129,647,o),
(197,647,cs),
(201,647,l),
(201,690,l),
(195,690,ls),
(101,690,o),
(49,625,o),
(49,517,cs),
(49,408,o),
(101,345,o),
(204,345,cs)
);
}
);
width = 349;
}
);
metricLeft = "t-canadian";
metricRight = "m-canadian";
note = uni14EA;
unicode = 5354;
},
{
glyphname = "lWestCree-canadian";
kernLeft = mwestleft;
kernRight = mwestright;
lastChange = "2023-01-13 15:55:56 +0000";
layers = (
{
layerId = "2974A4AB-0281-4EAC-B7D6-9B88228DB59B";
shapes = (
{
closed = 1;
nodes = (
(230,345,l),
(230,376,l),
(80,453,l),
(80,432,l),
(230,505,l),
(230,528,l),
(80,603,l),
(80,581,l),
(230,658,l),
(230,690,l),
(221,690,l),
(50,602,l),
(50,582,l),
(201,508,l),
(201,526,l),
(50,452,l),
(50,433,l),
(221,345,l)
);
}
);
width = 280;
}
);
metricRight = "=|";
note = uni14EB;
unicode = 5355;
},
{
glyphname = "mediall-canadian";
lastChange = "2023-01-13 15:55:56 +0000";
layers = (
{
layerId = "2974A4AB-0281-4EAC-B7D6-9B88228DB59B";
shapes = (
{
closed = 1;
nodes = (
(432,-13,l),
(432,34,l),
(110,199,l),
(110,173,l),
(432,329,l),
(432,360,l),
(110,517,l),
(110,491,l),
(432,656,l),
(432,702,l),
(415,702,l),
(58,521,l),
(58,491,l),
(382,334,l),
(382,355,l),
(58,199,l),
(58,169,l),
(415,-13,l)
);
}
);
width = 490;
}
);
metricRight = "=|";
note = uni14EC;
unicode = 5356;
},
{
glyphname = "se-canadian";
kernRight = seright;
lastChange = "2023-01-13 15:55:56 +0000";
layers = (
{
anchors = (
{
name = top_left_can;
pos = (91,690);
},
{
name = top_right_can;
pos = (315,690);
}
);
layerId = "2974A4AB-0281-4EAC-B7D6-9B88228DB59B";
shapes = (
{
closed = 1;
nodes = (
(346,0,l),
(346,315,l),
(311,315,ls),
(182,315,o),
(122,375,o),
(122,537,cs),
(122,690,l),
(61,690,l),
(61,533,ls),
(61,345,o),
(144,259,o),
(301,259,cs),
(329,259,l),
(285,282,l),
(285,0,l)
);
}
);
width = 409;
}
);
note = uni14ED;
unicode = 5357;
},
{
glyphname = "si-canadian";
kernLeft = sileft;
lastChange = "2023-01-13 15:55:56 +0000";
layers = (
{
anchors = (
{
name = top_left_can;
pos = (94,690);
},
{
name = top_right_can;
pos = (318,690);
}
);
layerId = "2974A4AB-0281-4EAC-B7D6-9B88228DB59B";
shapes = (
{
closed = 1;
nodes = (
(124,0,l),
(124,282,l),
(79,259,l),
(107,259,ls),
(265,259,o),
(348,345,o),
(348,533,cs),
(348,690,l),
(287,690,l),
(287,537,ls),
(287,375,o),
(227,315,o),
(98,315,cs),
(63,315,l),
(63,0,l)
);
}
);
width = 409;
}
);
metricLeft = "=|se-canadian";
metricRight = "=|se-canadian";
note = uni14EF;
unicode = 5359;
},
{
glyphname = "so-canadian";
kernRight = soright;
lastChange = "2023-01-13 15:55:56 +0000";
layers = (
{
anchors = (
{
name = top_double;
pos = (316,690);
},
{
name = top_left_can;
pos = (92,690);
},
{
name = top_right_can;
pos = (315,690);
}
);
layerId = "2974A4AB-0281-4EAC-B7D6-9B88228DB59B";
shapes = (
{
closed = 1;
nodes = (
(122,0,l),
(122,153,ls),
(122,315,o),
(182,375,o),
(311,375,cs),
(346,375,l),
(346,690,l),
(285,690,l),
(285,408,l),
(329,431,l),
(301,431,ls),
(144,431,o),
(61,345,o),
(61,156,cs),
(61,0,l)
);
}
);
width = 409;
}
);
metricLeft = "se-canadian";
metricRight = "se-canadian";
note = uni14F1;
unicode = 5361;
},
{
glyphname = "sa-canadian";
kernLeft = saleft;
kernRight = saright;
lastChange = "2023-01-13 15:55:56 +0000";
layers = (
{
anchors = (
{
name = top_left_can;
pos = (94,690);
},
{
name = top_right_can;
pos = (318,690);
}
);
layerId = "2974A4AB-0281-4EAC-B7D6-9B88228DB59B";
shapes = (
{
closed = 1;
nodes = (
(348,0,l),
(348,156,ls),
(348,345,o),
(265,431,o),
(107,431,cs),
(79,431,l),
(124,408,l),
(124,690,l),
(63,690,l),
(63,375,l),
(98,375,ls),
(227,375,o),
(287,315,o),
(287,153,cs),
(287,0,l)
);
}
);
width = 409;
}
);
metricLeft = "=|se-canadian";
metricRight = "=|se-canadian";
note = uni14F4;
unicode = 5364;
},
{
glyphname = "s-canadian";
kernLeft = mwestleft;
kernRight = mwestright;
lastChange = "2023-01-13 15:56:00 +0000";
layers = (
{
layerId = "2974A4AB-0281-4EAC-B7D6-9B88228DB59B";
shapes = (
{
closed = 1;
nodes = (
(216,345,l),
(216,427,ls),
(216,522,o),
(172,569,o),
(93,569,cs),
(69,569,l),
(94,548,l),
(94,690,l),
(50,690,l),
(50,532,l),
(83,532,ls),
(145,532,o),
(173,499,o),
(173,424,cs),
(173,345,l)
);
}
);
width = 266;
}
);
metricRight = "=|";
note = uni1505;
unicode = 5381;
},
{
color = 6;
glyphname = "sAthapascan-canadian";
lastChange = "2023-01-13 15:55:56 +0000";
layers = (
{
layerId = "2974A4AB-0281-4EAC-B7D6-9B88228DB59B";
shapes = (
{
closed = 1;
nodes = (
(206,177,o),
(241,216,o),
(241,268,cs),
(241,312,o),
(222,340,o),
(178,361,cs),
(136,382,ls),
(103,398,o),
(96,415,o),
(96,442,cs),
(96,475,o),
(113,497,o),
(148,497,cs),
(182,497,o),
(203,480,o),
(201,429,c),
(242,429,l),
(243,493,o),
(211,533,o),
(147,533,cs),
(89,533,o),
(55,495,o),
(55,442,cs),
(55,398,o),
(74,368,o),
(115,349,cs),
(157,328,ls),
(188,313,o),
(200,298,o),
(200,267,cs),
(200,232,o),
(181,213,o),
(147,213,cs),
(111,213,o),
(90,230,o),
(91,284,c),
(50,284,l),
(48,214,o),
(83,177,o),
(146,177,cs)
);
}
);
width = 292;
}
);
metricRight = "=|";
note = uni1506;
unicode = 5382;
},
{
glyphname = "sw-canadian";
kernLeft = mwestleft;
kernRight = mwestright;
lastChange = "2023-01-13 15:56:00 +0000";
layers = (
{
layerId = "2974A4AB-0281-4EAC-B7D6-9B88228DB59B";
shapes = (
{
closed = 1;
nodes = (
(94,345,l),
(94,424,ls),
(94,499,o),
(123,532,o),
(185,532,cs),
(216,532,l),
(216,690,l),
(173,690,l),
(173,548,l),
(198,569,l),
(174,569,ls),
(96,569,o),
(50,522,o),
(50,427,cs),
(50,345,l)
);
}
);
width = 266;
}
);
metricLeft = "=|s-canadian";
metricRight = "=|s-canadian";
note = uni1507;
unicode = 5383;
},
{
glyphname = "sBlackfoot-canadian";
lastChange = "2023-01-13 15:55:56 +0000";
layers = (
{
layerId = "2974A4AB-0281-4EAC-B7D6-9B88228DB59B";
shapes = (
{
closed = 1;
nodes = (
(223,345,l),
(223,387,l),
(166,387,ls),
(112,387,o),
(94,411,o),
(94,469,cs),
(94,690,l),
(50,690,l),
(50,464,ls),
(50,385,o),
(84,345,o),
(162,345,c)
);
}
);
width = 251;
}
);
metricLeft = "ai-canadian";
metricRight = "m-canadian";
note = uni1508;
unicode = 5384;
},
{
glyphname = "moosecreesk-canadian";
kernLeft = mwestleft;
kernRight = mwestright;
lastChange = "2023-01-13 15:55:56 +0000";
layers = (
{
layerId = "2974A4AB-0281-4EAC-B7D6-9B88228DB59B";
shapes = (
{
closed = 1;
nodes = (
(198,217,o),
(238,259,o),
(238,365,cs),
(238,504,o),
(190,570,o),
(83,570,cs),
(74,570,l),
(94,548,l),
(94,690,l),
(50,690,l),
(50,533,l),
(75,533,ls),
(161,533,o),
(187,491,o),
(193,410,c),
(206,400,l),
(200,444,o),
(173,478,o),
(138,478,cs),
(88,478,o),
(51,433,o),
(51,350,cs),
(51,260,o),
(94,217,o),
(144,217,cs)
);
},
{
closed = 1;
nodes = (
(113,252,o),
(91,282,o),
(91,350,cs),
(91,415,o),
(113,444,o),
(144,444,cs),
(175,444,o),
(197,414,o),
(197,349,cs),
(197,279,o),
(177,252,o),
(144,252,cs)
);
}
);
width = 288;
}
);
metricRight = "=|";
note = uni1509;
unicode = 5385;
},
{
glyphname = "skwNaskapi-canadian";
kernLeft = mwestleft;
kernRight = mwestright;
lastChange = "2023-01-13 15:55:56 +0000";
layers = (
{
layerId = "2974A4AB-0281-4EAC-B7D6-9B88228DB59B";
shapes = (
{
closed = 1;
nodes = (
(195,217,o),
(238,260,o),
(238,350,cs),
(238,433,o),
(200,478,o),
(150,478,cs),
(116,478,o),
(88,444,o),
(82,400,c),
(95,410,l),
(101,491,o),
(127,533,o),
(213,533,cs),
(238,533,l),
(238,690,l),
(194,690,l),
(194,548,l),
(214,570,l),
(205,570,ls),
(99,570,o),
(50,504,o),
(50,365,cs),
(50,259,o),
(90,217,o),
(144,217,cs)
);
},
{
closed = 1;
nodes = (
(111,252,o),
(91,279,o),
(91,349,cs),
(91,414,o),
(113,444,o),
(144,444,cs),
(175,444,o),
(197,415,o),
(197,350,cs),
(197,282,o),
(176,252,o),
(144,252,cs)
);
}
);
width = 288;
}
);
metricLeft = "=|moosecreesk-canadian";
metricRight = "=|moosecreesk-canadian";
note = uni150A;
unicode = 5386;
},
{
glyphname = "swNaskapi-canadian";
lastChange = "2023-01-13 15:55:56 +0000";
layers = (
{
layerId = "2974A4AB-0281-4EAC-B7D6-9B88228DB59B";
shapes = (
{
closed = 1;
nodes = (
(235,178,l),
(235,254,ls),
(235,347,o),
(190,397,o),
(112,397,cs),
(87,397,l),
(109,376,l),
(109,513,l),
(67,513,l),
(67,360,l),
(104,360,ls),
(163,360,o),
(192,327,o),
(192,251,cs),
(192,178,l)
);
},
{
closed = 1;
nodes = (
(237,63,o),
(255,81,o),
(255,103,cs),
(255,127,o),
(236,145,o),
(214,145,cs),
(192,145,o),
(174,127,o),
(174,103,cs),
(174,81,o),
(192,63,o),
(214,63,cs)
);
},
{
closed = 1;
nodes = (
(110,545,o),
(128,563,o),
(128,585,cs),
(128,609,o),
(110,627,o),
(88,627,cs),
(66,627,o),
(47,609,o),
(47,585,cs),
(47,563,o),
(66,545,o),
(88,545,cs)
);
}
);
width = 302;
}
);
metricRight = "=|";
note = uni150B;
unicode = 5387;
},
{
glyphname = "spwaNaskapi-canadian";
lastChange = "2023-01-13 15:55:56 +0000";
layers = (
{
layerId = "2974A4AB-0281-4EAC-B7D6-9B88228DB59B";
shapes = (
{
closed = 1;
nodes = (
(453,0,l),
(453,56,l),
(83,360,l),
(83,329,l),
(453,634,l),
(453,690,l),
(436,690,l),
(30,357,l),
(30,332,l),
(436,0,l)
);
},
{
closed = 1;
nodes = (
(128,494,o),
(147,511,o),
(147,534,cs),
(147,557,o),
(128,576,o),
(105,576,cs),
(84,576,o),
(65,557,o),
(65,534,cs),
(65,511,o),
(84,494,o),
(105,494,cs)
);
},
{
closed = 1;
nodes = (
(263,598,l),
(263,658,ls),
(263,722,o),
(234,756,o),
(172,756,cs),
(152,756,l),
(182,738,l),
(182,836,l),
(141,836,l),
(141,722,l),
(163,722,ls),
(203,722,o),
(222,702,o),
(222,653,cs),
(222,598,l)
);
},
{
closed = 1;
nodes = (
(384,699,o),
(404,718,o),
(404,741,cs),
(404,764,o),
(384,782,o),
(362,782,cs),
(341,782,o),
(322,764,o),
(322,741,cs),
(322,718,o),
(341,699,o),
(362,699,cs)
);
}
);
width = 495;
}
);
metricRight = "pa-canadian";
metricWidth = "pa-canadian";
note = uni150C;
unicode = 5388;
},
{
glyphname = "she-canadian";
kernRight = caright;
lastChange = "2023-01-13 15:55:56 +0000";
layers = (
{
anchors = (
{
name = top_left_can;
pos = (219,690);
},
{
name = top_right_can;
pos = (519,690);
}
);
layerId = "2974A4AB-0281-4EAC-B7D6-9B88228DB59B";
shapes = (
{
closed = 1;
nodes = (
(583,-13,o),
(644,65,o),
(644,218,cs),
(644,298,l),
(582,298,l),
(582,209,ls),
(582,95,o),
(548,43,o),
(487,43,cs),
(420,43,o),
(392,94,o),
(385,218,cs),
(374,470,ls),
(367,625,o),
(322,702,o),
(215,702,cs),
(116,702,o),
(56,626,o),
(56,471,cs),
(56,391,l),
(117,391,l),
(117,481,ls),
(117,596,o),
(152,647,o),
(213,647,cs),
(279,647,o),
(307,596,o),
(314,471,cs),
(326,219,ls),
(332,65,o),
(379,-13,o),
(484,-13,cs)
);
}
);
width = 700;
}
);
metricRight = "=|";
note = uni1510;
unicode = 5392;
},
{
glyphname = "shi-canadian";
kernLeft = coleft;
lastChange = "2023-01-13 15:55:56 +0000";
layers = (
{
anchors = (
{
name = top_left_can;
pos = (184,690);
},
{
name = top_right_can;
pos = (483,690);
}
);
layerId = "2974A4AB-0281-4EAC-B7D6-9B88228DB59B";
shapes = (
{
closed = 1;
nodes = (
(322,-13,o),
(367,65,o),
(374,219,cs),
(385,471,ls),
(392,596,o),
(420,647,o),
(487,647,cs),
(548,647,o),
(582,596,o),
(582,481,cs),
(582,391,l),
(644,391,l),
(644,471,ls),
(644,626,o),
(583,702,o),
(484,702,cs),
(378,702,o),
(332,625,o),
(326,470,cs),
(314,218,ls),
(308,94,o),
(279,43,o),
(213,43,cs),
(152,43,o),
(117,95,o),
(117,209,cs),
(117,298,l),
(56,298,l),
(56,218,ls),
(56,65,o),
(117,-13,o),
(215,-13,cs)
);
}
);
width = 700;
}
);
metricLeft = "she-canadian";
metricRight = "she-canadian";
note = uni1511;
unicode = 5393;
},
{
glyphname = "sho-canadian";
lastChange = "2023-01-13 15:55:56 +0000";
layers = (
{
anchors = (
{
name = top_center_can;
pos = (355,491);
},
{
name = top_left_can;
pos = (216,491);
},
{
name = top_right_can;
pos = (496,491);
}
);
layerId = "2974A4AB-0281-4EAC-B7D6-9B88228DB59B";
shapes = (
{
closed = 1;
nodes = (
(273,43,l),
(165,42,o),
(114,89,o),
(114,174,cs),
(114,242,o),
(146,287,o),
(208,287,cs),
(304,287,o),
(389,129,o),
(513,129,cs),
(605,129,o),
(659,197,o),
(659,297,cs),
(659,416,o),
(580,486,o),
(440,485,c),
(439,430,l),
(548,431,o),
(599,384,o),
(599,298,cs),
(599,231,o),
(566,185,o),
(504,185,cs),
(408,185,o),
(323,343,o),
(200,343,cs),
(108,343,o),
(53,276,o),
(53,176,cs),
(53,57,o),
(132,-14,o),
(271,-13,c)
);
}
);
width = 712;
}
);
metricLeft = "ke-canadian";
metricRight = "=|ke-canadian";
note = uni1513;
unicode = 5395;
},
{
glyphname = "sha-canadian";
lastChange = "2023-01-13 15:55:56 +0000";
layers = (
{
anchors = (
{
name = top_center_can;
pos = (356,491);
},
{
name = top_left_can;
pos = (215,491);
},
{
name = top_right_can;
pos = (497,491);
}
);
layerId = "2974A4AB-0281-4EAC-B7D6-9B88228DB59B";
shapes = (
{
closed = 1;
nodes = (
(580,-14,o),
(659,57,o),
(659,176,cs),
(659,276,o),
(605,343,o),
(513,343,cs),
(389,343,o),
(304,185,o),
(208,185,cs),
(146,185,o),
(114,231,o),
(114,298,cs),
(114,384,o),
(165,431,o),
(273,430,c),
(271,485,l),
(132,486,o),
(53,416,o),
(53,297,cs),
(53,197,o),
(108,129,o),
(200,129,cs),
(323,129,o),
(408,287,o),
(504,287,cs),
(566,287,o),
(599,242,o),
(599,174,cs),
(599,89,o),
(548,42,o),
(439,43,c),
(440,-13,l)
);
}
);
width = 712;
}
);
metricLeft = "ke-canadian";
metricRight = "=|ke-canadian";
note = uni1515;
unicode = 5397;
},
{
glyphname = "sh-canadian";
kernLeft = mwestleft;
kernRight = mwestright;
lastChange = "2023-01-13 15:55:56 +0000";
layers = (
{
layerId = "2974A4AB-0281-4EAC-B7D6-9B88228DB59B";
shapes = (
{
closed = 1;
nodes = (
(428,291,o),
(493,344,o),
(493,434,cs),
(493,515,o),
(446,562,o),
(379,562,cs),
(292,562,o),
(237,469,o),
(168,469,cs),
(122,469,o),
(94,497,o),
(94,554,cs),
(94,616,o),
(138,656,o),
(224,656,c),
(223,697,l),
(114,697,o),
(49,643,o),
(49,554,cs),
(49,472,o),
(97,425,o),
(163,425,cs),
(250,425,o),
(305,519,o),
(374,519,cs),
(420,519,o),
(449,491,o),
(449,433,cs),
(449,371,o),
(404,331,o),
(318,331,c),
(320,291,l)
);
}
);
width = 542;
}
);
metricLeft = "t-canadian";
metricRight = "=|";
note = uni1525;
unicode = 5413;
},
{
glyphname = "ye-canadian";
kernLeft = yeleft;
lastChange = "2023-01-13 15:55:56 +0000";
layers = (
{
anchors = (
{
name = middle_right_can;
pos = (453,345);
},
{
name = top_left_can;
pos = (71,690);
},
{
name = top_right_can;
pos = (344,690);
}
);
layerId = "2974A4AB-0281-4EAC-B7D6-9B88228DB59B";
shapes = (
{
closed = 1;
nodes = (
(374,0,l),
(374,310,l),
(112,310,l),
(116,290,l),
(388,668,l),
(343,701,l),
(40,280,l),
(40,255,l),
(312,255,l),
(312,0,l)
);
}
);
width = 433;
}
);
note = uni1526;
unicode = 5414;
},
{
glyphname = "yi-canadian";
kernRight = yiright;
lastChange = "2023-01-13 15:55:56 +0000";
layers = (
{
anchors = (
{
name = top_left_can;
pos = (91,690);
},
{
name = top_right_can;
pos = (363,690);
}
);
layerId = "2974A4AB-0281-4EAC-B7D6-9B88228DB59B";
shapes = (
{
closed = 1;
nodes = (
(121,0,l),
(121,255,l),
(393,255,l),
(393,280,l),
(90,701,l),
(44,668,l),
(318,290,l),
(322,310,l),
(60,310,l),
(60,0,l)
);
}
);
width = 433;
}
);
metricRight = "=|ye-canadian";
metricWidth = "ye-canadian";
note = uni1528;
unicode = 5416;
},
{
glyphname = "yo-canadian";
kernLeft = yoleft;
lastChange = "2023-01-13 15:55:56 +0000";
layers = (
{
anchors = (
{
name = middle_right_can;
pos = (453,345);
},
{
name = top_double;
pos = (344,690);
},
{
name = top_left_can;
pos = (71,690);
},
{
name = top_right_can;
pos = (344,690);
}
);
layerId = "2974A4AB-0281-4EAC-B7D6-9B88228DB59B";
shapes = (
{
closed = 1;
nodes = (
(388,22,l),
(116,400,l),
(112,380,l),
(374,380,l),
(374,690,l),
(312,690,l),
(312,435,l),
(40,435,l),
(40,410,l),
(343,-12,l)
);
}
);
width = 433;
}
);
metricLeft = "ye-canadian";
metricWidth = "ye-canadian";
note = uni152A;
unicode = 5418;
},
{
glyphname = "ya-canadian";
kernRight = yaright;
lastChange = "2023-01-13 15:55:56 +0000";
layers = (
{
anchors = (
{
name = top_left_can;
pos = (91,690);
},
{
name = top_right_can;
pos = (363,690);
}
);
layerId = "2974A4AB-0281-4EAC-B7D6-9B88228DB59B";
shapes = (
{
closed = 1;
nodes = (
(393,410,l),
(393,435,l),
(121,435,l),
(121,690,l),
(60,690,l),
(60,380,l),
(322,380,l),
(318,400,l),
(45,22,l),
(90,-12,l)
);
}
);
width = 433;
}
);
metricRight = "=|ye-canadian";
metricWidth = "ye-canadian";
note = uni152D;
unicode = 5421;
},
{
glyphname = "y-canadian";
kernLeft = mwestleft;
kernRight = mwestright;
lastChange = "2023-01-13 15:55:56 +0000";
layers = (
{
layerId = "2974A4AB-0281-4EAC-B7D6-9B88228DB59B";
shapes = (
{
closed = 1;
nodes = (
(232,546,l),
(232,562,l),
(98,562,l),
(98,690,l),
(54,690,l),
(54,524,l),
(187,524,l),
(186,550,l),
(50,359,l),
(83,337,l)
);
}
);
width = 259;
}
);
note = uni153E;
unicode = 5438;
},
{
glyphname = "biblecreey-canadian";
lastChange = "2023-01-13 15:56:00 +0000";
layers = (
{
layerId = "2974A4AB-0281-4EAC-B7D6-9B88228DB59B";
shapes = (
{
closed = 1;
nodes = (
(131,639,l),
(109,639,l),
(182,345,l),
(207,345,l),
(279,639,l),
(257,639,l),
(309,345,l),
(348,345,l),
(348,357,l),
(288,690,l),
(255,690,l),
(181,392,l),
(208,392,l),
(132,690,l),
(100,690,l),
(41,357,l),
(41,345,l),
(79,345,l)
);
}
);
width = 389;
}
);
metricRight = "=|";
note = uni153F;
unicode = 5439;
},
{
glyphname = "yWestCree-canadian";
lastChange = "2023-01-13 15:55:56 +0000";
layers = (
{
layerId = "2974A4AB-0281-4EAC-B7D6-9B88228DB59B";
shapes = (
{
closed = 1;
nodes = (
(193,201,l),
(193,323,l),
(293,323,l),
(293,365,l),
(193,365,l),
(193,484,l),
(152,484,l),
(152,365,l),
(50,365,l),
(50,323,l),
(152,323,l),
(152,201,l)
);
}
);
width = 343;
}
);
metricLeft = "shorthorizontalstrokeFinal-canadian";
metricRight = "shorthorizontalstrokeFinal-canadian";
note = uni1540;
unicode = 5440;
},
{
glyphname = "re-canadian";
kernRight = niright;
lastChange = "2023-01-13 15:55:56 +0000";
layers = (
{
anchors = (
{
name = top_center_can;
pos = (229,491);
},
{
name = top_left_can;
pos = (92,491);
},
{
name = top_right_can;
pos = (568,491);
}
);
layerId = "2974A4AB-0281-4EAC-B7D6-9B88228DB59B";
shapes = (
{
closed = 1;
nodes = (
(338,-13,o),
(396,69,o),
(396,207,cs),
(396,416,l),
(599,416,l),
(599,472,l),
(336,472,l),
(336,198,ls),
(336,95,o),
(300,43,o),
(229,43,cs),
(157,43,o),
(122,96,o),
(122,198,cs),
(122,472,l),
(61,472,l),
(61,207,ls),
(61,66,o),
(122,-13,o),
(229,-13,cs)
);
}
);
width = 648;
}
);
metricRight = "=|ne-canadian";
note = uni1542;
unicode = 5442;
},
{
glyphname = "reRCree-canadian";
kernLeft = neleft;
lastChange = "2023-01-13 15:55:56 +0000";
layers = (
{
anchors = (
{
name = top_center_can;
pos = (419,491);
},
{
name = top_left_can;
pos = (80,491);
},
{
name = top_right_can;
pos = (557,491);
}
);
layerId = "2974A4AB-0281-4EAC-B7D6-9B88228DB59B";
shapes = (
{
closed = 1;
nodes = (
(527,-13,o),
(588,66,o),
(588,207,cs),
(588,472,l),
(526,472,l),
(526,198,ls),
(526,96,o),
(491,43,o),
(419,43,cs),
(348,43,o),
(312,95,o),
(312,198,cs),
(312,472,l),
(49,472,l),
(49,416,l),
(252,416,l),
(252,207,ls),
(252,69,o),
(310,-13,o),
(419,-13,cs)
);
}
);
width = 649;
}
);
metricLeft = "ne-canadian";
metricRight = "=|re-canadian";
note = uni1543;
unicode = 5443;
},
{
glyphname = "leWestCree-canadian";
kernLeft = noleft;
lastChange = "2023-01-13 15:55:56 +0000";
layers = (
{
anchors = (
{
name = top_center_can;
pos = (419,491);
},
{
name = top_left_can;
pos = (80,491);
},
{
name = top_right_can;
pos = (557,491);
}
);
layerId = "2974A4AB-0281-4EAC-B7D6-9B88228DB59B";
shapes = (
{
closed = 1;
nodes = (
(312,0,l),
(312,274,ls),
(312,378,o),
(348,430,o),
(419,430,cs),
(491,430,o),
(526,377,o),
(526,274,cs),
(526,0,l),
(588,0,l),
(588,266,ls),
(588,407,o),
(527,485,o),
(419,485,cs),
(310,485,o),
(252,404,o),
(252,266,cs),
(252,57,l),
(49,57,l),
(49,0,l)
);
}
);
width = 649;
}
);
metricLeft = "ne-canadian";
metricRight = "=|re-canadian";
note = uni1544;
unicode = 5444;
},
{
glyphname = "ri-canadian";
kernRight = naright;
lastChange = "2023-01-13 15:55:56 +0000";
layers = (
{
anchors = (
{
name = top_center_can;
pos = (229,491);
},
{
name = top_left_can;
pos = (92,491);
},
{
name = top_right_can;
pos = (568,491);
}
);
layerId = "2974A4AB-0281-4EAC-B7D6-9B88228DB59B";
shapes = (
{
closed = 1;
nodes = (
(122,0,l),
(122,274,ls),
(122,377,o),
(157,430,o),
(230,430,cs),
(300,430,o),
(336,378,o),
(336,274,cs),
(336,0,l),
(599,0,l),
(599,57,l),
(396,57,l),
(396,266,ls),
(396,404,o),
(338,485,o),
(229,485,cs),
(122,485,o),
(61,407,o),
(61,266,cs),
(61,0,l)
);
}
);
width = 648;
}
);
metricLeft = "re-canadian";
metricRight = "=|ne-canadian";
note = uni1546;
unicode = 5446;
},
{
glyphname = "ro-canadian";
lastChange = "2023-01-13 15:55:56 +0000";
layers = (
{
anchors = (
{
name = top_center_can;
pos = (179,690);
}
);
layerId = "2974A4AB-0281-4EAC-B7D6-9B88228DB59B";
shapes = (
{
closed = 1;
nodes = (
(124,0,l),
(124,276,l),
(109,256,l),
(167,256,ls),
(287,256,o),
(362,342,o),
(362,471,cs),
(362,604,o),
(292,690,o),
(158,690,cs),
(63,690,l),
(63,634,l),
(152,634,ls),
(251,634,o),
(300,571,o),
(300,471,cs),
(300,374,o),
(250,311,o),
(152,311,cs),
(63,311,l),
(63,0,l)
);
}
);
width = 410;
}
);
metricLeft = "nunavuth-canadian";
note = uni1548;
unicode = 5448;
},
{
glyphname = "loWestCree-canadian";
lastChange = "2023-01-13 15:55:56 +0000";
layers = (
{
anchors = (
{
name = top_center_can;
pos = (196,690);
},
{
name = top_left_can;
pos = (94,690);
}
);
layerId = "2974A4AB-0281-4EAC-B7D6-9B88228DB59B";
shapes = (
{
closed = 1;
nodes = (
(158,0,ls),
(292,0,o),
(362,86,o),
(362,218,cs),
(362,348,o),
(287,435,o),
(167,435,cs),
(109,435,l),
(124,413,l),
(124,690,l),
(63,690,l),
(63,380,l),
(152,380,ls),
(250,380,o),
(300,316,o),
(300,218,cs),
(300,120,o),
(251,56,o),
(152,56,cs),
(63,56,l),
(63,0,l)
);
}
);
width = 410;
}
);
metricLeft = "nunavuth-canadian";
metricRight = "ro-canadian";
note = uni154A;
unicode = 5450;
},
{
glyphname = "ra-canadian";
lastChange = "2023-01-13 15:56:00 +0000";
layers = (
{
anchors = (
{
name = top_center_can;
pos = (230,690);
},
{
name = top_right_can;
pos = (317,690);
}
);
layerId = "2974A4AB-0281-4EAC-B7D6-9B88228DB59B";
shapes = (
{
closed = 1;
nodes = (
(348,0,l),
(348,311,l),
(258,311,ls),
(159,311,o),
(109,374,o),
(109,471,cs),
(109,571,o),
(158,634,o),
(259,634,cs),
(348,634,l),
(348,690,l),
(252,690,ls),
(118,690,o),
(48,604,o),
(48,471,cs),
(48,342,o),
(123,256,o),
(243,256,cs),
(300,256,l),
(286,276,l),
(286,0,l)
);
}
);
width = 411;
}
);
metricLeft = "=|ro-canadian";
metricRight = "nunavuth-canadian";
note = uni154B;
unicode = 5451;
},
{
glyphname = "laWestCree-canadian";
lastChange = "2023-01-13 15:56:00 +0000";
layers = (
{
anchors = (
{
name = top_center_can;
pos = (317,690);
}
);
layerId = "2974A4AB-0281-4EAC-B7D6-9B88228DB59B";
shapes = (
{
closed = 1;
nodes = (
(348,0,l),
(348,56,l),
(259,56,ls),
(158,56,o),
(109,120,o),
(109,218,cs),
(109,316,o),
(159,380,o),
(258,380,cs),
(348,380,l),
(348,690,l),
(286,690,l),
(286,413,l),
(300,435,l),
(243,435,ls),
(123,435,o),
(48,348,o),
(48,218,cs),
(48,86,o),
(118,0,o),
(252,0,cs)
);
}
);
width = 411;
}
);
metricLeft = "=|ro-canadian";
metricRight = "nunavuth-canadian";
note = uni154D;
unicode = 5453;
},
{
glyphname = "r-canadian";
kernLeft = mwestleft;
kernRight = mwestright;
lastChange = "2023-01-13 15:56:00 +0000";
layers = (
{
layerId = "2974A4AB-0281-4EAC-B7D6-9B88228DB59B";
shapes = (
{
closed = 1;
nodes = (
(192,345,l),
(192,507,l),
(154,507,ls),
(108,507,o),
(82,530,o),
(82,580,cs),
(82,629,o),
(110,652,o),
(155,652,cs),
(192,652,l),
(192,690,l),
(155,690,ls),
(83,690,o),
(40,651,o),
(40,580,cs),
(40,511,o),
(81,470,o),
(149,470,cs),
(175,470,l),
(148,486,l),
(148,345,l)
);
}
);
width = 242;
}
);
metricLeft = "=|k-canadian";
note = uni1550;
unicode = 5456;
},
{
glyphname = "rWestCree-canadian";
kernLeft = mwestleft;
kernRight = mwestright;
lastChange = "2023-01-13 15:55:56 +0000";
layers = (
{
layerId = "2974A4AB-0281-4EAC-B7D6-9B88228DB59B";
shapes = (
{
closed = 1;
nodes = (
(60,345,l),
(230,433,l),
(230,452,l),
(80,526,l),
(80,508,l),
(230,582,l),
(230,602,l),
(60,690,l),
(50,690,l),
(50,658,l),
(201,581,l),
(201,603,l),
(50,528,l),
(50,505,l),
(201,432,l),
(201,453,l),
(50,376,l),
(50,345,l)
);
}
);
width = 280;
}
);
metricLeft = "=|lWestCree-canadian";
metricRight = "=|lWestCree-canadian";
note = uni1551;
unicode = 5457;
},
{
glyphname = "rMedial-canadian";
lastChange = "2023-01-13 15:55:56 +0000";
layers = (
{
layerId = "2974A4AB-0281-4EAC-B7D6-9B88228DB59B";
shapes = (
{
closed = 1;
nodes = (
(75,-13,l),
(446,169,l),
(446,197,l),
(115,354,l),
(115,336,l),
(446,493,l),
(446,521,l),
(75,702,l),
(58,702,l),
(58,657,l),
(394,492,l),
(394,519,l),
(58,362,l),
(58,327,l),
(394,171,l),
(394,198,l),
(58,33,l),
(58,-13,l)
);
}
);
width = 504;
}
);
metricLeft = "mediall-canadian";
metricRight = "mediall-canadian";
note = uni1552;
unicode = 5458;
},
{
glyphname = "fe-canadian";
kernLeft = ecanleft;
kernRight = ecanright;
lastChange = "2023-01-13 15:55:56 +0000";
layers = (
{
layerId = "2974A4AB-0281-4EAC-B7D6-9B88228DB59B";
shapes = (
{
closed = 1;
nodes = (
(295,0,l),
(550,670,l),
(550,690,l),
(501,690,l),
(272,70,l),
(289,70,l),
(175,360,l),
(150,353,l),
(169,330,o),
(190,322,o),
(216,322,cs),
(287,322,o),
(336,394,o),
(336,512,cs),
(336,632,o),
(292,702,o),
(212,702,cs),
(131,702,o),
(87,632,o),
(87,523,cs),
(87,466,o),
(99,412,o),
(121,358,cs),
(270,0,l)
);
},
{
closed = 1;
nodes = (
(161,366,o),
(136,425,o),
(136,522,cs),
(136,611,o),
(163,656,o),
(212,656,cs),
(260,656,o),
(287,611,o),
(287,511,cs),
(287,412,o),
(260,366,o),
(213,366,cs)
);
}
);
width = 577;
}
);
metricRight = "e-canadian";
note = uni1553;
unicode = 5459;
},
{
glyphname = "fi-canadian";
kernLeft = icanleft;
kernRight = icanright;
lastChange = "2023-01-13 15:55:56 +0000";
layers = (
{
anchors = (
{
name = top_center_can;
pos = (285,690);
},
{
name = top_left_can;
pos = (111,690);
},
{
name = top_right_can;
pos = (480,690);
}
);
layerId = "2974A4AB-0281-4EAC-B7D6-9B88228DB59B";
shapes = (
{
closed = 1;
nodes = (
(292,-13,o),
(336,58,o),
(336,178,cs),
(336,296,o),
(287,368,o),
(216,368,cs),
(190,368,o),
(169,359,o),
(150,337,c),
(175,329,l),
(289,620,l),
(272,620,l),
(501,0,l),
(550,0,l),
(550,19,l),
(295,690,l),
(270,690,l),
(121,331,ls),
(99,277,o),
(87,224,o),
(87,167,cs),
(87,58,o),
(131,-13,o),
(212,-13,cs)
);
},
{
closed = 1;
nodes = (
(163,34,o),
(136,78,o),
(136,168,cs),
(136,265,o),
(161,324,o),
(213,324,cs),
(260,324,o),
(287,278,o),
(287,179,cs),
(287,78,o),
(260,34,o),
(212,34,cs)
);
}
);
width = 577;
}
);
metricLeft = "fe-canadian";
metricRight = "e-canadian";
note = uni1555;
unicode = 5461;
},
{
glyphname = "fo-canadian";
kernLeft = ocanleft;
kernRight = ocanright;
lastChange = "2023-01-13 15:55:56 +0000";
layers = (
{
anchors = (
{
name = top_center_can;
pos = (168,690);
}
);
layerId = "2974A4AB-0281-4EAC-B7D6-9B88228DB59B";
shapes = (
{
closed = 1;
nodes = (
(89,0,l),
(489,332,l),
(489,357,l),
(258,655,ls),
(233,688,o),
(201,702,o),
(166,702,cs),
(88,702,o),
(45,632,o),
(45,510,cs),
(45,394,o),
(92,320,o),
(168,320,cs),
(242,320,o),
(288,394,o),
(288,510,cs),
(288,561,o),
(276,602,o),
(265,628,c),
(246,591,l),
(442,340,l),
(442,360,l),
(71,52,l),
(71,0,l)
);
},
{
closed = 1;
nodes = (
(121,366,o),
(95,411,o),
(95,511,cs),
(95,611,o),
(121,656,o),
(168,656,cs),
(216,656,o),
(242,611,o),
(242,511,cs),
(242,412,o),
(216,366,o),
(168,366,cs)
);
}
);
width = 520;
}
);
metricRight = "o-canadian";
note = uni1557;
unicode = 5463;
},
{
glyphname = "fa-canadian";
kernLeft = acanleft;
kernRight = acanright;
lastChange = "2023-01-13 15:56:00 +0000";
layers = (
{
anchors = (
{
name = top_center_can;
pos = (352,690);
}
);
layerId = "2974A4AB-0281-4EAC-B7D6-9B88228DB59B";
shapes = (
{
closed = 1;
nodes = (
(448,0,l),
(448,52,l),
(77,360,l),
(77,340,l),
(273,591,l),
(254,628,l),
(242,602,o),
(231,561,o),
(231,510,cs),
(231,394,o),
(276,320,o),
(352,320,cs),
(428,320,o),
(474,394,o),
(474,510,cs),
(474,632,o),
(432,702,o),
(353,702,cs),
(319,702,o),
(287,688,o),
(261,655,cs),
(30,357,l),
(30,332,l),
(430,0,l)
);
},
{
closed = 1;
nodes = (
(303,366,o),
(277,412,o),
(277,511,cs),
(277,611,o),
(303,656,o),
(351,656,cs),
(399,656,o),
(425,611,o),
(425,511,cs),
(425,411,o),
(399,366,o),
(351,366,cs)
);
}
);
width = 519;
}
);
metricRight = "=|fo-canadian";
note = uni1559;
unicode = 5465;
},
{
glyphname = "f-canadian";
kernLeft = mwestleft;
kernRight = mwestright;
lastChange = "2023-01-13 15:55:56 +0000";
layers = (
{
layerId = "2974A4AB-0281-4EAC-B7D6-9B88228DB59B";
shapes = (
{
closed = 1;
nodes = (
(249,345,l),
(249,376,l),
(71,526,l),
(71,518,l),
(159,629,l),
(153,658,l),
(147,643,o),
(142,624,o),
(142,597,cs),
(142,533,o),
(167,504,o),
(202,504,cs),
(239,504,o),
(262,535,o),
(262,600,cs),
(262,668,o),
(237,696,o),
(201,696,cs),
(185,696,o),
(169,688,o),
(154,668,cs),
(41,526,l),
(41,509,l),
(239,345,l)
);
},
{
closed = 1;
nodes = (
(181,531,o),
(169,552,o),
(169,599,cs),
(169,644,o),
(181,668,o),
(201,668,cs),
(222,668,o),
(234,649,o),
(234,599,cs),
(234,551,o),
(223,531,o),
(202,531,cs)
);
}
);
width = 308;
}
);
note = uni155D;
unicode = 5469;
},
{
glyphname = "the-canadian";
lastChange = "2023-01-13 15:55:56 +0000";
layers = (
{
anchors = (
{
name = middle_right_can;
pos = (582,345);
},
{
name = top_center_can;
pos = (275,690);
},
{
name = top_left_can;
pos = (90,690);
},
{
name = top_right_can;
pos = (461,690);
}
);
layerId = "2974A4AB-0281-4EAC-B7D6-9B88228DB59B";
shapes = (
{
closed = 1;
nodes = (
(412,-13,o),
(493,71,o),
(493,237,cs),
(493,690,l),
(431,690,l),
(431,235,ls),
(431,103,o),
(376,45,o),
(275,45,cs),
(178,45,o),
(120,107,o),
(120,238,cs),
(120,430,l),
(91,416,l),
(100,359,o),
(138,320,o),
(185,320,cs),
(259,320,o),
(306,392,o),
(306,511,cs),
(306,630,o),
(263,702,o),
(184,702,cs),
(102,702,o),
(59,631,o),
(59,497,cs),
(59,248,ls),
(59,74,o),
(140,-13,o),
(275,-13,cs)
);
},
{
closed = 1;
nodes = (
(137,366,o),
(109,412,o),
(109,511,cs),
(109,611,o),
(135,656,o),
(183,656,cs),
(230,656,o),
(256,611,o),
(256,512,cs),
(256,412,o),
(231,366,o),
(185,366,cs)
);
}
);
width = 552;
}
);
metricLeft = "te-canadian";
metricRight = "te-canadian";
note = uni155E;
unicode = 5470;
},
{
glyphname = "theNCree-canadian";
lastChange = "2023-01-13 15:55:56 +0000";
layers = (
{
layerId = "2974A4AB-0281-4EAC-B7D6-9B88228DB59B";
shapes = (
{
closed = 1;
nodes = (
(413,-13,o),
(493,71,o),
(493,246,cs),
(493,497,ls),
(493,631,o),
(449,702,o),
(368,702,cs),
(288,702,o),
(245,630,o),
(245,511,cs),
(245,392,o),
(293,320,o),
(366,320,cs),
(413,320,o),
(451,359,o),
(461,416,c),
(432,430,l),
(432,237,ls),
(432,104,o),
(376,44,o),
(276,44,cs),
(177,44,o),
(121,104,o),
(121,233,cs),
(121,690,l),
(59,690,l),
(59,234,ls),
(59,71,o),
(141,-13,o),
(276,-13,cs)
);
},
{
closed = 1;
nodes = (
(321,366,o),
(296,412,o),
(296,512,cs),
(296,611,o),
(321,656,o),
(369,656,cs),
(416,656,o),
(442,611,o),
(442,511,cs),
(442,412,o),
(414,366,o),
(367,366,cs)
);
}
);
width = 552;
}
);
metricLeft = "te-canadian";
metricRight = "te-canadian";
note = uni155F;
unicode = 5471;
},
{
glyphname = "thi-canadian";
lastChange = "2023-01-13 15:55:56 +0000";
layers = (
{
anchors = (
{
name = top_center_can;
pos = (273,690);
}
);
layerId = "2974A4AB-0281-4EAC-B7D6-9B88228DB59B";
shapes = (
{
closed = 1;
nodes = (
(263,-13,o),
(306,60,o),
(306,179,cs),
(306,298,o),
(259,370,o),
(185,370,cs),
(138,370,o),
(100,330,o),
(91,273,c),
(120,260,l),
(120,453,ls),
(120,585,o),
(176,645,o),
(275,645,cs),
(375,645,o),
(431,585,o),
(431,457,cs),
(431,0,l),
(493,0,l),
(493,456,ls),
(493,618,o),
(411,702,o),
(275,702,cs),
(138,702,o),
(59,619,o),
(59,443,cs),
(59,193,ls),
(59,59,o),
(102,-13,o),
(184,-13,cs)
);
},
{
closed = 1;
nodes = (
(135,34,o),
(109,79,o),
(109,179,cs),
(109,278,o),
(137,324,o),
(185,324,cs),
(231,324,o),
(256,277,o),
(256,178,cs),
(256,79,o),
(230,34,o),
(183,34,cs)
);
}
);
width = 552;
}
);
metricLeft = "te-canadian";
metricRight = "te-canadian";
note = uni1560;
unicode = 5472;
},
{
glyphname = "thiNCree-canadian";
lastChange = "2023-01-13 15:55:56 +0000";
layers = (
{
anchors = (
{
name = top_center_can;
pos = (273,690);
}
);
layerId = "2974A4AB-0281-4EAC-B7D6-9B88228DB59B";
shapes = (
{
closed = 1;
nodes = (
(449,-13,o),
(493,59,o),
(493,193,cs),
(493,443,ls),
(493,619,o),
(413,702,o),
(276,702,cs),
(141,702,o),
(59,618,o),
(59,456,cs),
(59,0,l),
(121,0,l),
(121,457,ls),
(121,585,o),
(177,645,o),
(276,645,cs),
(376,645,o),
(432,585,o),
(432,453,cs),
(432,260,l),
(461,273,l),
(451,330,o),
(413,370,o),
(366,370,cs),
(293,370,o),
(245,298,o),
(245,179,cs),
(245,60,o),
(288,-13,o),
(368,-13,cs)
);
},
{
closed = 1;
nodes = (
(321,34,o),
(296,79,o),
(296,178,cs),
(296,277,o),
(321,324,o),
(367,324,cs),
(414,324,o),
(442,278,o),
(442,179,cs),
(442,79,o),
(416,34,o),
(369,34,cs)
);
}
);
width = 552;
}
);
metricLeft = "te-canadian";
metricRight = "te-canadian";
note = uni1561;
unicode = 5473;
},
{
glyphname = "tho-canadian";
lastChange = "2023-01-13 15:55:56 +0000";
layers = (
{
anchors = (
{
name = top_center_can;
pos = (231,690);
}
);
layerId = "2974A4AB-0281-4EAC-B7D6-9B88228DB59B";
shapes = (
{
closed = 1;
nodes = (
(183,0,ls),
(371,0,o),
(457,121,o),
(457,353,cs),
(457,569,o),
(375,702,o),
(235,702,cs),
(135,702,o),
(55,630,o),
(55,488,cs),
(55,363,o),
(100,296,o),
(177,296,cs),
(254,296,o),
(297,363,o),
(297,480,cs),
(297,595,o),
(257,666,o),
(186,668,c),
(159,639,l),
(178,652,o),
(202,661,o),
(226,661,cs),
(341,661,o),
(396,544,o),
(396,356,cs),
(396,156,o),
(336,57,o),
(182,57,cs),
(80,57,l),
(80,0,l)
);
},
{
closed = 1;
nodes = (
(131,341,o),
(105,386,o),
(105,489,cs),
(105,586,o),
(136,637,o),
(182,637,cs),
(227,637,o),
(252,591,o),
(252,490,cs),
(252,387,o),
(226,341,o),
(179,341,cs)
);
}
);
width = 507;
}
);
metricRight = "to-canadian";
note = uni1564;
unicode = 5476;
},
{
glyphname = "tha-canadian";
lastChange = "2023-01-13 15:56:00 +0000";
layers = (
{
anchors = (
{
name = top_center_can;
pos = (278,690);
}
);
layerId = "2974A4AB-0281-4EAC-B7D6-9B88228DB59B";
shapes = (
{
closed = 1;
nodes = (
(427,0,l),
(427,57,l),
(326,57,ls),
(171,57,o),
(110,156,o),
(110,356,cs),
(110,544,o),
(166,661,o),
(281,661,cs),
(305,661,o),
(329,652,o),
(347,639,c),
(321,668,l),
(250,666,o),
(210,595,o),
(210,480,cs),
(210,363,o),
(253,296,o),
(330,296,cs),
(406,296,o),
(452,363,o),
(452,488,cs),
(452,630,o),
(372,702,o),
(271,702,cs),
(132,702,o),
(50,569,o),
(50,353,cs),
(50,124,o),
(133,0,o),
(325,0,cs)
);
},
{
closed = 1;
nodes = (
(280,341,o),
(255,387,o),
(255,490,cs),
(255,591,o),
(280,637,o),
(326,637,cs),
(370,637,o),
(402,586,o),
(402,489,cs),
(402,386,o),
(376,341,o),
(328,341,cs)
);
}
);
width = 507;
}
);
metricLeft = "=|theCarrier-canadian";
metricRight = "=|tho-canadian";
note = uni1566;
unicode = 5478;
},
{
glyphname = "th-canadian";
kernLeft = mwestleft;
kernRight = mwestright;
lastChange = "2023-01-13 15:55:56 +0000";
layers = (
{
layerId = "2974A4AB-0281-4EAC-B7D6-9B88228DB59B";
shapes = (
{
closed = 1;
nodes = (
(237,345,l),
(237,384,l),
(192,384,ls),
(118,384,o),
(88,432,o),
(88,522,cs),
(88,611,o),
(118,666,o),
(170,666,cs),
(183,666,o),
(193,662,o),
(201,657,c),
(184,676,l),
(149,673,o),
(129,640,o),
(129,586,cs),
(129,521,o),
(154,492,o),
(189,492,cs),
(226,492,o),
(249,523,o),
(249,586,cs),
(249,665,o),
(214,696,o),
(166,696,cs),
(95,696,o),
(49,632,o),
(49,519,cs),
(49,412,o),
(93,345,o),
(190,345,cs)
);
},
{
closed = 1;
nodes = (
(168,518,o),
(156,538,o),
(156,585,cs),
(156,631,o),
(168,655,o),
(188,655,cs),
(210,655,o),
(221,636,o),
(221,585,cs),
(221,537,o),
(211,518,o),
(189,518,cs)
);
}
);
width = 296;
}
);
metricLeft = "t-canadian";
note = uni156A;
unicode = 5482;
},
{
glyphname = "tthe-canadian";
lastChange = "2023-01-13 15:55:56 +0000";
layers = (
{
anchors = (
{
name = middle_right_can;
pos = (575,345);
},
{
name = top_center_can;
pos = (271,690);
},
{
name = top_left_can;
pos = (91,690);
},
{
name = top_right_can;
pos = (454,690);
}
);
layerId = "2974A4AB-0281-4EAC-B7D6-9B88228DB59B";
shapes = (
{
closed = 1;
nodes = (
(407,-13,o),
(485,71,o),
(485,237,cs),
(485,690,l),
(428,690,l),
(428,235,ls),
(428,103,o),
(369,45,o),
(271,45,cs),
(178,45,o),
(117,105,o),
(117,234,cs),
(117,690,l),
(59,690,l),
(59,234,ls),
(59,71,o),
(141,-13,o),
(272,-13,cs)
);
},
{
closed = 1;
nodes = (
(296,391,l),
(296,690,l),
(248,690,l),
(248,391,l)
);
}
);
width = 544;
}
);
metricLeft = "te-canadian";
metricRight = "te-canadian";
note = uni156B;
unicode = 5483;
},
{
glyphname = "tthi-canadian";
lastChange = "2023-01-13 15:55:56 +0000";
layers = (
{
layerId = "2974A4AB-0281-4EAC-B7D6-9B88228DB59B";
shapes = (
{
closed = 1;
nodes = (
(117,0,l),
(117,455,ls),
(117,586,o),
(175,644,o),
(272,644,cs),
(367,644,o),
(428,584,o),
(428,456,cs),
(428,0,l),
(485,0,l),
(485,456,ls),
(485,618,o),
(404,702,o),
(272,702,cs),
(138,702,o),
(59,619,o),
(59,453,cs),
(59,0,l)
);
},
{
closed = 1;
nodes = (
(296,0,l),
(296,298,l),
(248,298,l),
(248,0,l)
);
}
);
width = 544;
}
);
metricLeft = "te-canadian";
metricRight = "te-canadian";
note = uni156C;
unicode = 5484;
},
{
glyphname = "ttho-canadian";
lastChange = "2023-01-13 15:55:56 +0000";
layers = (
{
anchors = (
{
name = top_center_can;
pos = (242,690);
},
{
name = top_left_can;
pos = (93,690);
},
{
name = top_right_can;
pos = (393,690);
}
);
layerId = "2974A4AB-0281-4EAC-B7D6-9B88228DB59B";
shapes = (
{
closed = 1;
nodes = (
(143,0,ls),
(334,0,o),
(423,121,o),
(423,346,cs),
(423,571,o),
(334,690,o),
(139,690,cs),
(62,690,l),
(62,633,l),
(140,633,ls),
(298,633,o),
(361,538,o),
(361,346,cs),
(361,156,o),
(298,57,o),
(144,57,cs),
(62,57,l),
(62,0,l)
);
},
{
closed = 1;
nodes = (
(233,319,l),
(233,371,l),
(62,371,l),
(62,319,l)
);
}
);
width = 473;
}
);
metricRight = "to-canadian";
note = uni156D;
unicode = 5485;
},
{
glyphname = "ttha-canadian";
lastChange = "2023-01-13 15:56:00 +0000";
layers = (
{
anchors = (
{
name = top_center_can;
pos = (242,690);
},
{
name = top_left_can;
pos = (81,690);
},
{
name = top_right_can;
pos = (382,690);
}
);
layerId = "2974A4AB-0281-4EAC-B7D6-9B88228DB59B";
shapes = (
{
closed = 1;
nodes = (
(412,0,l),
(412,57,l),
(334,57,ls),
(176,57,o),
(112,153,o),
(112,344,cs),
(112,535,o),
(176,633,o),
(329,633,cs),
(412,633,l),
(412,690,l),
(329,690,ls),
(139,690,o),
(50,569,o),
(50,344,cs),
(50,119,o),
(139,0,o),
(335,0,cs)
);
},
{
closed = 1;
nodes = (
(412,319,l),
(412,371,l),
(241,371,l),
(241,319,l)
);
}
);
width = 474;
}
);
metricLeft = "=|to-canadian";
metricRight = "=|ttho-canadian";
note = uni156E;
unicode = 5486;
},
{
glyphname = "tth-canadian";
lastChange = "2023-01-13 15:56:00 +0000";
layers = (
{
layerId = "2974A4AB-0281-4EAC-B7D6-9B88228DB59B";
shapes = (
{
closed = 1;
nodes = (
(482,505,l),
(467,505,l),
(545,388,l),
(576,411,l),
(497,528,l),
(492,514,l),
(604,564,l),
(589,599,l),
(479,547,l),
(494,541,l),
(494,690,l),
(456,690,l),
(456,541,l),
(470,547,l),
(359,599,l),
(345,564,l),
(458,514,l),
(453,528,l),
(374,411,l),
(405,388,l)
);
},
{
closed = 1;
nodes = (
(178,505,l),
(163,505,l),
(245,388,l),
(275,411,l),
(192,528,l),
(188,514,l),
(300,564,l),
(286,599,l),
(175,547,l),
(189,541,l),
(189,690,l),
(152,690,l),
(152,541,l),
(167,547,l),
(55,599,l),
(42,564,l),
(154,514,l),
(149,528,l),
(66,411,l),
(97,388,l)
);
}
);
width = 646;
}
);
metricRight = "=|";
note = uni156F;
unicode = 5487;
},
{
glyphname = "tye-canadian";
lastChange = "2023-01-13 15:55:56 +0000";
layers = (
{
layerId = "2974A4AB-0281-4EAC-B7D6-9B88228DB59B";
shapes = (
{
closed = 1;
nodes = (
(407,-13,o),
(485,71,o),
(485,237,cs),
(485,690,l),
(428,690,l),
(428,239,ls),
(428,103,o),
(369,45,o),
(271,45,cs),
(178,45,o),
(117,105,o),
(117,238,cs),
(117,690,l),
(59,690,l),
(59,234,ls),
(59,71,o),
(141,-13,o),
(272,-13,cs)
);
},
{
closed = 1;
nodes = (
(327,412,o),
(359,447,o),
(359,520,cs),
(359,690,l),
(327,690,l),
(327,522,ls),
(327,467,o),
(308,445,o),
(271,445,cs),
(237,445,o),
(217,468,o),
(217,522,cs),
(217,690,l),
(185,690,l),
(185,520,ls),
(185,446,o),
(219,412,o),
(272,412,cs)
);
}
);
width = 544;
}
);
metricLeft = "te-canadian";
metricRight = "te-canadian";
note = uni1570;
unicode = 5488;
},
{
glyphname = "tyi-canadian";
lastChange = "2023-01-13 15:55:56 +0000";
layers = (
{
layerId = "2974A4AB-0281-4EAC-B7D6-9B88228DB59B";
shapes = (
{
closed = 1;
nodes = (
(117,0,l),
(117,451,ls),
(117,586,o),
(175,644,o),
(272,644,cs),
(367,644,o),
(428,584,o),
(428,452,cs),
(428,0,l),
(485,0,l),
(485,456,ls),
(485,618,o),
(404,702,o),
(272,702,cs),
(138,702,o),
(59,619,o),
(59,453,cs),
(59,0,l)
);
},
{
closed = 1;
nodes = (
(217,0,l),
(217,168,ls),
(217,223,o),
(238,244,o),
(272,244,cs),
(308,244,o),
(327,222,o),
(327,168,cs),
(327,0,l),
(359,0,l),
(359,170,ls),
(359,243,o),
(326,278,o),
(272,278,cs),
(217,278,o),
(185,242,o),
(185,170,cs),
(185,0,l)
);
}
);
width = 544;
}
);
metricLeft = "te-canadian";
metricRight = "te-canadian";
note = uni1571;
unicode = 5489;
},
{
glyphname = "tyo-canadian";
lastChange = "2023-01-13 15:56:00 +0000";
layers = (
{
layerId = "2974A4AB-0281-4EAC-B7D6-9B88228DB59B";
shapes = (
{
closed = 1;
nodes = (
(144,0,ls),
(332,0,o),
(423,121,o),
(423,346,cs),
(423,571,o),
(332,690,o),
(139,690,cs),
(63,690,l),
(63,634,l),
(135,634,ls),
(298,634,o),
(362,539,o),
(362,346,cs),
(362,155,o),
(298,56,o),
(139,56,cs),
(63,56,l),
(63,0,l)
);
},
{
closed = 1;
nodes = (
(109,210,ls),
(188,210,o),
(232,254,o),
(232,345,cs),
(232,436,o),
(187,480,o),
(109,480,cs),
(63,480,l),
(63,443,l),
(104,443,ls),
(165,443,o),
(193,413,o),
(193,345,cs),
(193,276,o),
(165,246,o),
(105,246,cs),
(63,246,l),
(63,210,l)
);
}
);
width = 473;
}
);
metricLeft = "nunavuth-canadian";
metricRight = "theCarrier-canadian";
note = uni1572;
unicode = 5490;
},
{
glyphname = "tya-canadian";
lastChange = "2023-01-13 15:56:00 +0000";
layers = (
{
layerId = "2974A4AB-0281-4EAC-B7D6-9B88228DB59B";
shapes = (
{
closed = 1;
nodes = (
(412,0,l),
(412,56,l),
(339,56,ls),
(177,56,o),
(112,151,o),
(112,344,cs),
(112,536,o),
(177,634,o),
(334,634,cs),
(412,634,l),
(412,690,l),
(329,690,ls),
(141,690,o),
(50,569,o),
(50,344,cs),
(50,119,o),
(141,0,o),
(335,0,cs)
);
},
{
closed = 1;
nodes = (
(412,210,l),
(412,246,l),
(370,246,ls),
(309,246,o),
(280,276,o),
(280,345,cs),
(280,413,o),
(309,443,o),
(369,443,cs),
(412,443,l),
(412,480,l),
(364,480,ls),
(285,480,o),
(242,436,o),
(242,345,cs),
(242,254,o),
(286,210,o),
(364,210,cs)
);
}
);
width = 475;
}
);
metricLeft = "=|theCarrier-canadian";
metricRight = "nunavuth-canadian";
note = uni1573;
unicode = 5491;
},
{
glyphname = "heNunavik-canadian";
lastChange = "2023-01-13 15:55:56 +0000";
layers = (
{
layerId = "2974A4AB-0281-4EAC-B7D6-9B88228DB59B";
shapes = (
{
closed = 1;
nodes = (
(384,0,l),
(561,191,l),
(523,231,l),
(350,43,l),
(391,42,l),
(391,449,ls),
(391,615,o),
(333,702,o),
(224,702,cs),
(115,702,o),
(53,613,o),
(53,451,cs),
(53,295,o),
(114,205,o),
(215,205,cs),
(279,205,o),
(325,249,o),
(336,313,c),
(329,341,l),
(329,0,l)
);
},
{
closed = 1;
nodes = (
(151,259,o),
(113,322,o),
(113,454,cs),
(113,586,o),
(151,648,o),
(222,648,cs),
(294,648,o),
(330,587,o),
(330,454,cs),
(330,322,o),
(293,259,o),
(222,259,cs)
);
}
);
width = 583;
}
);
metricLeft = "ke-canadian";
note = uni1574;
unicode = 5492;
},
{
glyphname = "hiNunavik-canadian";
lastChange = "2023-01-13 15:55:56 +0000";
layers = (
{
anchors = (
{
name = top_center_can;
pos = (360,690);
}
);
layerId = "2974A4AB-0281-4EAC-B7D6-9B88228DB59B";
shapes = (
{
closed = 1;
nodes = (
(253,0,l),
(253,341,l),
(247,313,l),
(258,249,o),
(304,205,o),
(367,205,cs),
(469,205,o),
(530,295,o),
(530,451,cs),
(530,613,o),
(469,702,o),
(359,702,cs),
(250,702,o),
(192,615,o),
(192,449,cs),
(192,42,l),
(234,43,l),
(61,231,l),
(22,191,l),
(199,0,l)
);
},
{
closed = 1;
nodes = (
(291,259,o),
(253,322,o),
(253,454,cs),
(253,587,o),
(290,648,o),
(361,648,cs),
(433,648,o),
(469,586,o),
(469,454,cs),
(469,322,o),
(432,259,o),
(361,259,cs)
);
}
);
width = 583;
}
);
metricLeft = "=|heNunavik-canadian";
metricRight = "=|ke-canadian";
note = uni1575;
unicode = 5493;
},
{
glyphname = "hoNunavik-canadian";
lastChange = "2023-01-13 15:55:56 +0000";
layers = (
{
anchors = (
{
name = top_center_can;
pos = (221,690);
},
{
name = top_right_can;
pos = (360,690);
}
);
layerId = "2974A4AB-0281-4EAC-B7D6-9B88228DB59B";
shapes = (
{
closed = 1;
nodes = (
(333,-13,o),
(391,74,o),
(391,241,cs),
(391,648,l),
(350,647,l),
(523,459,l),
(561,498,l),
(384,690,l),
(329,690,l),
(329,349,l),
(336,377,l),
(325,440,o),
(279,485,o),
(215,485,cs),
(114,485,o),
(53,395,o),
(53,239,cs),
(53,76,o),
(115,-13,o),
(224,-13,cs)
);
},
{
closed = 1;
nodes = (
(151,42,o),
(113,103,o),
(113,236,cs),
(113,368,o),
(151,431,o),
(222,431,cs),
(293,431,o),
(330,368,o),
(330,236,cs),
(330,102,o),
(294,42,o),
(222,42,cs)
);
}
);
width = 583;
}
);
metricLeft = "ke-canadian";
metricRight = "heNunavik-canadian";
note = uni1577;
unicode = 5495;
},
{
glyphname = "haNunavik-canadian";
lastChange = "2023-01-13 15:55:56 +0000";
layers = (
{
anchors = (
{
name = top_center_can;
pos = (362,690);
},
{
name = top_left_can;
pos = (223,690);
}
);
layerId = "2974A4AB-0281-4EAC-B7D6-9B88228DB59B";
shapes = (
{
closed = 1;
nodes = (
(469,-13,o),
(530,76,o),
(530,239,cs),
(530,395,o),
(469,485,o),
(367,485,cs),
(304,485,o),
(258,440,o),
(247,377,c),
(253,349,l),
(253,690,l),
(199,690,l),
(22,498,l),
(61,459,l),
(234,647,l),
(192,648,l),
(192,241,ls),
(192,74,o),
(250,-13,o),
(359,-13,cs)
);
},
{
closed = 1;
nodes = (
(290,42,o),
(253,102,o),
(253,236,cs),
(253,368,o),
(291,431,o),
(361,431,cs),
(432,431,o),
(469,368,o),
(469,236,cs),
(469,103,o),
(433,42,o),
(361,42,cs)
);
}
);
width = 583;
}
);
metricLeft = "=|heNunavik-canadian";
metricRight = "=|ke-canadian";
note = uni1579;
unicode = 5497;
},
{
glyphname = "hNunavik-canadian";
kernLeft = mwestleft;
kernRight = mwestright;
lastChange = "2023-01-13 15:56:00 +0000";
layers = (
{
layerId = "2974A4AB-0281-4EAC-B7D6-9B88228DB59B";
shapes = (
{
closed = 1;
nodes = (
(262,339,o),
(303,382,o),
(303,473,cs),
(303,557,o),
(267,601,o),
(218,601,cs),
(180,601,o),
(151,571,o),
(148,521,c),
(159,521,l),
(159,690,l),
(119,690,l),
(31,594,l),
(56,571,l),
(145,667,l),
(116,665,l),
(116,469,ls),
(116,384,o),
(154,339,o),
(210,339,cs)
);
},
{
closed = 1;
nodes = (
(177,375,o),
(156,401,o),
(156,470,cs),
(156,537,o),
(179,565,o),
(211,565,cs),
(242,565,o),
(264,538,o),
(264,471,cs),
(264,404,o),
(242,375,o),
(211,375,cs)
);
}
);
width = 343;
}
);
metricRight = "k-canadian";
note = uni157B;
unicode = 5499;
},
{
color = 4;
glyphname = "nunavuth-canadian";
lastChange = "2023-01-13 15:55:56 +0000";
layers = (
{
layerId = "2974A4AB-0281-4EAC-B7D6-9B88228DB59B";
shapes = (
{
closed = 1;
nodes = (
(124,330,l),
(395,330,l),
(395,0,l),
(456,0,l),
(456,690,l),
(395,690,l),
(395,386,l),
(124,386,l),
(124,690,l),
(63,690,l),
(63,0,l),
(124,0,l)
);
}
);
width = 519;
}
);
metricRight = "=|";
note = uni157C;
unicode = 5500;
},
{
glyphname = "tlhe-canadian";
lastChange = "2023-01-13 15:55:56 +0000";
layers = (
{
anchors = (
{
name = top_center_can;
pos = (226,690);
}
);
layerId = "2974A4AB-0281-4EAC-B7D6-9B88228DB59B";
shapes = (
{
closed = 1;
nodes = (
(141,0,l),
(242,265,l),
(191,244,l),
(199,242,o),
(208,242,o),
(217,242,cs),
(284,242,o),
(325,283,o),
(339,339,c),
(333,353,l),
(333,0,l),
(394,0,l),
(394,476,ls),
(394,615,o),
(335,702,o),
(226,702,cs),
(118,702,o),
(55,615,o),
(55,470,cs),
(55,350,o),
(102,272,o),
(174,253,c),
(76,0,l)
);
},
{
closed = 1;
nodes = (
(154,295,o),
(115,355,o),
(115,471,cs),
(115,588,o),
(153,648,o),
(224,648,cs),
(297,648,o),
(334,589,o),
(334,471,cs),
(334,354,o),
(295,295,o),
(224,295,cs)
);
}
);
width = 453;
}
);
metricRight = "te-canadian";
note = uni1586;
unicode = 5510;
},
{
glyphname = "tlhi-canadian";
lastChange = "2023-01-13 15:55:56 +0000";
layers = (
{
layerId = "2974A4AB-0281-4EAC-B7D6-9B88228DB59B";
shapes = (
{
closed = 1;
nodes = (
(120,0,l),
(120,353,l),
(115,339,l),
(129,283,o),
(169,242,o),
(237,242,c),
(213,265,l),
(313,0,l),
(377,0,l),
(280,253,l),
(352,272,o),
(399,350,o),
(399,470,cs),
(399,615,o),
(336,702,o),
(227,702,cs),
(119,702,o),
(59,615,o),
(59,476,cs),
(59,0,l)
);
},
{
closed = 1;
nodes = (
(159,295,o),
(120,354,o),
(120,471,cs),
(120,589,o),
(156,648,o),
(230,648,cs),
(301,648,o),
(338,588,o),
(338,471,cs),
(338,355,o),
(300,295,o),
(230,295,cs)
);
}
);
width = 454;
}
);
metricLeft = "te-canadian";
metricRight = "=|tlhe-canadian";
note = uni1587;
unicode = 5511;
},
{
glyphname = "tlho-canadian";
lastChange = "2023-01-13 15:55:56 +0000";
layers = (
{
anchors = (
{
name = top_center_can;
pos = (239,690);
}
);
layerId = "2974A4AB-0281-4EAC-B7D6-9B88228DB59B";
shapes = (
{
closed = 1;
nodes = (
(335,-13,o),
(394,74,o),
(394,213,cs),
(394,690,l),
(333,690,l),
(333,337,l),
(339,351,l),
(325,407,o),
(284,448,o),
(217,448,c),
(242,425,l),
(141,690,l),
(76,690,l),
(174,437,l),
(102,417,o),
(55,340,o),
(55,219,cs),
(55,74,o),
(118,-13,o),
(226,-13,cs)
);
},
{
closed = 1;
nodes = (
(153,42,o),
(115,101,o),
(115,218,cs),
(115,335,o),
(154,395,o),
(224,395,cs),
(295,395,o),
(334,336,o),
(334,218,cs),
(334,100,o),
(297,42,o),
(224,42,cs)
);
}
);
width = 453;
}
);
metricLeft = "tlhe-canadian";
metricRight = "te-canadian";
note = uni1588;
unicode = 5512;
},
{
glyphname = "tlha-canadian";
lastChange = "2023-01-13 15:55:56 +0000";
layers = (
{
layerId = "2974A4AB-0281-4EAC-B7D6-9B88228DB59B";
shapes = (
{
closed = 1;
nodes = (
(336,-13,o),
(399,74,o),
(399,219,cs),
(399,340,o),
(352,417,o),
(280,437,c),
(377,690,l),
(313,690,l),
(213,425,l),
(262,445,l),
(254,447,o),
(246,448,o),
(237,448,cs),
(169,448,o),
(129,407,o),
(115,351,c),
(120,337,l),
(120,690,l),
(59,690,l),
(59,213,ls),
(59,74,o),
(119,-13,o),
(227,-13,cs)
);
},
{
closed = 1;
nodes = (
(156,42,o),
(120,100,o),
(120,218,cs),
(120,336,o),
(159,395,o),
(230,395,cs),
(300,395,o),
(338,335,o),
(338,218,cs),
(338,101,o),
(301,42,o),
(230,42,cs)
);
}
);
width = 454;
}
);
metricLeft = "te-canadian";
note = uni1589;
unicode = 5513;
},
{
glyphname = "reWestCree-canadian";
lastChange = "2023-01-13 15:56:00 +0000";
layers = (
{
layerId = "2974A4AB-0281-4EAC-B7D6-9B88228DB59B";
shapes = (
{
closed = 1;
nodes = (
(380,0,l),
(556,191,l),
(518,231,l),
(345,43,l),
(386,42,l),
(386,471,ls),
(386,614,o),
(328,702,o),
(221,702,cs),
(112,702,o),
(52,618,o),
(52,479,cs),
(52,391,l),
(113,391,l),
(113,489,ls),
(113,588,o),
(148,647,o),
(220,647,cs),
(290,647,o),
(326,588,o),
(326,483,cs),
(326,0,l)
);
}
);
width = 578;
}
);
metricLeft = "ce-canadian";
metricRight = "heNunavik-canadian";
note = uni158A;
unicode = 5514;
},
{
glyphname = "riWestCree-canadian";
lastChange = "2023-01-13 15:56:00 +0000";
layers = (
{
layerId = "2974A4AB-0281-4EAC-B7D6-9B88228DB59B";
shapes = (
{
closed = 1;
nodes = (
(253,0,l),
(253,483,ls),
(253,588,o),
(289,647,o),
(358,647,cs),
(431,647,o),
(466,588,o),
(466,489,cs),
(466,391,l),
(526,391,l),
(526,479,ls),
(526,618,o),
(467,702,o),
(357,702,cs),
(249,702,o),
(192,614,o),
(192,471,cs),
(192,42,l),
(234,43,l),
(61,231,l),
(22,191,l),
(199,0,l)
);
}
);
width = 578;
}
);
metricLeft = "=|heNunavik-canadian";
metricRight = "=|ce-canadian";
note = uni158B;
unicode = 5515;
},
{
glyphname = "roWestCree-canadian";
lastChange = "2023-01-13 15:56:00 +0000";
layers = (
{
layerId = "2974A4AB-0281-4EAC-B7D6-9B88228DB59B";
shapes = (
{
closed = 1;
nodes = (
(328,-13,o),
(386,75,o),
(386,218,cs),
(386,648,l),
(345,647,l),
(518,459,l),
(556,498,l),
(380,690,l),
(326,690,l),
(326,207,ls),
(326,102,o),
(290,43,o),
(220,43,cs),
(148,43,o),
(113,102,o),
(113,201,cs),
(113,298,l),
(52,298,l),
(52,211,ls),
(52,71,o),
(112,-13,o),
(221,-13,cs)
);
}
);
width = 578;
}
);
metricLeft = "ce-canadian";
metricRight = "heNunavik-canadian";
note = uni158C;
unicode = 5516;
},
{
glyphname = "raWestCree-canadian";
lastChange = "2023-01-13 15:56:00 +0000";
layers = (
{
layerId = "2974A4AB-0281-4EAC-B7D6-9B88228DB59B";
shapes = (
{
closed = 1;
nodes = (
(467,-13,o),
(526,72,o),
(526,211,cs),
(526,298,l),
(466,298,l),
(466,201,ls),
(466,102,o),
(431,43,o),
(358,43,cs),
(290,43,o),
(253,102,o),
(253,207,cs),
(253,690,l),
(199,690,l),
(22,498,l),
(61,459,l),
(234,647,l),
(192,648,l),
(192,218,ls),
(192,75,o),
(250,-13,o),
(357,-13,cs)
);
}
);
width = 578;
}
);
metricLeft = "=|heNunavik-canadian";
metricRight = "=|ce-canadian";
note = uni158D;
unicode = 5517;
},
{
glyphname = "ng-canadian";
kernLeft = mwestleft;
kernRight = mwestright;
lastChange = "2023-01-13 15:56:00 +0000";
layers = (
{
layerId = "2974A4AB-0281-4EAC-B7D6-9B88228DB59B";
shapes = (
{
closed = 1;
nodes = (
(409,217,o),
(445,254,o),
(445,329,cs),
(445,363,l),
(404,363,l),
(404,324,ls),
(404,275,o),
(384,254,o),
(352,254,cs),
(318,254,o),
(299,276,o),
(299,330,cs),
(299,476,l),
(182,476,l),
(182,457,l),
(212,471,o),
(225,517,o),
(225,567,cs),
(225,651,o),
(188,696,o),
(132,696,cs),
(76,696,o),
(40,650,o),
(40,565,cs),
(40,481,o),
(75,434,o),
(138,434,cs),
(269,434,l),
(256,448,l),
(256,335,ls),
(256,257,o),
(292,217,o),
(351,217,cs)
);
},
{
closed = 1;
nodes = (
(99,469,o),
(79,499,o),
(79,565,cs),
(79,632,o),
(99,660,o),
(133,660,cs),
(166,660,o),
(185,631,o),
(185,565,cs),
(185,498,o),
(165,469,o),
(132,469,cs)
);
}
);
width = 477;
}
);
metricLeft = "n-canadian";
metricRight = "c-canadian";
note = uni1595;
unicode = 5525;
},
{
glyphname = "nng-canadian";
kernLeft = mwestleft;
kernRight = mwestright;
lastChange = "2023-01-13 15:56:00 +0000";
layers = (
{
layerId = "2974A4AB-0281-4EAC-B7D6-9B88228DB59B";
shapes = (
{
closed = 1;
nodes = (
(629,217,o),
(666,254,o),
(666,329,cs),
(666,363,l),
(624,363,l),
(624,324,ls),
(624,275,o),
(606,254,o),
(572,254,cs),
(538,254,o),
(520,276,o),
(520,330,cs),
(520,476,l),
(403,476,l),
(402,457,l),
(433,471,o),
(445,517,o),
(445,567,cs),
(445,652,o),
(410,696,o),
(352,696,cs),
(297,696,o),
(260,650,o),
(260,565,cs),
(260,517,o),
(273,470,o),
(303,456,c),
(302,476,l),
(183,476,l),
(182,457,l),
(212,471,o),
(225,517,o),
(225,567,cs),
(225,651,o),
(188,696,o),
(132,696,cs),
(76,696,o),
(40,650,o),
(40,565,cs),
(40,481,o),
(75,434,o),
(138,434,cs),
(476,434,l),
(476,335,ls),
(476,257,o),
(513,217,o),
(572,217,cs)
);
},
{
closed = 1;
nodes = (
(99,469,o),
(79,499,o),
(79,565,cs),
(79,632,o),
(99,660,o),
(133,660,cs),
(166,660,o),
(185,631,o),
(185,565,cs),
(185,498,o),
(165,469,o),
(132,469,cs)
);
},
{
closed = 1;
nodes = (
(321,469,o),
(299,499,o),
(299,565,cs),
(299,632,o),
(320,660,o),
(354,660,cs),
(387,660,o),
(406,631,o),
(406,565,cs),
(406,498,o),
(385,469,o),
(353,469,cs)
);
}
);
width = 698;
}
);
metricLeft = "n-canadian";
metricRight = "c-canadian";
note = uni1596;
unicode = 5526;
},
{
glyphname = "sheSayisi-canadian";
lastChange = "2023-01-13 15:55:56 +0000";
layers = (
{
anchors = (
{
name = middle_right_can;
pos = (485,345);
},
{
name = top_center_can;
pos = (226,690);
}
);
layerId = "2974A4AB-0281-4EAC-B7D6-9B88228DB59B";
shapes = (
{
closed = 1;
nodes = (
(396,0,l),
(396,452,ls),
(396,614,o),
(338,702,o),
(226,702,cs),
(116,702,o),
(53,613,o),
(53,443,cs),
(53,281,o),
(103,207,o),
(179,207,cs),
(242,207,o),
(287,252,o),
(283,411,c),
(253,411,l),
(256,283,o),
(225,259,o),
(189,259,cs),
(140,259,o),
(112,311,o),
(112,444,cs),
(112,587,o),
(151,648,o),
(225,648,cs),
(298,648,o),
(334,587,o),
(334,451,cs),
(334,0,l)
);
}
);
width = 455;
}
);
metricLeft = "ke-canadian";
metricRight = "te-canadian";
note = uni1597;
unicode = 5527;
},
{
glyphname = "shiSayisi-canadian";
lastChange = "2023-01-13 15:55:56 +0000";
layers = (
{
layerId = "2974A4AB-0281-4EAC-B7D6-9B88228DB59B";
shapes = (
{
closed = 1;
nodes = (
(121,0,l),
(121,451,ls),
(121,587,o),
(156,648,o),
(230,648,cs),
(304,648,o),
(343,586,o),
(343,444,cs),
(343,310,o),
(315,259,o),
(267,259,cs),
(230,259,o),
(199,283,o),
(202,411,c),
(172,411,l),
(168,252,o),
(213,207,o),
(277,207,cs),
(352,207,o),
(403,281,o),
(403,442,cs),
(403,613,o),
(339,702,o),
(229,702,cs),
(117,702,o),
(59,614,o),
(59,452,cs),
(59,0,l)
);
}
);
width = 456;
}
);
metricLeft = "te-canadian";
metricRight = "=|ke-canadian";
note = uni1598;
unicode = 5528;
},
{
glyphname = "shoSayisi-canadian";
lastChange = "2023-01-13 15:55:56 +0000";
layers = (
{
anchors = (
{
name = top_center_can;
pos = (224,690);
},
{
name = top_left_can;
pos = (82,690);
},
{
name = top_right_can;
pos = (366,690);
}
);
layerId = "2974A4AB-0281-4EAC-B7D6-9B88228DB59B";
shapes = (
{
closed = 1;
nodes = (
(339,-13,o),
(396,75,o),
(396,238,cs),
(396,690,l),
(334,690,l),
(334,239,ls),
(334,102,o),
(298,42,o),
(225,42,cs),
(151,42,o),
(112,103,o),
(112,245,cs),
(112,380,o),
(140,431,o),
(189,431,cs),
(225,431,o),
(256,407,o),
(253,279,c),
(283,279,l),
(287,438,o),
(242,483,o),
(179,483,cs),
(103,483,o),
(53,409,o),
(53,247,cs),
(53,76,o),
(116,-13,o),
(227,-13,cs)
);
}
);
width = 455;
}
);
metricLeft = "ke-canadian";
metricRight = "te-canadian";
note = uni1599;
unicode = 5529;
},
{
glyphname = "shaSayisi-canadian";
lastChange = "2023-01-13 15:55:56 +0000";
layers = (
{
layerId = "2974A4AB-0281-4EAC-B7D6-9B88228DB59B";
shapes = (
{
closed = 1;
nodes = (
(340,-13,o),
(403,76,o),
(403,246,cs),
(403,409,o),
(352,483,o),
(277,483,cs),
(213,483,o),
(168,438,o),
(172,279,c),
(202,279,l),
(199,407,o),
(230,431,o),
(267,431,cs),
(315,431,o),
(343,379,o),
(343,245,cs),
(343,102,o),
(304,42,o),
(230,42,cs),
(156,42,o),
(121,102,o),
(121,239,cs),
(121,690,l),
(59,690,l),
(59,238,ls),
(59,75,o),
(117,-13,o),
(229,-13,cs)
);
}
);
width = 456;
}
);
metricLeft = "te-canadian";
metricRight = "=|ke-canadian";
note = uni159A;
unicode = 5530;
},
{
glyphname = "theWoodScree-canadian";
lastChange = "2023-01-13 15:55:56 +0000";
layers = (
{
layerId = "2974A4AB-0281-4EAC-B7D6-9B88228DB59B";
shapes = (
{
closed = 1;
nodes = (
(503,-13,o),
(570,71,o),
(570,231,cs),
(570,390,o),
(504,472,o),
(389,472,cs),
(57,472,l),
(57,419,l),
(308,419,l),
(306,433,l),
(252,401,o),
(225,319,o),
(225,228,cs),
(225,71,o),
(289,-13,o),
(397,-13,cs)
);
},
{
closed = 1;
nodes = (
(323,42,o),
(285,102,o),
(285,231,cs),
(285,351,o),
(324,419,o),
(397,419,cs),
(470,419,o),
(509,359,o),
(509,231,cs),
(509,102,o),
(471,42,o),
(397,42,cs)
);
},
{
closed = 1;
nodes = (
(561,637,l),
(561,690,l),
(57,690,l),
(57,637,l)
);
}
);
width = 626;
}
);
note = uni159B;
unicode = 5531;
},
{
glyphname = "thiWoodScree-canadian";
kernRight = niright;
lastChange = "2023-01-13 15:55:56 +0000";
layers = (
{
layerId = "2974A4AB-0281-4EAC-B7D6-9B88228DB59B";
shapes = (
{
closed = 1;
nodes = (
(337,-13,o),
(402,71,o),
(402,228,cs),
(402,319,o),
(375,401,o),
(321,433,c),
(318,419,l),
(570,419,l),
(570,472,l),
(238,472,ls),
(123,472,o),
(57,391,o),
(57,231,cs),
(57,71,o),
(123,-13,o),
(229,-13,cs)
);
},
{
closed = 1;
nodes = (
(155,42,o),
(117,102,o),
(117,231,cs),
(117,359,o),
(156,419,o),
(229,419,cs),
(303,419,o),
(341,351,o),
(341,231,cs),
(341,102,o),
(303,42,o),
(229,42,cs)
);
},
{
closed = 1;
nodes = (
(570,637,l),
(570,690,l),
(65,690,l),
(65,637,l)
);
}
);
width = 626;
}
);
metricLeft = "theWoodScree-canadian";
metricRight = "theWoodScree-canadian";
note = uni159C;
unicode = 5532;
},
{
glyphname = "thoWoodScree-canadian";
lastChange = "2023-01-13 15:55:56 +0000";
layers = (
{
layerId = "2974A4AB-0281-4EAC-B7D6-9B88228DB59B";
shapes = (
{
closed = 1;
nodes = (
(389,0,ls),
(504,0,o),
(570,82,o),
(570,242,cs),
(570,402,o),
(503,485,o),
(397,485,cs),
(289,485,o),
(225,402,o),
(225,244,cs),
(225,154,o),
(252,71,o),
(306,40,c),
(308,53,l),
(57,53,l),
(57,0,l)
);
},
{
closed = 1;
nodes = (
(324,53,o),
(285,122,o),
(285,242,cs),
(285,370,o),
(323,431,o),
(397,431,cs),
(471,431,o),
(509,370,o),
(509,242,cs),
(509,113,o),
(470,53,o),
(397,53,cs)
);
},
{
closed = 1;
nodes = (
(561,637,l),
(561,690,l),
(57,690,l),
(57,637,l)
);
}
);
width = 626;
}
);
metricLeft = "theWoodScree-canadian";
metricRight = "theWoodScree-canadian";
note = uni159D;
unicode = 5533;
},
{
glyphname = "thaWoodScree-canadian";
lastChange = "2023-01-13 15:55:56 +0000";
layers = (
{
layerId = "2974A4AB-0281-4EAC-B7D6-9B88228DB59B";
shapes = (
{
closed = 1;
nodes = (
(570,0,l),
(570,53,l),
(318,53,l),
(320,40,l),
(375,71,o),
(402,154,o),
(402,244,cs),
(402,402,o),
(337,485,o),
(229,485,cs),
(123,485,o),
(57,402,o),
(57,242,cs),
(57,82,o),
(123,0,o),
(238,0,cs)
);
},
{
closed = 1;
nodes = (
(156,53,o),
(117,113,o),
(117,242,cs),
(117,370,o),
(155,431,o),
(229,431,cs),
(303,431,o),
(341,370,o),
(341,242,cs),
(341,122,o),
(303,53,o),
(229,53,cs)
);
},
{
closed = 1;
nodes = (
(570,637,l),
(570,690,l),
(65,690,l),
(65,637,l)
);
}
);
width = 626;
}
);
metricLeft = "theWoodScree-canadian";
metricRight = "theWoodScree-canadian";
note = uni159E;
unicode = 5534;
},
{
glyphname = "thWoodScree-canadian";
lastChange = "2023-01-13 15:56:00 +0000";
layers = (
{
layerId = "2974A4AB-0281-4EAC-B7D6-9B88228DB59B";
shapes = (
{
closed = 1;
nodes = (
(331,345,l),
(331,384,l),
(191,384,l),
(192,368,l),
(222,383,o),
(236,428,o),
(236,478,cs),
(236,561,o),
(199,607,o),
(143,607,cs),
(87,607,o),
(50,561,o),
(50,476,cs),
(50,392,o),
(86,345,o),
(149,345,cs)
);
},
{
closed = 1;
nodes = (
(110,380,o),
(90,411,o),
(90,476,cs),
(90,543,o),
(110,571,o),
(144,571,cs),
(177,571,o),
(196,542,o),
(196,476,cs),
(196,410,o),
(176,380,o),
(143,380,cs)
);
},
{
closed = 1;
nodes = (
(327,676,l),
(327,717,l),
(54,717,l),
(54,676,l)
);
}
);
width = 381;
}
);
metricRight = "=|";
note = uni159F;
unicode = 5535;
},
{
glyphname = "lhi-canadian";
kernRight = niright;
lastChange = "2023-01-13 15:55:56 +0000";
layers = (
{
anchors = (
{
name = top_center_can;
pos = (354,690);
},
{
name = top_right_can;
pos = (423,690);
}
);
layerId = "2974A4AB-0281-4EAC-B7D6-9B88228DB59B";
shapes = (
{
closed = 1;
nodes = (
(275,0,l),
(275,55,l),
(268,55,ls),
(166,55,o),
(114,116,o),
(114,234,cs),
(114,356,o),
(167,416,o),
(266,416,cs),
(566,416,l),
(566,467,l),
(433,722,l),
(384,694,l),
(517,439,l),
(519,472,l),
(264,472,ls),
(132,472,o),
(53,390,o),
(53,235,cs),
(53,81,o),
(130,0,o),
(263,0,cs)
);
}
);
width = 615;
}
);
metricLeft = "ke-canadian";
metricRight = "=|ne-canadian";
note = uni15A0;
unicode = 5536;
},
{
glyphname = "lho-canadian";
kernLeft = noleft;
lastChange = "2023-01-13 15:55:56 +0000";
layers = (
{
anchors = (
{
name = top_center_can;
pos = (300,490);
},
{
name = top_right_can;
pos = (384,490);
}
);
layerId = "2974A4AB-0281-4EAC-B7D6-9B88228DB59B";
shapes = (
{
closed = 1;
nodes = (
(231,-222,l),
(99,33,l),
(97,-1,l),
(352,-1,ls),
(483,-1,o),
(562,81,o),
(562,238,cs),
(562,390,o),
(485,471,o),
(353,471,cs),
(340,471,l),
(340,416,l),
(348,416,ls),
(449,416,o),
(501,355,o),
(501,238,cs),
(501,117,o),
(448,56,o),
(350,56,cs),
(49,56,l),
(49,5,l),
(183,-250,l)
);
}
);
width = 615;
}
);
metricLeft = "ne-canadian";
metricRight = "=|ke-canadian";
note = uni15A2;
unicode = 5538;
},
{
glyphname = "lha-canadian";
kernRight = naright;
lastChange = "2023-01-13 15:55:56 +0000";
layers = (
{
anchors = (
{
name = top_center_can;
pos = (317,490);
},
{
name = top_left_can;
pos = (231,490);
}
);
layerId = "2974A4AB-0281-4EAC-B7D6-9B88228DB59B";
shapes = (
{
closed = 1;
nodes = (
(566,6,l),
(566,56,l),
(266,56,ls),
(166,56,o),
(114,117,o),
(114,239,cs),
(114,356,o),
(166,417,o),
(268,417,cs),
(275,417,l),
(275,472,l),
(263,472,ls),
(130,472,o),
(53,391,o),
(53,239,cs),
(53,82,o),
(131,0,o),
(264,0,cs),
(519,0,l),
(517,34,l),
(384,-221,l),
(433,-249,l)
);
}
);
width = 615;
}
);
metricLeft = "ke-canadian";
metricRight = "=|ne-canadian";
note = uni15A4;
unicode = 5540;
},
{
glyphname = "lh-canadian";
kernLeft = mwestleft;
kernRight = mwestright;
lastChange = "2023-01-13 15:56:00 +0000";
layers = (
{
layerId = "2974A4AB-0281-4EAC-B7D6-9B88228DB59B";
shapes = (
{
closed = 1;
nodes = (
(333,349,l),
(333,387,l),
(202,387,ls),
(124,387,o),
(93,436,o),
(93,518,cs),
(93,600,o),
(124,647,o),
(191,647,cs),
(196,647,l),
(196,690,l),
(190,690,ls),
(94,690,o),
(49,619,o),
(49,518,cs),
(49,413,o),
(95,345,o),
(202,345,cs),
(303,345,l),
(298,369,l),
(225,228,l),
(261,208,l)
);
}
);
width = 382;
}
);
metricLeft = "t-canadian";
metricRight = "=|";
note = uni15A6;
unicode = 5542;
},
{
glyphname = "theThCree-canadian";
lastChange = "2023-01-13 15:55:56 +0000";
layers = (
{
anchors = (
{
name = top_left_can;
pos = (71,690);
},
{
name = top_right_can;
pos = (344,690);
}
);
layerId = "2974A4AB-0281-4EAC-B7D6-9B88228DB59B";
shapes = (
{
closed = 1;
nodes = (
(374,0,l),
(374,117,l),
(435,117,l),
(435,157,l),
(374,157,l),
(374,310,l),
(102,310,l),
(116,290,l),
(388,668,l),
(343,701,l),
(40,280,l),
(40,255,l),
(312,255,l),
(312,157,l),
(130,157,l),
(130,117,l),
(312,117,l),
(312,0,l)
);
}
);
width = 469;
}
);
metricLeft = "ye-canadian";
note = uni15A7;
unicode = 5543;
},
{
glyphname = "thiThCree-canadian";
kernRight = yiright;
lastChange = "2023-01-13 15:55:56 +0000";
layers = (
{
anchors = (
{
name = top_left_can;
pos = (126,690);
},
{
name = top_right_can;
pos = (399,690);
}
);
layerId = "2974A4AB-0281-4EAC-B7D6-9B88228DB59B";
shapes = (
{
closed = 1;
nodes = (
(156,0,l),
(156,117,l),
(339,117,l),
(339,157,l),
(156,157,l),
(156,255,l),
(428,255,l),
(428,280,l),
(126,701,l),
(80,668,l),
(356,285,l),
(366,310,l),
(95,310,l),
(95,157,l),
(34,157,l),
(34,117,l),
(95,117,l),
(95,0,l)
);
}
);
width = 468;
}
);
metricLeft = "=|theThCree-canadian";
metricRight = "=|ye-canadian";
note = uni15A8;
unicode = 5544;
},
{
glyphname = "thoThCree-canadian";
kernLeft = yoleft;
lastChange = "2023-01-13 15:55:56 +0000";
layers = (
{
anchors = (
{
name = top_left_can;
pos = (71,690);
},
{
name = top_right_can;
pos = (344,690);
}
);
layerId = "2974A4AB-0281-4EAC-B7D6-9B88228DB59B";
shapes = (
{
closed = 1;
nodes = (
(388,22,l),
(116,400,l),
(102,380,l),
(374,380,l),
(374,532,l),
(435,532,l),
(435,573,l),
(374,573,l),
(374,690,l),
(312,690,l),
(312,573,l),
(130,573,l),
(130,532,l),
(312,532,l),
(312,435,l),
(40,435,l),
(40,410,l),
(343,-12,l)
);
}
);
width = 469;
}
);
metricLeft = "ye-canadian";
metricRight = "theThCree-canadian";
note = uni15AA;
unicode = 5546;
},
{
glyphname = "thaThCree-canadian";
kernRight = yaright;
lastChange = "2023-01-13 15:55:56 +0000";
layers = (
{
anchors = (
{
name = top_left_can;
pos = (126,690);
},
{
name = top_right_can;
pos = (399,690);
}
);
layerId = "2974A4AB-0281-4EAC-B7D6-9B88228DB59B";
shapes = (
{
closed = 1;
nodes = (
(428,410,l),
(428,435,l),
(156,435,l),
(156,532,l),
(339,532,l),
(339,573,l),
(156,573,l),
(156,690,l),
(95,690,l),
(95,573,l),
(34,573,l),
(34,532,l),
(95,532,l),
(95,380,l),
(366,380,l),
(353,400,l),
(80,22,l),
(126,-12,l)
);
}
);
width = 468;
}
);
metricLeft = "=|theThCree-canadian";
metricRight = "=|ye-canadian";
note = uni15AC;
unicode = 5548;
},
{
glyphname = "thThCree-canadian";
kernLeft = mwestleft;
kernRight = mwestright;
lastChange = "2023-01-13 15:55:56 +0000";
layers = (
{
layerId = "2974A4AB-0281-4EAC-B7D6-9B88228DB59B";
shapes = (
{
closed = 1;
nodes = (
(244,546,l),
(244,562,l),
(112,562,l),
(112,612,l),
(199,612,l),
(199,639,l),
(112,639,l),
(112,690,l),
(68,690,l),
(68,639,l),
(37,639,l),
(37,612,l),
(68,612,l),
(68,523,l),
(208,523,l),
(199,551,l),
(63,359,l),
(97,337,l)
);
}
);
width = 271;
}
);
metricRight = "y-canadian";
note = uni15AE;
unicode = 5550;
},
{
glyphname = "bAivilik-canadian";
lastChange = "2023-01-13 15:55:56 +0000";
layers = (
{
layerId = "2974A4AB-0281-4EAC-B7D6-9B88228DB59B";
shapes = (
{
closed = 1;
nodes = (
(340,-13,o),
(401,77,o),
(401,238,cs),
(401,395,o),
(340,485,o),
(241,485,cs),
(174,485,o),
(128,440,o),
(118,377,c),
(124,355,l),
(124,690,l),
(63,690,l),
(63,0,l),
(119,0,l),
(119,114,l),
(115,99,l),
(128,32,o),
(173,-13,o),
(242,-13,cs)
);
},
{
closed = 1;
nodes = (
(160,42,o),
(124,104,o),
(124,236,cs),
(124,368,o),
(161,431,o),
(232,431,cs),
(302,431,o),
(340,368,o),
(340,236,cs),
(340,103,o),
(303,42,o),
(232,42,cs)
);
}
);
width = 454;
}
);
metricLeft = "nunavuth-canadian";
metricRight = "=|ke-canadian";
note = uni15AF;
unicode = 5551;
},
{
glyphname = "eBlackfoot-canadian";
lastChange = "2023-01-13 15:55:56 +0000";
layers = (
{
layerId = "2974A4AB-0281-4EAC-B7D6-9B88228DB59B";
shapes = (
{
closed = 1;
nodes = (
(124,0,l),
(124,411,l),
(149,373,o),
(185,353,o),
(230,353,cs),
(314,353,o),
(370,428,o),
(370,527,cs),
(370,628,o),
(314,702,o),
(230,702,cs),
(183,702,o),
(145,680,o),
(121,641,c),
(121,690,l),
(63,690,l),
(63,0,l)
);
}
);
width = 411;
}
);
metricLeft = "nunavuth-canadian";
note = uni15B0;
unicode = 5552;
},
{
glyphname = "iBlackfoot-canadian";
lastChange = "2023-01-13 15:55:56 +0000";
layers = (
{
layerId = "2974A4AB-0281-4EAC-B7D6-9B88228DB59B";
shapes = (
{
closed = 1;
nodes = (
(228,-13,o),
(266,10,o),
(290,48,c),
(290,0,l),
(349,0,l),
(349,690,l),
(287,690,l),
(287,279,l),
(263,317,o),
(225,337,o),
(181,337,cs),
(97,337,o),
(41,262,o),
(41,162,cs),
(41,62,o),
(97,-13,o),
(181,-13,cs)
);
}
);
width = 412;
}
);
metricLeft = "=|eBlackfoot-canadian";
metricRight = "nunavuth-canadian";
note = uni15B1;
unicode = 5553;
},
{
glyphname = "oBlackfoot-canadian";
lastChange = "2023-01-13 15:55:56 +0000";
layers = (
{
layerId = "2974A4AB-0281-4EAC-B7D6-9B88228DB59B";
shapes = (
{
closed = 1;
nodes = (
(314,-13,o),
(370,62,o),
(370,162,cs),
(370,262,o),
(314,337,o),
(230,337,cs),
(185,337,o),
(149,317,o),
(124,279,c),
(124,690,l),
(63,690,l),
(63,0,l),
(121,0,l),
(121,48,l),
(145,10,o),
(183,-13,o),
(230,-13,cs)
);
}
);
width = 411;
}
);
metricLeft = "nunavuth-canadian";
metricRight = "eBlackfoot-canadian";
note = uni15B2;
unicode = 5554;
},
{
glyphname = "aBlackfoot-canadian";
lastChange = "2023-01-13 15:55:56 +0000";
layers = (
{
layerId = "2974A4AB-0281-4EAC-B7D6-9B88228DB59B";
shapes = (
{
closed = 1;
nodes = (
(349,0,l),
(349,690,l),
(290,690,l),
(290,641,l),
(266,680,o),
(228,702,o),
(181,702,cs),
(97,702,o),
(41,628,o),
(41,527,cs),
(41,428,o),
(97,353,o),
(181,353,cs),
(225,353,o),
(263,373,o),
(287,411,c),
(287,0,l)
);
}
);
width = 412;
}
);
metricLeft = "=|eBlackfoot-canadian";
metricRight = "nunavuth-canadian";
note = uni15B3;
unicode = 5555;
},
{
glyphname = "weBlackfoot-canadian";
lastChange = "2023-01-13 15:55:56 +0000";
layers = (
{
layerId = "2974A4AB-0281-4EAC-B7D6-9B88228DB59B";
shapes = (
{
closed = 1;
nodes = (
(124,319,l),
(387,319,l),
(387,373,l),
(124,373,l),
(124,636,l),
(387,636,l),
(387,690,l),
(63,690,l),
(63,0,l),
(124,0,l)
);
}
);
width = 433;
}
);
metricLeft = "nunavuth-canadian";
note = uni15B4;
unicode = 5556;
},
{
glyphname = "wiBlackfoot-canadian";
lastChange = "2023-01-13 15:56:00 +0000";
layers = (
{
layerId = "2974A4AB-0281-4EAC-B7D6-9B88228DB59B";
shapes = (
{
closed = 1;
nodes = (
(372,0,l),
(372,690,l),
(310,690,l),
(310,371,l),
(46,371,l),
(46,317,l),
(310,317,l),
(310,54,l),
(46,54,l),
(46,0,l)
);
}
);
width = 435;
}
);
metricLeft = "=|weBlackfoot-canadian";
metricRight = "nunavuth-canadian";
note = uni15B5;
unicode = 5557;
},
{
glyphname = "woBlackfoot-canadian";
lastChange = "2023-01-13 15:55:56 +0000";
layers = (
{
layerId = "2974A4AB-0281-4EAC-B7D6-9B88228DB59B";
shapes = (
{
closed = 1;
nodes = (
(387,0,l),
(387,54,l),
(124,54,l),
(124,317,l),
(387,317,l),
(387,371,l),
(124,371,l),
(124,690,l),
(63,690,l),
(63,0,l)
);
}
);
width = 433;
}
);
metricLeft = "nunavuth-canadian";
metricRight = "weBlackfoot-canadian";
note = uni15B6;
unicode = 5558;
},
{
glyphname = "waBlackfoot-canadian";
lastChange = "2023-01-13 15:56:00 +0000";
layers = (
{
layerId = "2974A4AB-0281-4EAC-B7D6-9B88228DB59B";
shapes = (
{
closed = 1;
nodes = (
(372,0,l),
(372,690,l),
(46,690,l),
(46,636,l),
(310,636,l),
(310,373,l),
(46,373,l),
(46,319,l),
(310,319,l),
(310,0,l)
);
}
);
width = 435;
}
);
metricLeft = "=|weBlackfoot-canadian";
metricRight = "nunavuth-canadian";
note = uni15B7;
unicode = 5559;
},
{
glyphname = "neBlackfoot-canadian";
lastChange = "2023-01-13 15:55:56 +0000";
layers = (
{
layerId = "2974A4AB-0281-4EAC-B7D6-9B88228DB59B";
shapes = (
{
closed = 1;
nodes = (
(124,0,l),
(124,641,l),
(164,641,l),
(141,673,l),
(141,643,ls),
(141,490,o),
(198,407,o),
(307,407,cs),
(416,407,o),
(478,492,o),
(478,641,cs),
(478,690,l),
(418,690,l),
(418,635,ls),
(418,522,o),
(382,462,o),
(309,462,cs),
(237,462,o),
(201,521,o),
(201,634,cs),
(201,690,l),
(63,690,l),
(63,0,l)
);
}
);
width = 514;
}
);
metricLeft = "nunavuth-canadian";
note = uni15B8;
unicode = 5560;
},
{
glyphname = "niBlackfoot-canadian";
lastChange = "2023-01-13 15:55:56 +0000";
layers = (
{
layerId = "2974A4AB-0281-4EAC-B7D6-9B88228DB59B";
shapes = (
{
closed = 1;
nodes = (
(97,0,l),
(97,55,ls),
(97,168,o),
(132,228,o),
(205,228,cs),
(277,228,o),
(313,169,o),
(313,56,cs),
(313,0,l),
(452,0,l),
(452,690,l),
(390,690,l),
(390,48,l),
(350,48,l),
(373,16,l),
(373,46,ls),
(373,200,o),
(316,283,o),
(207,283,cs),
(98,283,o),
(36,198,o),
(36,48,cs),
(36,0,l)
);
}
);
width = 515;
}
);
metricLeft = "=|neBlackfoot-canadian";
metricRight = "nunavuth-canadian";
note = uni15B9;
unicode = 5561;
},
{
glyphname = "noBlackfoot-canadian";
lastChange = "2023-01-13 15:55:56 +0000";
layers = (
{
layerId = "2974A4AB-0281-4EAC-B7D6-9B88228DB59B";
shapes = (
{
closed = 1;
nodes = (
(201,0,l),
(201,56,ls),
(201,169,o),
(237,228,o),
(309,228,cs),
(382,228,o),
(418,168,o),
(418,55,cs),
(418,0,l),
(478,0,l),
(478,48,ls),
(478,198,o),
(416,283,o),
(307,283,cs),
(198,283,o),
(141,200,o),
(141,46,cs),
(141,16,l),
(164,48,l),
(124,48,l),
(124,690,l),
(63,690,l),
(63,0,l)
);
}
);
width = 514;
}
);
metricLeft = "nunavuth-canadian";
metricRight = "neBlackfoot-canadian";
note = uni15BA;
unicode = 5562;
},
{
glyphname = "naBlackfoot-canadian";
lastChange = "2023-01-13 15:55:56 +0000";
layers = (
{
layerId = "2974A4AB-0281-4EAC-B7D6-9B88228DB59B";
shapes = (
{
closed = 1;
nodes = (
(452,0,l),
(452,690,l),
(313,690,l),
(313,634,ls),
(313,521,o),
(277,462,o),
(205,462,cs),
(132,462,o),
(97,522,o),
(97,635,cs),
(97,690,l),
(36,690,l),
(36,641,ls),
(36,492,o),
(98,407,o),
(207,407,cs),
(316,407,o),
(373,490,o),
(373,643,cs),
(373,673,l),
(350,641,l),
(390,641,l),
(390,0,l)
);
}
);
width = 515;
}
);
metricLeft = "=|neBlackfoot-canadian";
metricRight = "nunavuth-canadian";
note = uni15BB;
unicode = 5563;
},
{
glyphname = "keBlackfoot-canadian";
lastChange = "2023-01-13 15:55:56 +0000";
layers = (
{
layerId = "2974A4AB-0281-4EAC-B7D6-9B88228DB59B";
shapes = (
{
closed = 1;
nodes = (
(124,0,l),
(124,618,l),
(100,618,l),
(243,258,l),
(274,258,l),
(448,690,l),
(387,690,l),
(243,327,l),
(264,327,l),
(120,690,l),
(63,690,l),
(63,0,l)
);
}
);
width = 474;
}
);
metricLeft = "nunavuth-canadian";
note = uni15BC;
unicode = 5564;
},
{
glyphname = "kiBlackfoot-canadian";
lastChange = "2023-01-13 15:55:56 +0000";
layers = (
{
layerId = "2974A4AB-0281-4EAC-B7D6-9B88228DB59B";
shapes = (
{
closed = 1;
nodes = (
(87,0,l),
(231,362,l),
(211,362,l),
(355,0,l),
(412,0,l),
(412,690,l),
(351,690,l),
(351,71,l),
(375,71,l),
(231,432,l),
(201,432,l),
(26,0,l)
);
}
);
width = 475;
}
);
metricLeft = "=|keBlackfoot-canadian";
metricRight = "nunavuth-canadian";
note = uni15BD;
unicode = 5565;
},
{
glyphname = "koBlackfoot-canadian";
lastChange = "2023-01-13 15:55:56 +0000";
layers = (
{
layerId = "2974A4AB-0281-4EAC-B7D6-9B88228DB59B";
shapes = (
{
closed = 1;
nodes = (
(120,0,l),
(264,362,l),
(243,362,l),
(387,0,l),
(448,0,l),
(274,432,l),
(243,432,l),
(100,71,l),
(124,71,l),
(124,690,l),
(63,690,l),
(63,0,l)
);
}
);
width = 474;
}
);
metricLeft = "nunavuth-canadian";
metricRight = "keBlackfoot-canadian";
note = uni15BE;
unicode = 5566;
},
{
glyphname = "kaBlackfoot-canadian";
lastChange = "2023-01-13 15:55:56 +0000";
layers = (
{
layerId = "2974A4AB-0281-4EAC-B7D6-9B88228DB59B";
shapes = (
{
closed = 1;
nodes = (
(412,0,l),
(412,690,l),
(355,690,l),
(211,327,l),
(231,327,l),
(87,690,l),
(26,690,l),
(201,258,l),
(231,258,l),
(375,618,l),
(351,618,l),
(351,0,l)
);
}
);
width = 475;
}
);
metricLeft = "=|keBlackfoot-canadian";
metricRight = "nunavuth-canadian";
note = uni15BF;
unicode = 5567;
},
{
color = 9;
glyphname = "heSayisi-canadian";
lastChange = "2023-01-13 15:56:00 +0000";
layers = (
{
anchors = (
{
name = top_right_can;
pos = (410,690);
}
);
layerId = "2974A4AB-0281-4EAC-B7D6-9B88228DB59B";
shapes = (
{
closed = 1;
nodes = (
(440,0,l),
(440,690,l),
(379,690,l),
(379,281,l),
(389,281,l),
(384,540,o),
(321,702,o),
(197,702,cs),
(99,702,o),
(44,620,o),
(44,457,cs),
(44,423,o),
(47,375,o),
(55,340,c),
(114,340,l),
(106,373,o),
(103,423,o),
(103,450,cs),
(103,591,o),
(142,647,o),
(210,647,cs),
(320,647,o),
(377,454,o),
(378,0,c)
);
}
);
width = 503;
}
);
metricRight = "nunavuth-canadian";
note = uni15C0;
unicode = 5568;
},
{
color = 9;
glyphname = "hiSayisi-canadian";
lastChange = "2023-01-13 15:55:56 +0000";
layers = (
{
layerId = "2974A4AB-0281-4EAC-B7D6-9B88228DB59B";
shapes = (
{
closed = 1;
nodes = (
(124,0,l),
(125,454,o),
(183,647,o),
(293,647,cs),
(360,647,o),
(398,591,o),
(398,450,cs),
(398,423,o),
(395,373,o),
(388,340,c),
(446,340,l),
(455,375,o),
(457,423,o),
(457,457,cs),
(457,620,o),
(403,702,o),
(305,702,cs),
(181,702,o),
(118,540,o),
(113,281,c),
(124,281,l),
(124,690,l),
(63,690,l),
(63,0,l)
);
}
);
width = 501;
}
);
metricLeft = "nunavuth-canadian";
metricRight = "=|heSayisi-canadian";
note = uni15C1;
unicode = 5569;
},
{
color = 9;
glyphname = "hoSayisi-canadian";
lastChange = "2023-01-13 15:56:00 +0000";
layers = (
{
anchors = (
{
name = top_center_can;
pos = (246,690);
},
{
name = top_left_can;
pos = (83,690);
},
{
name = top_right_can;
pos = (410,690);
}
);
layerId = "2974A4AB-0281-4EAC-B7D6-9B88228DB59B";
shapes = (
{
closed = 1;
nodes = (
(321,-13,o),
(384,150,o),
(389,409,c),
(379,409,l),
(379,0,l),
(440,0,l),
(440,690,l),
(378,690,l),
(377,236,o),
(320,43,o),
(210,43,cs),
(142,43,o),
(103,99,o),
(103,240,cs),
(103,267,o),
(106,317,o),
(114,350,c),
(55,350,l),
(47,315,o),
(44,267,o),
(44,233,cs),
(44,70,o),
(99,-13,o),
(197,-13,cs)
);
}
);
width = 503;
}
);
metricLeft = "heSayisi-canadian";
metricRight = "nunavuth-canadian";
note = uni15C2;
unicode = 5570;
},
{
color = 9;
glyphname = "haSayisi-canadian";
lastChange = "2023-01-13 15:55:56 +0000";
layers = (
{
layerId = "2974A4AB-0281-4EAC-B7D6-9B88228DB59B";
shapes = (
{
closed = 1;
nodes = (
(403,-13,o),
(457,70,o),
(457,233,cs),
(457,267,o),
(455,315,o),
(446,350,c),
(388,350,l),
(395,317,o),
(398,267,o),
(398,240,cs),
(398,99,o),
(360,43,o),
(293,43,cs),
(183,43,o),
(125,236,o),
(124,690,c),
(63,690,l),
(63,0,l),
(124,0,l),
(124,409,l),
(113,409,l),
(118,150,o),
(181,-13,o),
(305,-13,cs)
);
}
);
width = 501;
}
);
metricLeft = "nunavuth-canadian";
metricRight = "=|heSayisi-canadian";
note = uni15C3;
unicode = 5571;
},
{
color = 9;
glyphname = "ghuCarrier-canadian";
lastChange = "2023-01-13 15:55:56 +0000";
layers = (
{
layerId = "2974A4AB-0281-4EAC-B7D6-9B88228DB59B";
shapes = (
{
closed = 1;
nodes = (
(281,0,l),
(511,670,l),
(511,690,l),
(461,690,l),
(380,447,l),
(412,461,l),
(128,461,l),
(160,446,l),
(78,690,l),
(27,690,l),
(27,670,l),
(257,0,l)
);
},
{
closed = 1;
nodes = (
(398,413,l),
(375,424,l),
(260,79,l),
(279,79,l),
(164,425,l),
(142,413,l)
);
}
);
width = 538;
}
);
metricLeft = "e-canadian";
metricRight = "e-canadian";
note = uni15C4;
unicode = 5572;
},
{
color = 9;
glyphname = "ghoCarrier-canadian";
lastChange = "2023-01-13 15:55:56 +0000";
layers = (
{
layerId = "2974A4AB-0281-4EAC-B7D6-9B88228DB59B";
shapes = (
{
closed = 1;
nodes = (
(78,0,l),
(160,243,l),
(128,229,l),
(412,229,l),
(380,242,l),
(461,0,l),
(511,0,l),
(511,19,l),
(281,690,l),
(257,690,l),
(27,19,l),
(27,0,l)
);
},
{
closed = 1;
nodes = (
(279,611,l),
(260,611,l),
(375,266,l),
(398,276,l),
(142,276,l),
(164,265,l)
);
}
);
width = 538;
}
);
metricLeft = "e-canadian";
metricRight = "e-canadian";
note = uni15C5;
unicode = 5573;
},
{
color = 9;
glyphname = "gheCarrier-canadian";
lastChange = "2023-01-13 15:55:56 +0000";
layers = (
{
anchors = (
{
name = middle_center_can;
pos = (58,345);
}
);
layerId = "2974A4AB-0281-4EAC-B7D6-9B88228DB59B";
shapes = (
{
closed = 1;
nodes = (
(59,0,l),
(464,332,l),
(464,357,l),
(59,690,l),
(42,690,l),
(42,639,l),
(167,536,l),
(159,570,l),
(159,120,l),
(167,153,l),
(42,49,l),
(42,0,l)
);
},
{
closed = 1;
nodes = (
(204,540,l),
(191,523,l),
(426,328,l),
(426,361,l),
(191,168,l),
(204,151,l)
);
}
);
width = 495;
}
);
metricLeft = "po-canadian";
metricRight = "o-canadian";
note = uni15C6;
unicode = 5574;
},
{
color = 9;
glyphname = "ghaCarrier-canadian";
lastChange = "2023-01-13 15:55:56 +0000";
layers = (
{
layerId = "2974A4AB-0281-4EAC-B7D6-9B88228DB59B";
shapes = (
{
closed = 1;
nodes = (
(454,0,l),
(454,49,l),
(328,154,l),
(336,125,l),
(336,565,l),
(328,536,l),
(454,639,l),
(454,690,l),
(437,690,l),
(31,357,l),
(31,332,l),
(437,0,l)
);
},
{
closed = 1;
nodes = (
(304,167,l),
(69,361,l),
(69,327,l),
(304,522,l),
(292,529,l),
(292,163,l)
);
}
);
width = 496;
}
);
metricLeft = "=|o-canadian";
metricRight = "=|po-canadian";
note = uni15C9;
unicode = 5577;
},
{
color = 9;
glyphname = "ruCarrier-canadian";
lastChange = "2023-01-13 15:55:56 +0000";
layers = (
{
layerId = "2974A4AB-0281-4EAC-B7D6-9B88228DB59B";
shapes = (
{
closed = 1;
nodes = (
(281,0,l),
(511,670,l),
(511,690,l),
(461,690,l),
(429,594,l),
(448,608,l),
(91,608,l),
(112,594,l),
(79,690,l),
(27,690,l),
(27,670,l),
(257,0,l)
);
},
{
closed = 1;
nodes = (
(435,559,l),
(424,574,l),
(261,79,l),
(280,79,l),
(116,574,l),
(103,559,l)
);
}
);
width = 538;
}
);
metricLeft = "e-canadian";
metricRight = "e-canadian";
note = uni15CA;
unicode = 5578;
},
{
color = 9;
glyphname = "roCarrier-canadian";
lastChange = "2023-01-13 15:55:56 +0000";
layers = (
{
layerId = "2974A4AB-0281-4EAC-B7D6-9B88228DB59B";
shapes = (
{
closed = 1;
nodes = (
(79,0,l),
(111,96,l),
(91,82,l),
(449,82,l),
(428,96,l),
(461,0,l),
(511,0,l),
(511,19,l),
(281,690,l),
(257,690,l),
(27,19,l),
(27,0,l)
);
},
{
closed = 1;
nodes = (
(278,611,l),
(259,611,l),
(423,116,l),
(436,130,l),
(105,130,l),
(115,116,l)
);
}
);
width = 538;
}
);
metricLeft = "e-canadian";
metricRight = "e-canadian";
note = uni15CB;
unicode = 5579;
},
{
color = 9;
glyphname = "reCarrier-canadian";
lastChange = "2023-01-13 15:55:56 +0000";
layers = (
{
layerId = "2974A4AB-0281-4EAC-B7D6-9B88228DB59B";
shapes = (
{
closed = 1;
nodes = (
(59,0,l),
(464,332,l),
(464,357,l),
(59,690,l),
(42,690,l),
(42,639,l),
(103,587,l),
(93,611,l),
(93,79,l),
(103,101,l),
(42,51,l),
(42,0,l)
);
},
{
closed = 1;
nodes = (
(138,590,l),
(128,572,l),
(422,327,l),
(422,361,l),
(128,118,l),
(138,99,l)
);
}
);
width = 495;
}
);
metricLeft = "po-canadian";
metricRight = "o-canadian";
note = uni15CC;
unicode = 5580;
},
{
color = 9;
glyphname = "reeCarrier-canadian";
lastChange = "2023-01-13 15:55:56 +0000";
layers = (
{
layerId = "2974A4AB-0281-4EAC-B7D6-9B88228DB59B";
shapes = (
{
closed = 1;
nodes = (
(59,0,l),
(464,332,l),
(464,357,l),
(59,690,l),
(42,690,l),
(42,644,l),
(103,593,l),
(93,611,l),
(93,79,l),
(103,96,l),
(42,45,l),
(42,0,l)
);
},
{
closed = 1;
nodes = (
(133,590,l),
(125,580,l),
(431,327,l),
(431,361,l),
(124,109,l),
(133,99,l)
);
},
{
closed = 1;
nodes = (
(215,255,l),
(215,437,l),
(188,437,l),
(188,255,l)
);
}
);
width = 495;
}
);
metricLeft = "po-canadian";
metricRight = "o-canadian";
note = uni15CD;
unicode = 5581;
},
{
color = 9;
glyphname = "riCarrier-canadian";
lastChange = "2023-01-13 15:55:56 +0000";
layers = (
{
layerId = "2974A4AB-0281-4EAC-B7D6-9B88228DB59B";
shapes = (
{
closed = 1;
nodes = (
(59,0,l),
(464,332,l),
(464,357,l),
(59,690,l),
(42,690,l),
(42,644,l),
(103,593,l),
(93,611,l),
(93,79,l),
(103,96,l),
(42,45,l),
(42,0,l)
);
},
{
closed = 1;
nodes = (
(234,312,o),
(249,327,o),
(249,345,cs),
(249,363,o),
(234,378,o),
(215,378,cs),
(197,378,o),
(183,363,o),
(183,345,cs),
(183,327,o),
(197,312,o),
(215,312,cs)
);
},
{
closed = 1;
nodes = (
(133,590,l),
(125,580,l),
(431,327,l),
(431,361,l),
(124,108,l),
(133,99,l)
);
}
);
width = 495;
}
);
metricLeft = "po-canadian";
metricRight = "o-canadian";
note = uni15CE;
unicode = 5582;
},
{
color = 9;
glyphname = "raCarrier-canadian";
lastChange = "2023-01-13 15:55:56 +0000";
layers = (
{
layerId = "2974A4AB-0281-4EAC-B7D6-9B88228DB59B";
shapes = (
{
closed = 1;
nodes = (
(454,0,l),
(454,51,l),
(392,102,l),
(403,67,l),
(403,624,l),
(392,588,l),
(454,639,l),
(454,690,l),
(436,690,l),
(31,357,l),
(31,332,l),
(436,0,l)
);
},
{
closed = 1;
nodes = (
(367,572,l),
(357,591,l),
(357,99,l),
(367,118,l),
(72,361,l),
(72,328,l)
);
}
);
width = 496;
}
);
metricLeft = "=|o-canadian";
metricRight = "=|po-canadian";
note = uni15CF;
unicode = 5583;
},
{
color = 9;
glyphname = "wuCarrier-canadian";
lastChange = "2023-01-13 15:55:56 +0000";
layers = (
{
layerId = "2974A4AB-0281-4EAC-B7D6-9B88228DB59B";
shapes = (
{
closed = 1;
nodes = (
(283,0,l),
(516,670,l),
(516,690,l),
(468,690,l),
(282,120,l),
(298,120,l),
(298,690,l),
(250,690,l),
(250,120,l),
(265,120,l),
(77,690,l),
(27,690,l),
(27,670,l),
(260,0,l)
);
}
);
width = 543;
}
);
metricLeft = "e-canadian";
metricRight = "e-canadian";
note = uni15D0;
unicode = 5584;
},
{
color = 9;
glyphname = "woCarrier-canadian";
lastChange = "2023-01-13 15:55:56 +0000";
layers = (
{
layerId = "2974A4AB-0281-4EAC-B7D6-9B88228DB59B";
shapes = (
{
closed = 1;
nodes = (
(76,0,l),
(264,570,l),
(247,570,l),
(247,0,l),
(296,0,l),
(296,570,l),
(281,570,l),
(468,0,l),
(516,0,l),
(516,19,l),
(283,690,l),
(260,690,l),
(27,19,l),
(27,0,l)
);
}
);
width = 543;
}
);
metricLeft = "e-canadian";
metricRight = "e-canadian";
note = uni15D1;
unicode = 5585;
},
{
color = 9;
glyphname = "weCarrier-canadian";
lastChange = "2023-01-13 15:55:56 +0000";
layers = (
{
layerId = "2974A4AB-0281-4EAC-B7D6-9B88228DB59B";
shapes = (
{
closed = 1;
nodes = (
(77,0,l),
(483,332,l),
(483,357,l),
(78,690,l),
(61,690,l),
(61,639,l),
(405,356,l),
(405,370,l),
(64,370,l),
(64,321,l),
(405,321,l),
(405,333,l),
(61,49,l),
(61,0,l)
);
}
);
width = 514;
}
);
metricRight = "o-canadian";
note = uni15D2;
unicode = 5586;
},
{
color = 9;
glyphname = "weeCarrier-canadian";
lastChange = "2023-01-13 15:55:56 +0000";
layers = (
{
layerId = "2974A4AB-0281-4EAC-B7D6-9B88228DB59B";
shapes = (
{
closed = 1;
nodes = (
(77,0,l),
(483,332,l),
(483,357,l),
(78,690,l),
(61,690,l),
(61,642,l),
(420,350,l),
(425,366,l),
(167,366,l),
(167,441,l),
(130,441,l),
(130,366,l),
(61,366,l),
(61,325,l),
(130,325,l),
(130,249,l),
(167,249,l),
(167,325,l),
(426,325,l),
(421,340,l),
(61,47,l),
(61,0,l)
);
}
);
width = 514;
}
);
metricLeft = "weCarrier-canadian";
metricRight = "o-canadian";
note = uni15D3;
unicode = 5587;
},
{
color = 9;
glyphname = "wiCarrier-canadian";
lastChange = "2023-01-13 15:55:56 +0000";
layers = (
{
layerId = "2974A4AB-0281-4EAC-B7D6-9B88228DB59B";
shapes = (
{
closed = 1;
nodes = (
(77,0,l),
(483,332,l),
(483,357,l),
(78,690,l),
(61,690,l),
(61,642,l),
(420,350,l),
(425,366,l),
(218,366,l),
(211,385,o),
(191,400,o),
(169,400,cs),
(147,400,o),
(128,385,o),
(120,366,c),
(61,366,l),
(61,325,l),
(119,325,l),
(128,305,o),
(147,290,o),
(169,290,cs),
(191,290,o),
(211,305,o),
(218,325,c),
(426,325,l),
(421,340,l),
(61,47,l),
(61,0,l)
);
}
);
width = 514;
}
);
metricLeft = "weCarrier-canadian";
metricRight = "o-canadian";
note = uni15D4;
unicode = 5588;
},
{
color = 9;
glyphname = "waCarrier-canadian";
lastChange = "2023-01-13 15:55:56 +0000";
layers = (
{
layerId = "2974A4AB-0281-4EAC-B7D6-9B88228DB59B";
shapes = (
{
closed = 1;
nodes = (
(454,0,l),
(454,50,l),
(109,333,l),
(109,320,l),
(451,320,l),
(451,369,l),
(109,369,l),
(109,356,l),
(454,639,l),
(454,690,l),
(438,690,l),
(31,357,l),
(31,332,l),
(437,0,l)
);
}
);
width = 515;
}
);
metricLeft = "=|o-canadian";
metricRight = "=|weCarrier-canadian";
note = uni15D5;
unicode = 5589;
},
{
color = 9;
glyphname = "hwuCarrier-canadian";
lastChange = "2023-01-13 15:55:56 +0000";
layers = (
{
layerId = "2974A4AB-0281-4EAC-B7D6-9B88228DB59B";
shapes = (
{
closed = 1;
nodes = (
(283,0,l),
(516,670,l),
(516,690,l),
(470,690,l),
(393,458,l),
(412,467,l),
(293,467,l),
(293,690,l),
(252,690,l),
(252,467,l),
(129,467,l),
(151,459,l),
(74,690,l),
(27,690,l),
(27,670,l),
(260,0,l)
);
},
{
closed = 1;
nodes = (
(254,430,l),
(254,108,l),
(264,109,l),
(156,438,l),
(134,430,l)
);
},
{
closed = 1;
nodes = (
(291,430,l),
(408,430,l),
(388,438,l),
(281,112,l),
(291,111,l)
);
}
);
width = 543;
}
);
metricLeft = "e-canadian";
metricRight = "e-canadian";
note = uni15D6;
unicode = 5590;
},
{
color = 9;
glyphname = "hwoCarrier-canadian";
lastChange = "2023-01-13 15:55:56 +0000";
layers = (
{
layerId = "2974A4AB-0281-4EAC-B7D6-9B88228DB59B";
shapes = (
{
closed = 1;
nodes = (
(74,0,l),
(152,232,l),
(133,220,l),
(251,220,l),
(251,0,l),
(292,0,l),
(292,220,l),
(416,220,l),
(393,231,l),
(470,0,l),
(516,0,l),
(516,19,l),
(283,690,l),
(260,690,l),
(27,19,l),
(27,0,l)
);
},
{
closed = 1;
nodes = (
(263,578,l),
(253,580,l),
(253,263,l),
(146,263,l),
(156,252,l)
);
},
{
closed = 1;
nodes = (
(403,263,l),
(289,263,l),
(289,582,l),
(279,581,l),
(387,252,l)
);
}
);
width = 543;
}
);
metricLeft = "e-canadian";
metricRight = "e-canadian";
note = uni15D7;
unicode = 5591;
},
{
color = 9;
glyphname = "hweCarrier-canadian";
lastChange = "2023-01-13 15:55:56 +0000";
layers = (
{
layerId = "2974A4AB-0281-4EAC-B7D6-9B88228DB59B";
shapes = (
{
closed = 1;
nodes = (
(77,0,l),
(483,332,l),
(483,357,l),
(78,690,l),
(61,690,l),
(61,642,l),
(175,549,l),
(175,367,l),
(61,367,l),
(61,324,l),
(175,324,l),
(175,140,l),
(61,46,l),
(61,0,l)
);
},
{
closed = 1;
nodes = (
(211,327,l),
(410,327,l),
(211,163,l)
);
},
{
closed = 1;
nodes = (
(211,526,l),
(409,363,l),
(211,363,l)
);
}
);
width = 514;
}
);
metricLeft = "weCarrier-canadian";
metricRight = "o-canadian";
note = uni15D8;
unicode = 5592;
},
{
color = 9;
glyphname = "hweeCarrier-canadian";
lastChange = "2023-01-13 15:55:56 +0000";
layers = (
{
layerId = "2974A4AB-0281-4EAC-B7D6-9B88228DB59B";
shapes = (
{
closed = 1;
nodes = (
(77,0,l),
(483,332,l),
(483,357,l),
(78,690,l),
(61,690,l),
(61,644,l),
(188,542,l),
(188,364,l),
(146,364,l),
(146,441,l),
(114,441,l),
(114,364,l),
(61,364,l),
(61,326,l),
(114,326,l),
(114,249,l),
(146,249,l),
(146,326,l),
(188,326,l),
(188,148,l),
(61,43,l),
(61,0,l)
);
},
{
closed = 1;
nodes = (
(222,328,l),
(411,328,l),
(222,170,l)
);
},
{
closed = 1;
nodes = (
(222,520,l),
(410,362,l),
(222,362,l)
);
}
);
width = 514;
}
);
metricLeft = "weCarrier-canadian";
metricRight = "o-canadian";
note = uni15D9;
unicode = 5593;
},
{
color = 9;
glyphname = "hwiCarrier-canadian";
lastChange = "2023-01-13 15:55:56 +0000";
layers = (
{
layerId = "2974A4AB-0281-4EAC-B7D6-9B88228DB59B";
shapes = (
{
closed = 1;
nodes = (
(77,0,l),
(483,332,l),
(483,357,l),
(78,690,l),
(61,690,l),
(61,644,l),
(188,542,l),
(188,362,l),
(171,362,l),
(165,381,o),
(149,394,o),
(129,394,cs),
(109,394,o),
(93,381,o),
(87,362,c),
(61,362,l),
(61,328,l),
(86,328,l),
(92,310,o),
(109,296,o),
(128,296,cs),
(148,296,o),
(165,310,o),
(172,328,c),
(188,328,l),
(188,148,l),
(61,43,l),
(61,0,l)
);
},
{
closed = 1;
nodes = (
(222,328,l),
(411,328,l),
(222,170,l)
);
},
{
closed = 1;
nodes = (
(222,520,l),
(410,362,l),
(222,362,l)
);
}
);
width = 514;
}
);
metricLeft = "weCarrier-canadian";
metricRight = "o-canadian";
note = uni15DA;
unicode = 5594;
},
{
color = 9;
glyphname = "hwaCarrier-canadian";
lastChange = "2023-01-13 15:55:56 +0000";
layers = (
{
layerId = "2974A4AB-0281-4EAC-B7D6-9B88228DB59B";
shapes = (
{
closed = 1;
nodes = (
(454,0,l),
(454,47,l),
(340,140,l),
(340,323,l),
(454,323,l),
(454,366,l),
(340,366,l),
(340,549,l),
(454,643,l),
(454,690,l),
(438,690,l),
(31,357,l),
(31,332,l),
(437,0,l)
);
},
{
closed = 1;
nodes = (
(106,327,l),
(303,327,l),
(303,163,l)
);
},
{
closed = 1;
nodes = (
(303,526,l),
(303,363,l),
(105,363,l)
);
}
);
width = 515;
}
);
metricLeft = "=|o-canadian";
metricRight = "=|weCarrier-canadian";
note = uni15DB;
unicode = 5595;
},
{
color = 9;
glyphname = "thuCarrier-canadian";
lastChange = "2023-01-13 15:55:56 +0000";
layers = (
{
layerId = "2974A4AB-0281-4EAC-B7D6-9B88228DB59B";
shapes = (
{
closed = 1;
nodes = (
(407,-13,o),
(485,71,o),
(485,237,cs),
(485,690,l),
(59,690,l),
(59,234,ls),
(59,71,o),
(141,-13,o),
(272,-13,cs)
);
},
{
closed = 1;
nodes = (
(120,634,l),
(424,634,l),
(424,236,ls),
(424,103,o),
(369,45,o),
(271,45,cs),
(178,45,o),
(120,105,o),
(120,236,cs)
);
}
);
width = 544;
}
);
metricLeft = "te-canadian";
metricRight = "te-canadian";
note = uni15DC;
unicode = 5596;
},
{
color = 9;
glyphname = "thoCarrier-canadian";
lastChange = "2023-01-13 15:55:56 +0000";
layers = (
{
layerId = "2974A4AB-0281-4EAC-B7D6-9B88228DB59B";
shapes = (
{
closed = 1;
nodes = (
(485,0,l),
(485,456,ls),
(485,618,o),
(404,702,o),
(272,702,cs),
(138,702,o),
(59,619,o),
(59,453,cs),
(59,0,l)
);
},
{
closed = 1;
nodes = (
(120,454,ls),
(120,586,o),
(175,644,o),
(272,644,cs),
(367,644,o),
(424,584,o),
(424,454,cs),
(424,56,l),
(120,56,l)
);
}
);
width = 544;
}
);
metricLeft = "te-canadian";
metricRight = "te-canadian";
note = uni15DD;
unicode = 5597;
},
{
color = 9;
glyphname = "theCarrier-canadian";
lastChange = "2023-01-13 15:56:00 +0000";
layers = (
{
anchors = (
{
name = middle_center_can;
pos = (263,345);
}
);
layerId = "2974A4AB-0281-4EAC-B7D6-9B88228DB59B";
shapes = (
{
closed = 1;
nodes = (
(195,0,ls),
(386,0,o),
(474,121,o),
(474,346,cs),
(474,571,o),
(386,690,o),
(190,690,cs),
(63,690,l),
(63,0,l)
);
},
{
closed = 1;
nodes = (
(124,656,l),
(102,635,l),
(190,635,ls),
(351,635,o),
(413,539,o),
(413,346,cs),
(413,154,o),
(351,55,o),
(195,55,cs),
(102,55,l),
(124,34,l)
);
}
);
width = 524;
}
);
metricLeft = "nunavuth-canadian";
metricRight = "to-canadian";
note = uni15DE;
unicode = 5598;
},
{
color = 9;
glyphname = "thaCarrier-canadian";
lastChange = "2023-01-13 15:55:56 +0000";
layers = (
{
layerId = "2974A4AB-0281-4EAC-B7D6-9B88228DB59B";
shapes = (
{
closed = 1;
nodes = (
(463,0,l),
(463,690,l),
(329,690,ls),
(139,690,o),
(50,569,o),
(50,344,cs),
(50,119,o),
(139,0,o),
(335,0,cs)
);
},
{
closed = 1;
nodes = (
(112,536,o),
(174,635,o),
(329,635,cs),
(423,635,l),
(401,656,l),
(401,34,l),
(423,55,l),
(334,55,ls),
(174,55,o),
(112,151,o),
(112,344,cs)
);
}
);
width = 526;
}
);
metricLeft = "=|theCarrier-canadian";
metricRight = "nunavuth-canadian";
note = uni15E1;
unicode = 5601;
},
{
color = 9;
glyphname = "ttuCarrier-canadian";
lastChange = "2023-01-13 15:55:56 +0000";
layers = (
{
layerId = "2974A4AB-0281-4EAC-B7D6-9B88228DB59B";
shapes = (
{
closed = 1;
nodes = (
(407,-13,o),
(485,71,o),
(485,237,cs),
(485,690,l),
(463,690,l),
(265,502,l),
(281,502,l),
(83,690,l),
(59,690,l),
(59,234,ls),
(59,71,o),
(141,-13,o),
(272,-13,cs)
);
},
{
closed = 1;
nodes = (
(178,45,o),
(120,105,o),
(120,236,cs),
(120,642,l),
(68,639,l),
(265,452,l),
(280,452,l),
(477,639,l),
(424,642,l),
(424,236,ls),
(424,103,o),
(369,45,o),
(271,45,cs)
);
}
);
width = 544;
}
);
metricLeft = "te-canadian";
metricRight = "te-canadian";
note = uni15E2;
unicode = 5602;
},
{
color = 9;
glyphname = "ttoCarrier-canadian";
lastChange = "2023-01-13 15:55:56 +0000";
layers = (
{
layerId = "2974A4AB-0281-4EAC-B7D6-9B88228DB59B";
shapes = (
{
closed = 1;
nodes = (
(82,0,l),
(280,187,l),
(264,187,l),
(461,0,l),
(485,0,l),
(485,456,ls),
(485,618,o),
(404,702,o),
(272,702,cs),
(138,702,o),
(59,619,o),
(59,453,cs),
(59,0,l)
);
},
{
closed = 1;
nodes = (
(367,644,o),
(424,584,o),
(424,454,cs),
(424,47,l),
(477,50,l),
(280,238,l),
(265,238,l),
(67,50,l),
(120,47,l),
(120,454,ls),
(120,586,o),
(175,644,o),
(272,644,cs)
);
}
);
width = 544;
}
);
metricLeft = "te-canadian";
metricRight = "te-canadian";
note = uni15E3;
unicode = 5603;
},
{
color = 9;
glyphname = "tteCarrier-canadian";
lastChange = "2023-01-13 15:55:56 +0000";
layers = (
{
anchors = (
{
name = middle_center_can;
pos = (304,345);
}
);
layerId = "2974A4AB-0281-4EAC-B7D6-9B88228DB59B";
shapes = (
{
closed = 1;
nodes = (
(204,0,ls),
(395,0,o),
(484,121,o),
(484,346,cs),
(484,571,o),
(395,690,o),
(200,690,cs),
(59,690,l),
(59,670,l),
(153,333,l),
(153,356,l),
(59,19,l),
(59,0,l)
);
},
{
closed = 1;
nodes = (
(208,336,l),
(208,351,l),
(114,683,l),
(114,635,l),
(200,635,ls),
(360,635,o),
(422,539,o),
(422,346,cs),
(422,154,o),
(360,55,o),
(205,55,cs),
(114,55,l),
(114,4,l)
);
}
);
width = 534;
}
);
metricRight = "theCarrier-canadian";
note = uni15E4;
unicode = 5604;
},
{
color = 9;
glyphname = "ttaCarrier-canadian";
lastChange = "2023-01-13 15:55:56 +0000";
layers = (
{
layerId = "2974A4AB-0281-4EAC-B7D6-9B88228DB59B";
shapes = (
{
closed = 1;
nodes = (
(475,0,l),
(475,19,l),
(382,356,l),
(382,333,l),
(475,670,l),
(475,690,l),
(329,690,ls),
(139,690,o),
(50,569,o),
(50,344,cs),
(50,119,o),
(139,0,o),
(335,0,cs)
);
},
{
closed = 1;
nodes = (
(420,55,l),
(334,55,ls),
(174,55,o),
(112,151,o),
(112,344,cs),
(112,536,o),
(174,635,o),
(329,635,cs),
(420,635,l),
(420,686,l),
(327,354,l),
(327,339,l),
(420,7,l)
);
}
);
width = 534;
}
);
metricLeft = "=|theCarrier-canadian";
metricRight = "=|tteCarrier-canadian";
note = uni15E7;
unicode = 5607;
},
{
color = 9;
glyphname = "puCarrier-canadian";
lastChange = "2023-01-13 15:55:56 +0000";
layers = (
{
layerId = "2974A4AB-0281-4EAC-B7D6-9B88228DB59B";
shapes = (
{
closed = 1;
nodes = (
(407,-13,o),
(485,71,o),
(485,237,cs),
(485,690,l),
(424,690,l),
(424,517,l),
(121,517,l),
(121,690,l),
(59,690,l),
(59,234,ls),
(59,71,o),
(141,-13,o),
(272,-13,cs)
);
},
{
closed = 1;
nodes = (
(178,45,o),
(121,105,o),
(121,236,cs),
(121,462,l),
(424,462,l),
(424,236,ls),
(424,103,o),
(369,45,o),
(271,45,cs)
);
}
);
width = 544;
}
);
metricLeft = "te-canadian";
metricRight = "te-canadian";
note = uni15E8;
unicode = 5608;
},
{
color = 9;
glyphname = "poCarrier-canadian";
lastChange = "2023-01-13 15:55:56 +0000";
layers = (
{
layerId = "2974A4AB-0281-4EAC-B7D6-9B88228DB59B";
shapes = (
{
closed = 1;
nodes = (
(121,0,l),
(121,173,l),
(424,173,l),
(424,0,l),
(485,0,l),
(485,456,ls),
(485,618,o),
(404,702,o),
(272,702,cs),
(140,702,o),
(59,619,o),
(59,453,cs),
(59,0,l)
);
},
{
closed = 1;
nodes = (
(121,454,ls),
(121,586,o),
(175,644,o),
(272,644,cs),
(367,644,o),
(424,584,o),
(424,454,cs),
(424,228,l),
(121,228,l)
);
}
);
width = 544;
}
);
metricLeft = "te-canadian";
metricRight = "te-canadian";
note = uni15E9;
unicode = 5609;
},
{
color = 9;
glyphname = "peCarrier-canadian";
lastChange = "2023-01-13 15:55:56 +0000";
layers = (
{
anchors = (
{
name = middle_center_can;
pos = (295,345);
}
);
layerId = "2974A4AB-0281-4EAC-B7D6-9B88228DB59B";
shapes = (
{
closed = 1;
nodes = (
(201,0,ls),
(393,0,o),
(481,121,o),
(481,346,cs),
(481,571,o),
(393,690,o),
(197,690,cs),
(56,690,l),
(56,635,l),
(123,635,l),
(123,55,l),
(56,55,l),
(56,0,l)
);
},
{
closed = 1;
nodes = (
(184,656,l),
(155,635,l),
(198,635,ls),
(358,635,o),
(419,539,o),
(419,346,cs),
(419,154,o),
(358,55,o),
(202,55,cs),
(155,55,l),
(184,34,l)
);
}
);
width = 531;
}
);
metricRight = "theCarrier-canadian";
note = uni15EA;
unicode = 5610;
},
{
color = 9;
glyphname = "paCarrier-canadian";
lastChange = "2023-01-13 15:55:56 +0000";
layers = (
{
layerId = "2974A4AB-0281-4EAC-B7D6-9B88228DB59B";
shapes = (
{
closed = 1;
nodes = (
(475,0,l),
(475,55,l),
(409,55,l),
(409,635,l),
(475,635,l),
(475,690,l),
(334,690,ls),
(139,690,o),
(50,571,o),
(50,346,cs),
(50,121,o),
(139,0,o),
(330,0,cs)
);
},
{
closed = 1;
nodes = (
(377,55,l),
(329,55,ls),
(174,55,o),
(112,154,o),
(112,346,cs),
(112,539,o),
(174,635,o),
(334,635,cs),
(377,635,l),
(348,656,l),
(348,34,l)
);
}
);
width = 531;
}
);
metricLeft = "=|theCarrier-canadian";
metricRight = "=|peCarrier-canadian";
note = uni15ED;
unicode = 5613;
},
{
color = 6;
glyphname = "pCarrier-canadian";
lastChange = "2023-01-13 15:55:56 +0000";
layers = (
{
layerId = "2974A4AB-0281-4EAC-B7D6-9B88228DB59B";
shapes = (
{
closed = 1;
nodes = (
(293,183,l),
(293,225,l),
(193,225,l),
(193,527,l),
(150,527,l),
(150,225,l),
(50,225,l),
(50,183,l)
);
}
);
width = 343;
}
);
metricLeft = "shorthorizontalstrokeFinal-canadian";
metricRight = "shorthorizontalstrokeFinal-canadian";
note = uni15EE;
unicode = 5614;
},
{
color = 9;
glyphname = "guCarrier-canadian";
lastChange = "2023-01-13 15:55:56 +0000";
layers = (
{
anchors = (
{
name = top_center_can;
pos = (323,690);
}
);
layerId = "2974A4AB-0281-4EAC-B7D6-9B88228DB59B";
shapes = (
{
closed = 1;
nodes = (
(270,-13,o),
(317,29,o),
(335,113,c),
(310,113,l),
(331,28,o),
(379,-13,o),
(444,-13,cs),
(532,-13,o),
(588,52,o),
(588,176,cs),
(588,690,l),
(529,690,l),
(529,179,ls),
(529,86,o),
(498,44,o),
(441,44,cs),
(384,44,o),
(352,88,o),
(352,179,cs),
(352,690,l),
(295,690,l),
(295,179,ls),
(295,86,o),
(262,44,o),
(205,44,cs),
(147,44,o),
(115,86,o),
(115,179,cs),
(115,690,l),
(56,690,l),
(56,178,ls),
(56,51,o),
(114,-13,o),
(202,-13,cs)
);
}
);
width = 644;
}
);
metricRight = "=|";
note = uni15EF;
unicode = 5615;
},
{
color = 9;
glyphname = "goCarrier-canadian";
lastChange = "2023-01-13 15:55:56 +0000";
layers = (
{
layerId = "2974A4AB-0281-4EAC-B7D6-9B88228DB59B";
shapes = (
{
closed = 1;
nodes = (
(115,0,l),
(115,511,ls),
(115,603,o),
(147,645,o),
(204,645,cs),
(260,645,o),
(293,602,o),
(293,511,cs),
(293,0,l),
(350,0,l),
(350,511,ls),
(350,604,o),
(383,645,o),
(440,645,cs),
(498,645,o),
(529,604,o),
(529,511,cs),
(529,0,l),
(588,0,l),
(588,512,ls),
(588,639,o),
(530,702,o),
(442,702,cs),
(375,702,o),
(327,661,o),
(309,577,c),
(334,577,l),
(313,662,o),
(266,702,o),
(200,702,cs),
(113,702,o),
(56,638,o),
(56,514,cs),
(56,0,l)
);
}
);
width = 644;
}
);
metricLeft = "guCarrier-canadian";
metricRight = "guCarrier-canadian";
note = uni15F0;
unicode = 5616;
},
{
color = 9;
glyphname = "geCarrier-canadian";
lastChange = "2023-01-13 15:55:56 +0000";
layers = (
{
anchors = (
{
name = top_center_can;
pos = (269,690);
}
);
layerId = "2974A4AB-0281-4EAC-B7D6-9B88228DB59B";
shapes = (
{
closed = 1;
nodes = (
(288,0,ls),
(402,0,o),
(474,63,o),
(474,181,cs),
(474,265,o),
(431,329,o),
(360,354,c),
(360,336,l),
(432,358,o),
(474,420,o),
(474,507,cs),
(474,626,o),
(401,690,o),
(288,690,cs),
(63,690,l),
(63,638,l),
(278,638,ls),
(361,638,o),
(413,596,o),
(413,505,cs),
(413,416,o),
(361,371,o),
(279,371,cs),
(63,371,l),
(63,319,l),
(280,319,ls),
(360,319,o),
(413,273,o),
(413,184,cs),
(413,93,o),
(360,52,o),
(278,52,cs),
(63,52,l),
(63,0,l)
);
}
);
width = 534;
}
);
metricLeft = "nunavuth-canadian";
note = uni15F1;
unicode = 5617;
},
{
color = 9;
glyphname = "geeCarrier-canadian";
lastChange = "2023-01-13 15:55:56 +0000";
layers = (
{
layerId = "2974A4AB-0281-4EAC-B7D6-9B88228DB59B";
shapes = (
{
closed = 1;
nodes = (
(288,0,ls),
(402,0,o),
(474,63,o),
(474,181,cs),
(474,265,o),
(431,329,o),
(360,354,c),
(360,336,l),
(432,358,o),
(474,420,o),
(474,507,cs),
(474,626,o),
(401,690,o),
(288,690,cs),
(63,690,l),
(63,638,l),
(278,638,ls),
(361,638,o),
(413,596,o),
(413,505,cs),
(413,416,o),
(361,371,o),
(279,371,cs),
(257,371,l),
(257,452,l),
(220,452,l),
(220,371,l),
(63,371,l),
(63,320,l),
(220,320,l),
(220,240,l),
(257,240,l),
(257,320,l),
(280,320,ls),
(360,320,o),
(413,273,o),
(413,184,cs),
(413,93,o),
(360,52,o),
(278,52,cs),
(63,52,l),
(63,0,l)
);
}
);
width = 534;
}
);
metricLeft = "geCarrier-canadian";
metricRight = "geCarrier-canadian";
note = uni15F2;
unicode = 5618;
},
{
color = 9;
glyphname = "giCarrier-canadian";
lastChange = "2023-01-13 15:55:56 +0000";
layers = (
{
layerId = "2974A4AB-0281-4EAC-B7D6-9B88228DB59B";
shapes = (
{
closed = 1;
nodes = (
(288,0,ls),
(402,0,o),
(474,63,o),
(474,181,cs),
(474,265,o),
(431,329,o),
(360,354,c),
(360,336,l),
(432,358,o),
(474,420,o),
(474,507,cs),
(474,626,o),
(401,690,o),
(288,690,cs),
(63,690,l),
(63,638,l),
(278,638,ls),
(361,638,o),
(413,596,o),
(413,505,cs),
(413,416,o),
(361,371,o),
(285,371,cs),
(271,371,l),
(295,363,l),
(286,387,o),
(265,404,o),
(240,404,cs),
(217,404,o),
(198,390,o),
(189,371,c),
(63,371,l),
(63,320,l),
(189,320,l),
(197,299,o),
(217,286,o),
(240,286,cs),
(265,286,o),
(286,302,o),
(295,327,c),
(271,320,l),
(285,320,ls),
(360,320,o),
(413,273,o),
(413,184,cs),
(413,93,o),
(360,52,o),
(278,52,cs),
(63,52,l),
(63,0,l)
);
}
);
width = 534;
}
);
metricLeft = "geCarrier-canadian";
metricRight = "geCarrier-canadian";
note = uni15F3;
unicode = 5619;
},
{
color = 9;
glyphname = "gaCarrier-canadian";
lastChange = "2023-01-13 15:55:56 +0000";
layers = (
{
anchors = (
{
name = top_center_can;
pos = (279,690);
}
);
layerId = "2974A4AB-0281-4EAC-B7D6-9B88228DB59B";
shapes = (
{
closed = 1;
nodes = (
(472,0,l),
(472,52,l),
(256,52,ls),
(174,52,o),
(122,93,o),
(122,184,cs),
(122,273,o),
(175,319,o),
(254,319,cs),
(472,319,l),
(472,371,l),
(255,371,ls),
(173,371,o),
(122,416,o),
(122,505,cs),
(122,596,o),
(174,638,o),
(256,638,cs),
(472,638,l),
(472,690,l),
(246,690,ls),
(133,690,o),
(60,626,o),
(60,507,cs),
(60,420,o),
(102,358,o),
(175,336,c),
(175,354,l),
(103,329,o),
(60,265,o),
(60,181,cs),
(60,63,o),
(132,0,o),
(246,0,cs)
);
}
);
width = 535;
}
);
metricLeft = "=|geCarrier-canadian";
metricRight = "=|geCarrier-canadian";
note = uni15F4;
unicode = 5620;
},
{
color = 9;
glyphname = "khuCarrier-canadian";
lastChange = "2023-01-13 15:55:56 +0000";
layers = (
{
layerId = "2974A4AB-0281-4EAC-B7D6-9B88228DB59B";
shapes = (
{
closed = 1;
nodes = (
(270,-13,o),
(318,29,o),
(336,113,c),
(311,113,l),
(332,28,o),
(380,-13,o),
(445,-13,cs),
(532,-13,o),
(588,52,o),
(588,176,cs),
(588,690,l),
(56,690,l),
(56,178,ls),
(56,51,o),
(114,-13,o),
(202,-13,cs)
);
},
{
closed = 1;
nodes = (
(147,44,o),
(116,86,o),
(116,179,cs),
(116,635,l),
(296,635,l),
(296,179,ls),
(296,86,o),
(263,44,o),
(206,44,cs)
);
},
{
closed = 1;
nodes = (
(384,44,o),
(352,88,o),
(352,179,cs),
(352,635,l),
(529,635,l),
(529,179,ls),
(529,86,o),
(498,44,o),
(441,44,cs)
);
}
);
width = 644;
}
);
metricLeft = "guCarrier-canadian";
metricRight = "guCarrier-canadian";
note = uni15F5;
unicode = 5621;
},
{
color = 9;
glyphname = "khoCarrier-canadian";
lastChange = "2023-01-13 15:55:56 +0000";
layers = (
{
layerId = "2974A4AB-0281-4EAC-B7D6-9B88228DB59B";
shapes = (
{
closed = 1;
nodes = (
(588,0,l),
(588,512,ls),
(588,639,o),
(530,702,o),
(442,702,cs),
(374,702,o),
(327,661,o),
(308,577,c),
(333,577,l),
(312,662,o),
(265,702,o),
(200,702,cs),
(112,702,o),
(56,638,o),
(56,514,cs),
(56,0,l)
);
},
{
closed = 1;
nodes = (
(115,511,ls),
(115,603,o),
(146,645,o),
(203,645,cs),
(260,645,o),
(293,602,o),
(293,511,cs),
(293,55,l),
(115,55,l)
);
},
{
closed = 1;
nodes = (
(349,511,ls),
(349,604,o),
(382,645,o),
(439,645,cs),
(497,645,o),
(528,604,o),
(528,511,cs),
(528,55,l),
(349,55,l)
);
}
);
width = 644;
}
);
metricLeft = "guCarrier-canadian";
metricRight = "guCarrier-canadian";
note = uni15F6;
unicode = 5622;
},
{
color = 9;
glyphname = "kheCarrier-canadian";
lastChange = "2023-01-13 15:55:56 +0000";
layers = (
{
layerId = "2974A4AB-0281-4EAC-B7D6-9B88228DB59B";
shapes = (
{
closed = 1;
nodes = (
(290,0,ls),
(404,0,o),
(476,63,o),
(476,181,cs),
(476,265,o),
(433,329,o),
(362,354,c),
(362,336,l),
(434,358,o),
(476,420,o),
(476,507,cs),
(476,626,o),
(403,690,o),
(290,690,cs),
(63,690,l),
(63,0,l)
);
},
{
closed = 1;
nodes = (
(124,320,l),
(282,320,ls),
(361,320,o),
(415,273,o),
(415,184,cs),
(415,93,o),
(362,52,o),
(280,52,cs),
(124,52,l)
);
},
{
closed = 1;
nodes = (
(124,638,l),
(280,638,ls),
(363,638,o),
(415,596,o),
(415,505,cs),
(415,416,o),
(363,371,o),
(281,371,cs),
(124,371,l)
);
}
);
width = 536;
}
);
metricLeft = "nunavuth-canadian";
metricRight = "geCarrier-canadian";
note = uni15F7;
unicode = 5623;
},
{
color = 9;
glyphname = "kheeCarrier-canadian";
lastChange = "2023-01-13 15:55:56 +0000";
layers = (
{
layerId = "2974A4AB-0281-4EAC-B7D6-9B88228DB59B";
shapes = (
{
closed = 1;
nodes = (
(290,0,ls),
(404,0,o),
(476,63,o),
(476,181,cs),
(476,269,o),
(428,335,o),
(349,354,c),
(349,335,l),
(429,352,o),
(476,415,o),
(476,507,cs),
(476,626,o),
(403,690,o),
(290,690,cs),
(63,690,l),
(63,0,l)
);
},
{
closed = 1;
nodes = (
(124,320,l),
(236,320,l),
(236,231,l),
(272,231,l),
(272,333,l),
(250,320,l),
(287,320,ls),
(364,320,o),
(415,273,o),
(415,184,cs),
(415,93,o),
(362,52,o),
(280,52,cs),
(124,52,l)
);
},
{
closed = 1;
nodes = (
(272,461,l),
(236,461,l),
(236,371,l),
(124,371,l),
(124,638,l),
(280,638,ls),
(363,638,o),
(415,596,o),
(415,505,cs),
(415,416,o),
(366,371,o),
(287,371,cs),
(250,371,l),
(272,356,l)
);
}
);
width = 536;
}
);
metricLeft = "nunavuth-canadian";
metricRight = "geCarrier-canadian";
note = uni15F8;
unicode = 5624;
},
{
color = 9;
glyphname = "khiCarrier-canadian";
lastChange = "2023-01-13 15:55:56 +0000";
layers = (
{
layerId = "2974A4AB-0281-4EAC-B7D6-9B88228DB59B";
shapes = (
{
closed = 1;
nodes = (
(290,0,ls),
(404,0,o),
(476,63,o),
(476,181,cs),
(476,265,o),
(433,329,o),
(362,353,c),
(362,336,l),
(434,357,o),
(476,420,o),
(476,507,cs),
(476,626,o),
(403,690,o),
(290,690,cs),
(63,690,l),
(63,0,l)
);
},
{
closed = 1;
nodes = (
(124,322,l),
(199,322,l),
(208,300,o),
(228,286,o),
(251,286,cs),
(281,286,o),
(304,310,o),
(307,340,c),
(274,322,l),
(290,322,ls),
(364,322,o),
(415,275,o),
(415,185,cs),
(415,92,o),
(362,52,o),
(280,52,cs),
(124,52,l)
);
},
{
closed = 1;
nodes = (
(280,638,ls),
(363,638,o),
(415,597,o),
(415,503,cs),
(415,414,o),
(366,368,o),
(289,368,cs),
(274,368,l),
(306,350,l),
(304,380,o),
(281,404,o),
(251,404,cs),
(221,404,o),
(197,380,o),
(194,350,c),
(212,368,l),
(124,368,l),
(124,638,l)
);
}
);
width = 536;
}
);
metricLeft = "nunavuth-canadian";
metricRight = "geCarrier-canadian";
note = uni15F9;
unicode = 5625;
},
{
color = 9;
glyphname = "khaCarrier-canadian";
lastChange = "2023-01-13 15:55:56 +0000";
layers = (
{
layerId = "2974A4AB-0281-4EAC-B7D6-9B88228DB59B";
shapes = (
{
closed = 1;
nodes = (
(474,0,l),
(474,690,l),
(246,690,ls),
(133,690,o),
(60,626,o),
(60,507,cs),
(60,420,o),
(102,357,o),
(175,336,c),
(174,353,l),
(103,329,o),
(60,265,o),
(60,181,cs),
(60,63,o),
(132,0,o),
(246,0,cs)
);
},
{
closed = 1;
nodes = (
(174,52,o),
(122,93,o),
(122,184,cs),
(122,273,o),
(175,320,o),
(254,320,cs),
(412,320,l),
(412,52,l),
(256,52,ls)
);
},
{
closed = 1;
nodes = (
(173,371,o),
(122,416,o),
(122,505,cs),
(122,596,o),
(174,638,o),
(256,638,cs),
(412,638,l),
(412,371,l),
(255,371,ls)
);
}
);
width = 537;
}
);
metricLeft = "=|geCarrier-canadian";
metricRight = "nunavuth-canadian";
note = uni15FA;
unicode = 5626;
},
{
color = 9;
glyphname = "kkuCarrier-canadian";
lastChange = "2023-01-13 15:55:56 +0000";
layers = (
{
layerId = "2974A4AB-0281-4EAC-B7D6-9B88228DB59B";
shapes = (
{
closed = 1;
nodes = (
(270,-13,o),
(316,28,o),
(335,111,c),
(311,111,l),
(332,28,o),
(379,-13,o),
(444,-13,cs),
(532,-13,o),
(588,52,o),
(588,176,cs),
(588,690,l),
(564,690,l),
(339,519,l),
(339,460,l),
(544,618,l),
(529,627,l),
(529,179,ls),
(529,86,o),
(497,44,o),
(440,44,cs),
(384,44,o),
(351,88,o),
(351,179,cs),
(351,690,l),
(295,690,l),
(295,179,ls),
(295,86,o),
(262,44,o),
(206,44,cs),
(147,44,o),
(115,86,o),
(115,179,cs),
(115,627,l),
(101,618,l),
(303,461,l),
(303,521,l),
(81,690,l),
(56,690,l),
(56,178,ls),
(56,51,o),
(114,-13,o),
(202,-13,cs)
);
}
);
width = 644;
}
);
metricLeft = "guCarrier-canadian";
metricRight = "guCarrier-canadian";
note = uni15FB;
unicode = 5627;
},
{
color = 9;
glyphname = "kkoCarrier-canadian";
lastChange = "2023-01-13 15:55:56 +0000";
layers = (
{
layerId = "2974A4AB-0281-4EAC-B7D6-9B88228DB59B";
shapes = (
{
closed = 1;
nodes = (
(80,0,l),
(305,171,l),
(305,230,l),
(100,71,l),
(115,63,l),
(115,511,ls),
(115,604,o),
(147,645,o),
(204,645,cs),
(260,645,o),
(294,602,o),
(294,511,cs),
(294,0,l),
(350,0,l),
(350,511,ls),
(350,604,o),
(383,645,o),
(440,645,cs),
(498,645,o),
(529,604,o),
(529,511,cs),
(529,63,l),
(544,71,l),
(341,229,l),
(341,169,l),
(563,0,l),
(588,0,l),
(588,512,ls),
(588,639,o),
(531,702,o),
(443,702,cs),
(376,702,o),
(328,662,o),
(309,579,c),
(334,579,l),
(312,662,o),
(266,702,o),
(201,702,cs),
(113,702,o),
(56,638,o),
(56,514,cs),
(56,0,l)
);
}
);
width = 644;
}
);
metricLeft = "guCarrier-canadian";
metricRight = "guCarrier-canadian";
note = uni15FC;
unicode = 5628;
},
{
color = 9;
glyphname = "kkeCarrier-canadian";
lastChange = "2023-01-13 15:55:56 +0000";
layers = (
{
layerId = "2974A4AB-0281-4EAC-B7D6-9B88228DB59B";
shapes = (
{
closed = 1;
nodes = (
(303,0,ls),
(417,0,o),
(490,63,o),
(490,181,cs),
(490,265,o),
(446,329,o),
(376,353,c),
(375,336,l),
(447,357,o),
(490,420,o),
(490,507,cs),
(490,626,o),
(416,690,o),
(303,690,cs),
(62,690,l),
(62,670,l),
(146,371,l),
(65,371,l),
(65,319,l),
(146,319,l),
(62,19,l),
(62,0,l)
);
},
{
closed = 1;
nodes = (
(207,319,l),
(295,319,ls),
(375,319,o),
(428,273,o),
(428,184,cs),
(428,93,o),
(376,52,o),
(294,52,cs),
(105,52,l),
(125,26,l)
);
},
{
closed = 1;
nodes = (
(124,664,l),
(104,638,l),
(294,638,ls),
(376,638,o),
(428,596,o),
(428,505,cs),
(428,416,o),
(377,371,o),
(295,371,cs),
(206,371,l)
);
}
);
width = 550;
}
);
metricRight = "geCarrier-canadian";
note = uni15FD;
unicode = 5629;
},
{
color = 9;
glyphname = "kkeeCarrier-canadian";
lastChange = "2023-01-13 15:55:56 +0000";
layers = (
{
layerId = "2974A4AB-0281-4EAC-B7D6-9B88228DB59B";
shapes = (
{
closed = 1;
nodes = (
(303,0,ls),
(417,0,o),
(490,63,o),
(490,181,cs),
(490,265,o),
(446,329,o),
(376,353,c),
(375,336,l),
(447,357,o),
(490,420,o),
(490,507,cs),
(490,626,o),
(416,690,o),
(303,690,cs),
(62,690,l),
(62,670,l),
(146,371,l),
(65,371,l),
(65,319,l),
(146,319,l),
(62,19,l),
(62,0,l)
);
},
{
closed = 1;
nodes = (
(206,321,l),
(268,321,l),
(268,239,l),
(304,239,l),
(304,336,l),
(278,321,l),
(299,321,ls),
(378,321,o),
(428,275,o),
(428,185,cs),
(428,94,o),
(376,52,o),
(294,52,cs),
(103,52,l),
(124,26,l)
);
},
{
closed = 1;
nodes = (
(304,452,l),
(268,452,l),
(268,370,l),
(205,370,l),
(122,664,l),
(102,638,l),
(294,638,ls),
(376,638,o),
(428,596,o),
(428,504,cs),
(428,414,o),
(379,370,o),
(299,370,cs),
(278,370,l),
(304,356,l)
);
}
);
width = 550;
}
);
metricLeft = "kkeCarrier-canadian";
metricRight = "geCarrier-canadian";
note = uni15FE;
unicode = 5630;
},
{
color = 9;
glyphname = "kkiCarrier-canadian";
lastChange = "2023-01-13 15:55:56 +0000";
layers = (
{
layerId = "2974A4AB-0281-4EAC-B7D6-9B88228DB59B";
shapes = (
{
closed = 1;
nodes = (
(303,0,ls),
(417,0,o),
(490,63,o),
(490,181,cs),
(490,265,o),
(446,329,o),
(376,353,c),
(375,336,l),
(447,357,o),
(490,420,o),
(490,507,cs),
(490,626,o),
(416,690,o),
(303,690,cs),
(62,690,l),
(62,670,l),
(146,371,l),
(65,371,l),
(65,319,l),
(146,319,l),
(62,19,l),
(62,0,l)
);
},
{
closed = 1;
nodes = (
(207,323,l),
(224,323,l),
(231,301,o),
(251,286,o),
(275,286,cs),
(305,286,o),
(327,311,o),
(328,337,c),
(283,323,l),
(299,323,ls),
(378,323,o),
(428,275,o),
(428,183,cs),
(428,94,o),
(376,52,o),
(294,52,cs),
(103,52,l),
(124,26,l)
);
},
{
closed = 1;
nodes = (
(327,379,o),
(306,404,o),
(275,404,cs),
(251,404,o),
(231,388,o),
(224,367,c),
(206,367,l),
(122,664,l),
(102,638,l),
(294,638,ls),
(376,638,o),
(428,596,o),
(428,502,cs),
(428,414,o),
(379,367,o),
(299,367,cs),
(283,367,l),
(329,353,l)
);
}
);
width = 550;
}
);
metricLeft = "kkeCarrier-canadian";
metricRight = "geCarrier-canadian";
note = uni15FF;
unicode = 5631;
},
{
color = 9;
glyphname = "kkaCarrier-canadian";
lastChange = "2023-01-13 15:55:56 +0000";
layers = (
{
layerId = "2974A4AB-0281-4EAC-B7D6-9B88228DB59B";
shapes = (
{
closed = 1;
nodes = (
(488,0,l),
(488,19,l),
(404,319,l),
(486,319,l),
(486,371,l),
(404,371,l),
(488,670,l),
(488,690,l),
(246,690,ls),
(133,690,o),
(60,626,o),
(60,507,cs),
(60,420,o),
(102,357,o),
(175,336,c),
(174,353,l),
(103,329,o),
(60,265,o),
(60,181,cs),
(60,63,o),
(132,0,o),
(246,0,cs)
);
},
{
closed = 1;
nodes = (
(444,52,l),
(256,52,ls),
(174,52,o),
(122,93,o),
(122,184,cs),
(122,273,o),
(175,319,o),
(254,319,cs),
(342,319,l),
(425,26,l)
);
},
{
closed = 1;
nodes = (
(173,371,o),
(122,416,o),
(122,505,cs),
(122,596,o),
(174,638,o),
(256,638,cs),
(445,638,l),
(426,664,l),
(344,371,l),
(255,371,ls)
);
}
);
width = 550;
}
);
metricLeft = "=|geCarrier-canadian";
metricRight = "=|kkeCarrier-canadian";
note = uni1600;
unicode = 5632;
},
{
color = 6;
glyphname = "kkCarrier-canadian";
lastChange = "2023-01-13 15:55:56 +0000";
layers = (
{
layerId = "2974A4AB-0281-4EAC-B7D6-9B88228DB59B";
shapes = (
{
closed = 1;
nodes = (
(158,183,l),
(273,516,l),
(273,527,l),
(231,527,l),
(137,234,l),
(167,234,l),
(72,527,l),
(31,527,l),
(31,516,l),
(146,183,l)
);
}
);
width = 303;
}
);
note = uni1601;
unicode = 5633;
},
{
color = 9;
glyphname = "nuCarrier-canadian";
lastChange = "2023-01-13 15:55:56 +0000";
layers = (
{
layerId = "2974A4AB-0281-4EAC-B7D6-9B88228DB59B";
shapes = (
{
closed = 1;
nodes = (
(406,-13,o),
(485,71,o),
(485,240,cs),
(485,298,l),
(424,298,l),
(424,236,ls),
(424,104,o),
(369,45,o),
(271,45,cs),
(178,45,o),
(121,106,o),
(121,231,cs),
(121,690,l),
(59,690,l),
(59,235,ls),
(59,72,o),
(142,-13,o),
(271,-13,cs)
);
}
);
width = 540;
}
);
metricLeft = "te-canadian";
note = uni1602;
unicode = 5634;
},
{
color = 9;
glyphname = "noCarrier-canadian";
lastChange = "2023-01-13 15:55:56 +0000";
layers = (
{
layerId = "2974A4AB-0281-4EAC-B7D6-9B88228DB59B";
shapes = (
{
closed = 1;
nodes = (
(480,0,l),
(480,455,ls),
(480,617,o),
(397,702,o),
(268,702,cs),
(133,702,o),
(55,618,o),
(55,450,cs),
(55,391,l),
(116,391,l),
(116,454,ls),
(116,585,o),
(170,644,o),
(268,644,cs),
(361,644,o),
(418,583,o),
(418,459,cs),
(418,0,l)
);
}
);
width = 539;
}
);
metricLeft = "=|nuCarrier-canadian";
metricRight = "te-canadian";
note = uni1603;
unicode = 5635;
},
{
color = 9;
glyphname = "neCarrier-canadian";
lastChange = "2023-01-13 15:56:00 +0000";
layers = (
{
anchors = (
{
name = middle_center_can;
pos = (220,345);
}
);
layerId = "2974A4AB-0281-4EAC-B7D6-9B88228DB59B";
shapes = (
{
closed = 1;
nodes = (
(203,0,ls),
(382,0,o),
(472,121,o),
(472,346,cs),
(472,571,o),
(384,690,o),
(188,690,cs),
(42,690,l),
(42,633,l),
(189,633,ls),
(347,633,o),
(412,538,o),
(412,346,cs),
(412,156,o),
(344,57,o),
(204,57,cs),
(200,57,l),
(200,0,l)
);
}
);
width = 522;
}
);
metricRight = "theCarrier-canadian";
note = uni1604;
unicode = 5636;
},
{
color = 9;
glyphname = "naCarrier-canadian";
lastChange = "2023-01-13 15:55:56 +0000";
layers = (
{
layerId = "2974A4AB-0281-4EAC-B7D6-9B88228DB59B";
shapes = (
{
closed = 1;
nodes = (
(482,0,l),
(482,57,l),
(334,57,ls),
(176,57,o),
(112,152,o),
(112,344,cs),
(112,534,o),
(180,633,o),
(320,633,cs),
(324,633,l),
(324,690,l),
(320,690,ls),
(142,690,o),
(50,569,o),
(50,344,cs),
(50,119,o),
(139,0,o),
(335,0,cs)
);
}
);
width = 524;
}
);
metricLeft = "=|theCarrier-canadian";
metricRight = "=|neCarrier-canadian";
note = uni1607;
unicode = 5639;
},
{
color = 9;
glyphname = "muCarrier-canadian";
lastChange = "2023-01-13 15:55:56 +0000";
layers = (
{
layerId = "2974A4AB-0281-4EAC-B7D6-9B88228DB59B";
shapes = (
{
closed = 1;
nodes = (
(270,-13,o),
(317,29,o),
(335,113,c),
(310,113,l),
(331,28,o),
(379,-13,o),
(444,-13,cs),
(532,-13,o),
(588,52,o),
(588,176,cs),
(588,388,l),
(529,388,l),
(529,179,ls),
(529,86,o),
(498,44,o),
(441,44,cs),
(384,44,o),
(352,88,o),
(352,179,cs),
(352,388,l),
(295,388,l),
(295,179,ls),
(295,86,o),
(262,44,o),
(205,44,cs),
(147,44,o),
(115,86,o),
(115,179,cs),
(115,690,l),
(56,690,l),
(56,178,ls),
(56,51,o),
(114,-13,o),
(202,-13,cs)
);
}
);
width = 644;
}
);
metricLeft = "guCarrier-canadian";
metricRight = "=|";
note = uni1608;
unicode = 5640;
},
{
color = 9;
glyphname = "moCarrier-canadian";
lastChange = "2023-01-13 15:55:56 +0000";
layers = (
{
layerId = "2974A4AB-0281-4EAC-B7D6-9B88228DB59B";
shapes = (
{
closed = 1;
nodes = (
(588,0,l),
(588,512,ls),
(588,639,o),
(530,702,o),
(442,702,cs),
(375,702,o),
(327,661,o),
(309,577,c),
(334,577,l),
(313,662,o),
(266,702,o),
(200,702,cs),
(113,702,o),
(56,638,o),
(56,514,cs),
(56,301,l),
(115,301,l),
(115,511,ls),
(115,603,o),
(147,645,o),
(204,645,cs),
(260,645,o),
(293,602,o),
(293,511,cs),
(293,301,l),
(350,301,l),
(350,511,ls),
(350,604,o),
(383,645,o),
(440,645,cs),
(498,645,o),
(529,604,o),
(529,511,cs),
(529,0,l)
);
}
);
width = 644;
}
);
metricLeft = "=|muCarrier-canadian";
metricRight = "guCarrier-canadian";
note = uni1609;
unicode = 5641;
},
{
color = 9;
glyphname = "meCarrier-canadian";
lastChange = "2023-01-13 15:55:56 +0000";
layers = (
{
layerId = "2974A4AB-0281-4EAC-B7D6-9B88228DB59B";
shapes = (
{
closed = 1;
nodes = (
(286,0,ls),
(401,0,o),
(472,63,o),
(472,181,cs),
(472,265,o),
(429,329,o),
(358,354,c),
(358,336,l),
(430,358,o),
(472,420,o),
(472,507,cs),
(472,626,o),
(400,690,o),
(286,690,cs),
(42,690,l),
(42,638,l),
(276,638,ls),
(359,638,o),
(412,596,o),
(412,505,cs),
(412,416,o),
(359,371,o),
(278,371,cs),
(215,371,l),
(215,319,l),
(278,319,ls),
(358,319,o),
(412,273,o),
(412,184,cs),
(412,93,o),
(359,52,o),
(276,52,cs),
(215,52,l),
(215,0,l)
);
}
);
width = 532;
}
);
metricLeft = "neCarrier-canadian";
metricRight = "geCarrier-canadian";
note = uni160A;
unicode = 5642;
},
{
color = 9;
glyphname = "meeCarrier-canadian";
lastChange = "2023-01-13 15:55:56 +0000";
layers = (
{
layerId = "2974A4AB-0281-4EAC-B7D6-9B88228DB59B";
shapes = (
{
closed = 1;
nodes = (
(286,0,ls),
(401,0,o),
(472,63,o),
(472,181,cs),
(472,265,o),
(429,329,o),
(358,353,c),
(358,336,l),
(430,357,o),
(472,420,o),
(472,507,cs),
(472,626,o),
(400,690,o),
(286,690,cs),
(42,690,l),
(42,638,l),
(276,638,ls),
(359,638,o),
(412,596,o),
(412,504,cs),
(412,415,o),
(361,370,o),
(282,370,cs),
(254,370,l),
(254,458,l),
(215,458,l),
(215,233,l),
(254,233,l),
(254,320,l),
(282,320,ls),
(360,320,o),
(412,274,o),
(412,185,cs),
(412,94,o),
(359,52,o),
(276,52,cs),
(215,52,l),
(215,0,l)
);
}
);
width = 532;
}
);
metricLeft = "neCarrier-canadian";
metricRight = "geCarrier-canadian";
note = uni160B;
unicode = 5643;
},
{
color = 9;
glyphname = "miCarrier-canadian";
lastChange = "2023-01-13 15:55:56 +0000";
layers = (
{
layerId = "2974A4AB-0281-4EAC-B7D6-9B88228DB59B";
shapes = (
{
closed = 1;
nodes = (
(286,0,ls),
(401,0,o),
(472,63,o),
(472,181,cs),
(472,265,o),
(429,329,o),
(358,353,c),
(358,336,l),
(430,357,o),
(472,420,o),
(472,507,cs),
(472,626,o),
(400,690,o),
(286,690,cs),
(42,690,l),
(42,638,l),
(276,638,ls),
(359,638,o),
(412,596,o),
(412,504,cs),
(412,415,o),
(361,370,o),
(285,370,cs),
(264,370,l),
(297,353,l),
(294,382,o),
(270,404,o),
(241,404,cs),
(208,404,o),
(183,377,o),
(183,345,cs),
(183,313,o),
(208,286,o),
(241,286,cs),
(270,286,o),
(294,309,o),
(297,337,c),
(264,320,l),
(284,320,ls),
(360,320,o),
(412,274,o),
(412,185,cs),
(412,94,o),
(359,52,o),
(276,52,cs),
(215,52,l),
(215,0,l)
);
}
);
width = 532;
}
);
metricLeft = "neCarrier-canadian";
metricRight = "geCarrier-canadian";
note = uni160C;
unicode = 5644;
},
{
color = 9;
glyphname = "maCarrier-canadian";
lastChange = "2023-01-13 15:56:00 +0000";
layers = (
{
layerId = "2974A4AB-0281-4EAC-B7D6-9B88228DB59B";
shapes = (
{
closed = 1;
nodes = (
(492,0,l),
(492,52,l),
(256,52,ls),
(174,52,o),
(122,93,o),
(122,184,cs),
(122,273,o),
(174,319,o),
(254,319,cs),
(318,319,l),
(318,371,l),
(255,371,ls),
(174,371,o),
(122,415,o),
(122,504,cs),
(122,596,o),
(174,638,o),
(256,638,cs),
(318,638,l),
(318,690,l),
(246,690,ls),
(132,690,o),
(60,627,o),
(60,507,cs),
(60,423,o),
(103,359,o),
(175,337,c),
(175,354,l),
(102,331,o),
(60,268,o),
(60,182,cs),
(60,64,o),
(133,0,o),
(246,0,cs)
);
}
);
width = 534;
}
);
metricLeft = "=|geCarrier-canadian";
metricRight = "=|neCarrier-canadian";
note = uni160D;
unicode = 5645;
},
{
color = 9;
glyphname = "yuCarrier-canadian";
lastChange = "2023-01-13 15:55:56 +0000";
layers = (
{
layerId = "2974A4AB-0281-4EAC-B7D6-9B88228DB59B";
shapes = (
{
closed = 1;
nodes = (
(438,-13,o),
(519,108,o),
(519,388,cs),
(519,606,o),
(466,702,o),
(371,702,cs),
(291,702,o),
(244,629,o),
(244,506,cs),
(244,385,o),
(291,315,o),
(369,315,cs),
(384,315,o),
(398,318,o),
(408,323,c),
(408,371,l),
(401,368,o),
(391,365,o),
(375,365,cs),
(322,365,o),
(297,412,o),
(297,508,cs),
(297,605,o),
(322,651,o),
(371,651,cs),
(430,651,o),
(461,581,o),
(461,389,cs),
(461,132,o),
(400,45,o),
(278,45,cs),
(179,45,o),
(121,106,o),
(121,234,cs),
(121,690,l),
(59,690,l),
(59,236,ls),
(59,71,o),
(144,-13,o),
(276,-13,cs)
);
}
);
width = 578;
}
);
metricLeft = "te-canadian";
metricRight = "te-canadian";
note = uni160E;
unicode = 5646;
},
{
color = 9;
glyphname = "yoCarrier-canadian";
lastChange = "2023-01-13 15:55:56 +0000";
layers = (
{
layerId = "2974A4AB-0281-4EAC-B7D6-9B88228DB59B";
shapes = (
{
closed = 1;
nodes = (
(288,-13,o),
(333,61,o),
(333,184,cs),
(333,304,o),
(288,375,o),
(209,375,cs),
(195,375,o),
(180,372,o),
(170,367,c),
(170,319,l),
(178,322,o),
(186,325,o),
(203,325,cs),
(256,325,o),
(281,278,o),
(281,182,cs),
(281,85,o),
(256,39,o),
(208,39,cs),
(148,39,o),
(118,109,o),
(118,300,cs),
(118,557,o),
(178,644,o),
(300,644,cs),
(399,644,o),
(457,583,o),
(457,456,cs),
(457,0,l),
(519,0,l),
(519,454,ls),
(519,618,o),
(434,702,o),
(302,702,cs),
(140,702,o),
(59,582,o),
(59,301,cs),
(59,84,o),
(113,-13,o),
(207,-13,cs)
);
}
);
width = 578;
}
);
metricLeft = "te-canadian";
metricRight = "te-canadian";
note = uni160F;
unicode = 5647;
},
{
color = 9;
glyphname = "yeCarrier-canadian";
lastChange = "2023-01-13 15:55:56 +0000";
layers = (
{
layerId = "2974A4AB-0281-4EAC-B7D6-9B88228DB59B";
shapes = (
{
closed = 1;
nodes = (
(389,-13,o),
(468,124,o),
(468,342,cs),
(468,571,o),
(380,690,o),
(183,690,cs),
(56,690,l),
(56,633,l),
(183,633,ls),
(342,633,o),
(407,538,o),
(407,341,cs),
(407,151,o),
(358,42,o),
(242,42,cs),
(137,42,o),
(97,111,o),
(97,208,cs),
(97,302,o),
(126,350,o),
(173,350,cs),
(220,350,o),
(246,302,o),
(246,215,cs),
(246,184,o),
(243,165,o),
(241,145,c),
(288,145,l),
(293,171,o),
(295,186,o),
(295,220,cs),
(295,331,o),
(251,401,o),
(172,401,cs),
(93,401,o),
(43,330,o),
(43,208,cs),
(43,86,o),
(105,-13,o),
(241,-13,cs)
);
}
);
width = 518;
}
);
metricRight = "theCarrier-canadian";
note = uni1610;
unicode = 5648;
},
{
color = 9;
glyphname = "yeeCarrier-canadian";
lastChange = "2023-01-13 15:55:56 +0000";
layers = (
{
layerId = "2974A4AB-0281-4EAC-B7D6-9B88228DB59B";
shapes = (
{
closed = 1;
nodes = (
(389,-13,o),
(468,124,o),
(468,342,cs),
(468,571,o),
(380,690,o),
(183,690,cs),
(56,690,l),
(56,633,l),
(183,633,ls),
(342,633,o),
(407,538,o),
(407,341,cs),
(407,151,o),
(358,42,o),
(240,42,cs),
(137,42,o),
(97,112,o),
(97,212,cs),
(97,301,o),
(124,350,o),
(166,350,cs),
(211,350,o),
(237,303,o),
(237,232,cs),
(237,174,l),
(270,174,l),
(270,503,l),
(237,503,l),
(237,293,l),
(246,293,l),
(240,361,o),
(206,401,o),
(156,401,cs),
(91,401,o),
(43,333,o),
(43,212,cs),
(43,86,o),
(105,-13,o),
(239,-13,cs)
);
}
);
width = 518;
}
);
metricRight = "theCarrier-canadian";
metricWidth = "yeCarrier-canadian";
note = uni1611;
unicode = 5649;
},
{
color = 9;
glyphname = "yiCarrier-canadian";
lastChange = "2023-01-13 15:55:56 +0000";
layers = (
{
layerId = "2974A4AB-0281-4EAC-B7D6-9B88228DB59B";
shapes = (
{
closed = 1;
nodes = (
(389,-13,o),
(468,124,o),
(468,342,cs),
(468,571,o),
(380,690,o),
(183,690,cs),
(56,690,l),
(56,633,l),
(183,633,ls),
(342,633,o),
(407,538,o),
(407,341,cs),
(407,151,o),
(358,42,o),
(243,42,cs),
(139,42,o),
(97,113,o),
(97,196,cs),
(97,278,o),
(127,324,o),
(169,326,c),
(155,336,l),
(157,311,o),
(183,289,o),
(212,289,cs),
(243,289,o),
(269,315,o),
(269,345,cs),
(269,376,o),
(243,401,o),
(212,401,cs),
(187,401,o),
(168,387,o),
(159,368,c),
(90,360,o),
(43,295,o),
(43,191,cs),
(43,86,o),
(105,-13,o),
(241,-13,cs)
);
}
);
width = 518;
}
);
metricRight = "theCarrier-canadian";
metricWidth = "yeCarrier-canadian";
note = uni1612;
unicode = 5650;
},
{
color = 9;
glyphname = "yaCarrier-canadian";
lastChange = "2023-01-13 15:56:00 +0000";
layers = (
{
layerId = "2974A4AB-0281-4EAC-B7D6-9B88228DB59B";
shapes = (
{
closed = 1;
nodes = (
(463,0,l),
(463,57,l),
(335,57,ls),
(176,57,o),
(112,152,o),
(112,349,cs),
(112,539,o),
(160,648,o),
(285,648,cs),
(381,648,o),
(421,579,o),
(421,482,cs),
(421,387,o),
(393,340,o),
(346,340,cs),
(298,340,o),
(272,387,o),
(272,474,cs),
(272,506,o),
(274,525,o),
(277,545,c),
(231,545,l),
(226,519,o),
(224,503,o),
(224,469,cs),
(224,358,o),
(268,289,o),
(347,289,cs),
(425,289,o),
(474,359,o),
(474,482,cs),
(474,604,o),
(412,702,o),
(286,702,cs),
(129,702,o),
(50,566,o),
(50,348,cs),
(50,119,o),
(138,0,o),
(336,0,cs)
);
}
);
width = 517;
}
);
metricLeft = "=|theCarrier-canadian";
metricRight = "=|yeCarrier-canadian";
note = uni1613;
unicode = 5651;
},
{
color = 9;
glyphname = "juCarrier-canadian";
lastChange = "2023-01-13 15:55:56 +0000";
layers = (
{
layerId = "2974A4AB-0281-4EAC-B7D6-9B88228DB59B";
shapes = (
{
closed = 1;
nodes = (
(426,-13,o),
(487,87,o),
(487,206,cs),
(487,330,o),
(438,401,o),
(358,401,cs),
(279,401,o),
(237,331,o),
(237,220,cs),
(237,186,o),
(239,169,o),
(243,145,c),
(290,145,l),
(287,164,o),
(285,185,o),
(285,215,cs),
(285,301,o),
(310,350,o),
(357,350,cs),
(406,350,o),
(434,301,o),
(434,206,cs),
(434,112,o),
(394,42,o),
(290,42,cs),
(178,42,o),
(117,130,o),
(117,301,cs),
(117,539,o),
(229,633,o),
(412,633,cs),
(475,633,l),
(475,690,l),
(49,690,l),
(49,635,l),
(299,635,l),
(346,659,l),
(176,659,o),
(56,538,o),
(56,299,cs),
(56,104,o),
(144,-13,o),
(286,-13,cs)
);
}
);
width = 530;
}
);
metricRight = "=|yeCarrier-canadian";
note = uni1614;
unicode = 5652;
},
{
color = 9;
glyphname = "juSayisi-canadian";
lastChange = "2023-01-13 15:55:56 +0000";
layers = (
{
anchors = (
{
name = top_center_can;
pos = (269,690);
}
);
layerId = "2974A4AB-0281-4EAC-B7D6-9B88228DB59B";
shapes = (
{
closed = 1;
nodes = (
(386,-13,o),
(475,104,o),
(475,299,cs),
(475,538,o),
(355,659,o),
(185,659,c),
(232,635,l),
(481,635,l),
(481,690,l),
(56,690,l),
(56,633,l),
(119,633,ls),
(301,633,o),
(413,539,o),
(413,301,cs),
(413,130,o),
(353,42,o),
(242,42,cs),
(136,42,o),
(97,112,o),
(97,206,cs),
(97,301,o),
(126,350,o),
(173,350,cs),
(220,350,o),
(246,301,o),
(246,215,cs),
(246,185,o),
(243,164,o),
(241,145,c),
(288,145,l),
(293,169,o),
(295,186,o),
(295,220,cs),
(295,331,o),
(251,401,o),
(172,401,cs),
(93,401,o),
(43,330,o),
(43,206,cs),
(43,87,o),
(104,-13,o),
(244,-13,cs)
);
}
);
width = 530;
}
);
metricLeft = "yeCarrier-canadian";
metricRight = "=|juCarrier-canadian";
note = uni1615;
unicode = 5653;
},
{
color = 9;
glyphname = "joCarrier-canadian";
lastChange = "2023-01-13 15:55:56 +0000";
layers = (
{
layerId = "2974A4AB-0281-4EAC-B7D6-9B88228DB59B";
shapes = (
{
closed = 1;
nodes = (
(481,0,l),
(481,55,l),
(232,55,l),
(185,31,l),
(355,31,o),
(475,152,o),
(475,390,cs),
(475,585,o),
(386,702,o),
(244,702,cs),
(104,702,o),
(43,603,o),
(43,484,cs),
(43,359,o),
(93,289,o),
(172,289,cs),
(251,289,o),
(295,358,o),
(295,469,cs),
(295,503,o),
(293,521,o),
(288,545,c),
(241,545,l),
(243,526,o),
(246,505,o),
(246,474,cs),
(246,388,o),
(220,340,o),
(173,340,cs),
(126,340,o),
(97,388,o),
(97,484,cs),
(97,578,o),
(136,648,o),
(242,648,cs),
(353,648,o),
(413,559,o),
(413,388,cs),
(413,151,o),
(301,57,o),
(119,57,cs),
(56,57,l),
(56,0,l)
);
}
);
width = 530;
}
);
metricLeft = "yeCarrier-canadian";
metricRight = "=|juCarrier-canadian";
note = uni1616;
unicode = 5654;
},
{
color = 9;
glyphname = "jeCarrier-canadian";
lastChange = "2023-01-13 15:55:56 +0000";
layers = (
{
layerId = "2974A4AB-0281-4EAC-B7D6-9B88228DB59B";
shapes = (
{
closed = 1;
nodes = (
(469,-13,o),
(522,84,o),
(522,301,cs),
(522,567,o),
(437,702,o),
(306,702,cs),
(175,702,o),
(109,583,o),
(105,373,c),
(124,378,l),
(124,690,l),
(63,690,l),
(63,0,l),
(124,0,l),
(124,284,ls),
(124,539,o),
(186,644,o),
(297,644,cs),
(398,644,o),
(464,540,o),
(464,301,cs),
(464,109,o),
(434,39,o),
(374,39,cs),
(327,39,o),
(300,85,o),
(300,182,cs),
(300,278,o),
(325,325,o),
(382,325,cs),
(395,325,o),
(404,322,o),
(411,319,c),
(411,367,l),
(402,372,o),
(386,375,o),
(375,375,cs),
(294,375,o),
(248,304,o),
(248,184,cs),
(248,61,o),
(294,-13,o),
(375,-13,cs)
);
}
);
width = 581;
}
);
metricLeft = "nunavuth-canadian";
metricRight = "te-canadian";
note = uni1617;
unicode = 5655;
},
{
color = 9;
glyphname = "jeeCarrier-canadian";
lastChange = "2023-01-13 15:55:56 +0000";
layers = (
{
layerId = "2974A4AB-0281-4EAC-B7D6-9B88228DB59B";
shapes = (
{
closed = 1;
nodes = (
(469,-13,o),
(522,86,o),
(522,301,cs),
(522,567,o),
(437,702,o),
(306,702,cs),
(203,702,o),
(140,629,o),
(116,496,c),
(124,490,l),
(124,690,l),
(63,690,l),
(63,0,l),
(124,0,l),
(124,284,ls),
(124,539,o),
(186,644,o),
(297,644,cs),
(398,644,o),
(464,540,o),
(464,301,cs),
(464,113,o),
(431,39,o),
(365,39,cs),
(313,39,o),
(282,89,o),
(282,185,cs),
(282,270,o),
(303,318,o),
(343,329,c),
(343,238,l),
(378,238,l),
(378,449,l),
(343,449,l),
(343,366,l),
(287,353,o),
(248,292,o),
(248,182,cs),
(248,60,o),
(294,-13,o),
(375,-13,cs)
);
}
);
width = 581;
}
);
metricLeft = "nunavuth-canadian";
metricRight = "jeCarrier-canadian";
note = uni1618;
unicode = 5656;
},
{
color = 9;
glyphname = "jiCarrier-canadian";
lastChange = "2023-01-13 15:55:56 +0000";
layers = (
{
layerId = "2974A4AB-0281-4EAC-B7D6-9B88228DB59B";
shapes = (
{
closed = 1;
nodes = (
(469,-13,o),
(522,86,o),
(522,301,cs),
(522,567,o),
(437,702,o),
(306,702,cs),
(203,702,o),
(140,629,o),
(116,497,c),
(124,491,l),
(124,690,l),
(63,690,l),
(63,0,l),
(124,0,l),
(124,284,ls),
(124,539,o),
(186,644,o),
(297,644,cs),
(398,644,o),
(464,540,o),
(464,301,cs),
(464,113,o),
(431,39,o),
(365,39,cs),
(313,39,o),
(282,89,o),
(282,185,cs),
(282,251,o),
(296,291,o),
(321,310,c),
(327,297,o),
(341,287,o),
(358,287,cs),
(387,287,o),
(412,312,o),
(412,343,cs),
(412,373,o),
(387,398,o),
(358,398,cs),
(325,398,o),
(304,367,o),
(307,341,c),
(270,318,o),
(248,265,o),
(248,182,cs),
(248,60,o),
(294,-13,o),
(375,-13,cs)
);
}
);
width = 581;
}
);
metricLeft = "nunavuth-canadian";
metricRight = "jeCarrier-canadian";
note = uni1619;
unicode = 5657;
},
{
color = 9;
glyphname = "jiSayisi-canadian";
lastChange = "2023-01-13 15:55:56 +0000";
layers = (
{
layerId = "2974A4AB-0281-4EAC-B7D6-9B88228DB59B";
shapes = (
{
closed = 1;
nodes = (
(437,-13,o),
(522,123,o),
(522,388,cs),
(522,606,o),
(469,702,o),
(375,702,cs),
(294,702,o),
(248,629,o),
(248,506,cs),
(248,385,o),
(294,315,o),
(375,315,cs),
(386,315,o),
(402,318,o),
(411,323,c),
(411,371,l),
(404,368,o),
(395,365,o),
(382,365,cs),
(325,365,o),
(300,412,o),
(300,508,cs),
(300,605,o),
(327,651,o),
(374,651,cs),
(434,651,o),
(464,581,o),
(464,388,cs),
(464,150,o),
(398,45,o),
(297,45,cs),
(186,45,o),
(124,151,o),
(124,406,cs),
(124,690,l),
(63,690,l),
(63,0,l),
(124,0,l),
(124,312,l),
(105,317,l),
(109,106,o),
(175,-13,o),
(306,-13,cs)
);
}
);
width = 581;
}
);
metricLeft = "nunavuth-canadian";
metricRight = "jeCarrier-canadian";
note = uni161A;
unicode = 5658;
},
{
color = 9;
glyphname = "jaCarrier-canadian";
lastChange = "2023-01-13 15:55:56 +0000";
layers = (
{
anchors = (
{
name = top_center_can;
pos = (284,690);
}
);
layerId = "2974A4AB-0281-4EAC-B7D6-9B88228DB59B";
shapes = (
{
closed = 1;
nodes = (
(406,-13,o),
(472,106,o),
(475,317,c),
(458,312,l),
(458,0,l),
(519,0,l),
(519,690,l),
(457,690,l),
(457,406,ls),
(457,151,o),
(395,45,o),
(284,45,cs),
(183,45,o),
(118,150,o),
(118,388,cs),
(118,581,o),
(148,651,o),
(208,651,cs),
(254,651,o),
(281,605,o),
(281,508,cs),
(281,412,o),
(256,365,o),
(200,365,cs),
(186,365,o),
(178,368,o),
(170,371,c),
(170,323,l),
(180,318,o),
(195,315,o),
(207,315,cs),
(288,315,o),
(333,385,o),
(333,506,cs),
(333,629,o),
(288,702,o),
(207,702,cs),
(113,702,o),
(59,606,o),
(59,388,cs),
(59,123,o),
(145,-13,o),
(275,-13,cs)
);
}
);
width = 582;
}
);
metricLeft = "=|jeCarrier-canadian";
metricRight = "nunavuth-canadian";
note = uni161B;
unicode = 5659;
},
{
color = 9;
glyphname = "jjuCarrier-canadian";
lastChange = "2023-01-13 15:56:00 +0000";
layers = (
{
layerId = "2974A4AB-0281-4EAC-B7D6-9B88228DB59B";
shapes = (
{
closed = 1;
nodes = (
(419,-13,o),
(481,86,o),
(481,208,cs),
(481,330,o),
(432,401,o),
(354,401,cs),
(274,401,o),
(231,331,o),
(231,220,cs),
(231,189,o),
(233,169,o),
(238,145,c),
(284,145,l),
(281,164,o),
(279,185,o),
(279,215,cs),
(279,301,o),
(304,350,o),
(353,350,cs),
(398,350,o),
(428,298,o),
(428,208,cs),
(428,110,o),
(388,41,o),
(287,41,cs),
(181,41,o),
(119,128,o),
(119,311,cs),
(119,529,o),
(215,633,o),
(384,633,cs),
(469,633,l),
(469,690,l),
(383,690,ls),
(290,690,o),
(216,663,o),
(163,611,c),
(73,702,l),
(33,663,l),
(126,569,l),
(80,508,o),
(58,421,o),
(58,313,cs),
(58,102,o),
(149,-13,o),
(284,-13,cs)
);
}
);
width = 524;
}
);
metricRight = "=|yeCarrier-canadian";
note = uni161C;
unicode = 5660;
},
{
color = 9;
glyphname = "jjoCarrier-canadian";
lastChange = "2023-01-13 15:55:56 +0000";
layers = (
{
layerId = "2974A4AB-0281-4EAC-B7D6-9B88228DB59B";
shapes = (
{
closed = 1;
nodes = (
(493,27,l),
(399,121,l),
(444,182,o),
(467,269,o),
(467,377,cs),
(467,587,o),
(377,702,o),
(242,702,cs),
(105,702,o),
(43,604,o),
(43,482,cs),
(43,359,o),
(93,289,o),
(172,289,cs),
(251,289,o),
(294,358,o),
(294,469,cs),
(294,500,o),
(292,521,o),
(288,545,c),
(241,545,l),
(243,526,o),
(246,504,o),
(246,474,cs),
(246,388,o),
(220,340,o),
(173,340,cs),
(128,340,o),
(97,391,o),
(97,482,cs),
(97,580,o),
(137,649,o),
(238,649,cs),
(345,649,o),
(406,562,o),
(406,379,cs),
(406,160,o),
(309,57,o),
(141,57,cs),
(56,57,l),
(56,0,l),
(142,0,ls),
(235,0,o),
(308,27,o),
(362,78,c),
(452,-13,l)
);
}
);
width = 526;
}
);
metricLeft = "yeCarrier-canadian";
metricRight = "=|jjuCarrier-canadian";
note = uni161D;
unicode = 5661;
},
{
color = 9;
glyphname = "jjeCarrier-canadian";
lastChange = "2023-01-13 15:56:00 +0000";
layers = (
{
layerId = "2974A4AB-0281-4EAC-B7D6-9B88228DB59B";
shapes = (
{
closed = 1;
nodes = (
(470,-13,o),
(525,84,o),
(525,301,cs),
(525,582,o),
(445,702,o),
(286,702,cs),
(224,702,o),
(172,678,o),
(133,633,c),
(62,702,l),
(24,660,l),
(102,585,l),
(78,539,o),
(65,478,o),
(65,403,cs),
(65,0,l),
(126,0,l),
(126,406,ls),
(126,564,o),
(185,644,o),
(286,644,cs),
(406,644,o),
(466,557,o),
(466,300,cs),
(466,109,o),
(436,39,o),
(376,39,cs),
(327,39,o),
(302,85,o),
(302,182,cs),
(302,278,o),
(327,325,o),
(381,325,cs),
(397,325,o),
(406,322,o),
(413,319,c),
(413,367,l),
(404,372,o),
(388,375,o),
(374,375,cs),
(296,375,o),
(250,304,o),
(250,184,cs),
(250,61,o),
(296,-13,o),
(377,-13,cs)
);
}
);
width = 584;
}
);
metricRight = "jeCarrier-canadian";
note = uni161E;
unicode = 5662;
},
{
color = 9;
glyphname = "jjeeCarrier-canadian";
lastChange = "2023-01-13 15:56:00 +0000";
layers = (
{
layerId = "2974A4AB-0281-4EAC-B7D6-9B88228DB59B";
shapes = (
{
closed = 1;
nodes = (
(470,-13,o),
(525,86,o),
(525,301,cs),
(525,582,o),
(445,702,o),
(286,702,cs),
(224,702,o),
(172,678,o),
(133,633,c),
(62,702,l),
(24,660,l),
(102,585,l),
(78,539,o),
(65,478,o),
(65,403,cs),
(65,0,l),
(126,0,l),
(126,406,ls),
(126,564,o),
(185,644,o),
(285,644,cs),
(406,644,o),
(466,557,o),
(466,300,cs),
(466,112,o),
(433,39,o),
(368,39,cs),
(314,39,o),
(284,89,o),
(284,185,cs),
(284,275,o),
(306,318,o),
(346,329,c),
(346,238,l),
(381,238,l),
(381,449,l),
(346,449,l),
(346,366,l),
(291,355,o),
(250,293,o),
(250,182,cs),
(250,60,o),
(296,-13,o),
(377,-13,cs)
);
}
);
width = 584;
}
);
metricLeft = "jjeCarrier-canadian";
metricRight = "jeCarrier-canadian";
note = uni161F;
unicode = 5663;
},
{
color = 9;
glyphname = "jjiCarrier-canadian";
lastChange = "2023-01-13 15:56:00 +0000";
layers = (
{
layerId = "2974A4AB-0281-4EAC-B7D6-9B88228DB59B";
shapes = (
{
closed = 1;
nodes = (
(470,-13,o),
(525,86,o),
(525,301,cs),
(525,582,o),
(445,702,o),
(286,702,cs),
(224,702,o),
(172,678,o),
(133,633,c),
(62,702,l),
(24,660,l),
(102,585,l),
(78,539,o),
(65,478,o),
(65,403,cs),
(65,0,l),
(126,0,l),
(126,406,ls),
(126,564,o),
(185,644,o),
(285,644,cs),
(406,644,o),
(466,557,o),
(466,300,cs),
(466,112,o),
(433,39,o),
(368,39,cs),
(314,39,o),
(284,89,o),
(284,185,cs),
(284,254,o),
(298,292,o),
(323,309,c),
(328,297,o),
(344,287,o),
(359,287,cs),
(389,287,o),
(413,312,o),
(413,343,cs),
(413,373,o),
(389,398,o),
(359,398,cs),
(327,398,o),
(306,368,o),
(309,341,c),
(273,319,o),
(250,266,o),
(250,182,cs),
(250,60,o),
(296,-13,o),
(377,-13,cs)
);
}
);
width = 584;
}
);
metricLeft = "jjeCarrier-canadian";
metricRight = "jeCarrier-canadian";
note = uni1620;
unicode = 5664;
},
{
color = 9;
glyphname = "jjaCarrier-canadian";
lastChange = "2023-01-13 15:55:56 +0000";
layers = (
{
layerId = "2974A4AB-0281-4EAC-B7D6-9B88228DB59B";
shapes = (
{
closed = 1;
nodes = (
(359,-13,o),
(412,12,o),
(450,57,c),
(522,-13,l),
(559,30,l),
(481,104,l),
(505,151,o),
(519,212,o),
(519,287,cs),
(519,690,l),
(457,690,l),
(457,284,ls),
(457,126,o),
(399,45,o),
(298,45,cs),
(178,45,o),
(118,132,o),
(118,389,cs),
(118,581,o),
(148,651,o),
(208,651,cs),
(256,651,o),
(281,605,o),
(281,508,cs),
(281,412,o),
(256,365,o),
(203,365,cs),
(186,365,o),
(178,368,o),
(170,371,c),
(170,323,l),
(180,318,o),
(195,315,o),
(209,315,cs),
(288,315,o),
(333,385,o),
(333,506,cs),
(333,629,o),
(288,702,o),
(207,702,cs),
(113,702,o),
(59,606,o),
(59,388,cs),
(59,108,o),
(138,-13,o),
(298,-13,cs)
);
}
);
width = 583;
}
);
metricLeft = "=|jeCarrier-canadian";
metricRight = "=|jjeCarrier-canadian";
note = uni1621;
unicode = 5665;
},
{
color = 9;
glyphname = "luCarrier-canadian";
lastChange = "2023-01-13 15:55:56 +0000";
layers = (
{
layerId = "2974A4AB-0281-4EAC-B7D6-9B88228DB59B";
shapes = (
{
closed = 1;
nodes = (
(396,-13,o),
(479,62,o),
(479,242,cs),
(479,690,l),
(418,690,l),
(418,242,ls),
(418,96,o),
(357,44,o),
(275,44,cs),
(156,44,o),
(115,151,o),
(115,324,cs),
(115,526,o),
(165,622,o),
(289,639,c),
(289,690,l),
(47,690,l),
(47,639,l),
(212,639,l),
(247,655,l),
(128,639,o),
(54,541,o),
(54,317,cs),
(54,113,o),
(120,-13,o),
(274,-13,cs)
);
}
);
width = 538;
}
);
metricRight = "te-canadian";
note = uni1622;
unicode = 5666;
},
{
color = 9;
glyphname = "loCarrier-canadian";
lastChange = "2023-01-13 15:55:56 +0000";
layers = (
{
layerId = "2974A4AB-0281-4EAC-B7D6-9B88228DB59B";
shapes = (
{
closed = 1;
nodes = (
(121,0,l),
(121,447,ls),
(121,594,o),
(181,645,o),
(264,645,cs),
(383,645,o),
(423,539,o),
(423,366,cs),
(423,164,o),
(373,68,o),
(249,50,c),
(249,0,l),
(491,0,l),
(491,51,l),
(327,51,l),
(292,35,l),
(411,50,o),
(485,149,o),
(485,373,cs),
(485,577,o),
(419,702,o),
(264,702,cs),
(142,702,o),
(59,628,o),
(59,447,cs),
(59,0,l)
);
}
);
width = 538;
}
);
metricLeft = "te-canadian";
metricRight = "=|luCarrier-canadian";
note = uni1623;
unicode = 5667;
},
{
color = 9;
glyphname = "leCarrier-canadian";
lastChange = "2023-01-13 15:56:00 +0000";
layers = (
{
anchors = (
{
name = middle_center_can;
pos = (260,345);
}
);
layerId = "2974A4AB-0281-4EAC-B7D6-9B88228DB59B";
shapes = (
{
closed = 1;
nodes = (
(193,0,ls),
(384,0,o),
(472,121,o),
(472,356,cs),
(472,590,o),
(384,702,o),
(274,702,cs),
(173,702,o),
(123,618,o),
(107,511,c),
(115,513,l),
(115,690,l),
(60,690,l),
(60,385,l),
(112,385,l),
(113,537,o),
(162,644,o),
(261,644,cs),
(351,644,o),
(411,556,o),
(411,356,cs),
(411,156,o),
(349,57,o),
(194,57,cs),
(60,57,l),
(60,0,l)
);
}
);
width = 522;
}
);
metricRight = "theCarrier-canadian";
note = uni1624;
unicode = 5668;
},
{
color = 9;
glyphname = "laCarrier-canadian";
lastChange = "2023-01-13 15:55:56 +0000";
layers = (
{
layerId = "2974A4AB-0281-4EAC-B7D6-9B88228DB59B";
shapes = (
{
closed = 1;
nodes = (
(463,0,l),
(463,57,l),
(328,57,ls),
(174,57,o),
(112,156,o),
(112,356,cs),
(112,556,o),
(172,644,o),
(262,644,cs),
(360,644,o),
(410,537,o),
(411,385,c),
(463,385,l),
(463,690,l),
(408,690,l),
(408,513,l),
(415,511,l),
(399,618,o),
(350,702,o),
(248,702,cs),
(138,702,o),
(50,590,o),
(50,356,cs),
(50,121,o),
(139,0,o),
(329,0,cs)
);
}
);
width = 523;
}
);
metricLeft = "=|theCarrier-canadian";
metricRight = "=|leCarrier-canadian";
note = uni1627;
unicode = 5671;
},
{
color = 1;
glyphname = "dluCarrier-canadian";
lastChange = "2023-01-13 15:55:56 +0000";
layers = (
{
layerId = "2974A4AB-0281-4EAC-B7D6-9B88228DB59B";
shapes = (
{
closed = 1;
nodes = (
(419,-13,o),
(485,113,o),
(485,317,cs),
(485,522,o),
(423,621,o),
(325,647,c),
(312,641,l),
(482,641,l),
(482,558,l),
(528,558,l),
(528,773,l),
(482,773,l),
(482,690,l),
(249,690,l),
(249,639,l),
(373,622,o),
(423,526,o),
(423,324,cs),
(423,151,o),
(383,44,o),
(264,44,cs),
(181,44,o),
(121,96,o),
(121,242,cs),
(121,690,l),
(59,690,l),
(59,242,ls),
(59,62,o),
(142,-13,o),
(264,-13,cs)
);
}
);
width = 561;
}
);
metricLeft = "te-canadian";
note = uni1628;
unicode = 5672;
},
{
color = 9;
glyphname = "dloCarrier-canadian";
lastChange = "2023-01-13 15:55:56 +0000";
layers = (
{
layerId = "2974A4AB-0281-4EAC-B7D6-9B88228DB59B";
shapes = (
{
closed = 1;
nodes = (
(528,-83,l),
(528,131,l),
(482,131,l),
(482,48,l),
(312,48,l),
(325,43,l),
(423,69,o),
(485,168,o),
(485,373,cs),
(485,577,o),
(419,702,o),
(264,702,cs),
(142,702,o),
(59,628,o),
(59,447,cs),
(59,0,l),
(121,0,l),
(121,448,ls),
(121,594,o),
(181,645,o),
(264,645,cs),
(383,645,o),
(423,539,o),
(423,366,cs),
(423,164,o),
(373,68,o),
(249,50,c),
(249,0,l),
(482,0,l),
(482,-83,l)
);
}
);
width = 561;
}
);
metricLeft = "te-canadian";
metricRight = "dluCarrier-canadian";
note = uni1629;
unicode = 5673;
},
{
color = 9;
glyphname = "dleCarrier-canadian";
lastChange = "2023-01-13 15:55:56 +0000";
layers = (
{
anchors = (
{
name = middle_center_can;
pos = (271,345);
}
);
layerId = "2974A4AB-0281-4EAC-B7D6-9B88228DB59B";
shapes = (
{
closed = 1;
nodes = (
(204,0,ls),
(394,0,o),
(483,121,o),
(483,356,cs),
(483,590,o),
(395,702,o),
(285,702,cs),
(189,702,o),
(131,627,o),
(111,510,c),
(117,507,l),
(117,704,l),
(178,704,l),
(178,750,l),
(11,750,l),
(11,704,l),
(71,704,l),
(71,385,l),
(123,385,l),
(124,537,o),
(173,644,o),
(271,644,cs),
(360,644,o),
(421,556,o),
(421,356,cs),
(421,156,o),
(359,57,o),
(205,57,cs),
(71,57,l),
(71,0,l)
);
}
);
width = 533;
}
);
metricRight = "theCarrier-canadian";
note = uni162A;
unicode = 5674;
},
{
color = 9;
glyphname = "dlaCarrier-canadian";
lastChange = "2023-01-13 15:56:00 +0000";
layers = (
{
layerId = "2974A4AB-0281-4EAC-B7D6-9B88228DB59B";
shapes = (
{
closed = 1;
nodes = (
(463,0,l),
(463,57,l),
(328,57,ls),
(174,57,o),
(112,156,o),
(112,356,cs),
(112,556,o),
(173,644,o),
(262,644,cs),
(360,644,o),
(410,537,o),
(411,385,c),
(463,385,l),
(463,704,l),
(523,704,l),
(523,750,l),
(355,750,l),
(355,704,l),
(416,704,l),
(416,507,l),
(422,510,l),
(402,627,o),
(344,702,o),
(248,702,cs),
(138,702,o),
(50,590,o),
(50,356,cs),
(50,121,o),
(139,0,o),
(329,0,cs)
);
}
);
width = 534;
}
);
metricLeft = "=|theCarrier-canadian";
metricRight = "=|dleCarrier-canadian";
note = uni162D;
unicode = 5677;
},
{
color = 9;
glyphname = "lhuCarrier-canadian";
lastChange = "2023-01-13 15:55:56 +0000";
layers = (
{
layerId = "2974A4AB-0281-4EAC-B7D6-9B88228DB59B";
shapes = (
{
closed = 1;
nodes = (
(433,-13,o),
(506,104,o),
(506,316,cs),
(506,505,o),
(449,621,o),
(345,659,c),
(366,639,l),
(513,639,l),
(513,690,l),
(325,690,l),
(325,639,l),
(407,602,o),
(445,493,o),
(445,327,cs),
(445,133,o),
(396,44,o),
(280,44,cs),
(164,44,o),
(116,133,o),
(116,327,cs),
(116,494,o),
(155,603,o),
(237,639,c),
(237,690,l),
(47,690,l),
(47,639,l),
(194,639,l),
(215,659,l),
(111,621,o),
(54,507,o),
(54,316,cs),
(54,104,o),
(128,-13,o),
(280,-13,cs)
);
}
);
width = 560;
}
);
metricLeft = "luCarrier-canadian";
metricRight = "=|";
note = uni162E;
unicode = 5678;
},
{
color = 9;
glyphname = "lhoCarrier-canadian";
lastChange = "2023-01-13 15:55:56 +0000";
layers = (
{
layerId = "2974A4AB-0281-4EAC-B7D6-9B88228DB59B";
shapes = (
{
closed = 1;
nodes = (
(236,0,l),
(236,50,l),
(154,88,o),
(115,197,o),
(115,363,cs),
(115,556,o),
(164,645,o),
(280,645,cs),
(396,645,o),
(444,556,o),
(444,363,cs),
(444,196,o),
(406,87,o),
(324,50,c),
(324,0,l),
(513,0,l),
(513,51,l),
(366,51,l),
(344,31,l),
(449,69,o),
(506,183,o),
(506,374,cs),
(506,585,o),
(433,702,o),
(280,702,cs),
(128,702,o),
(54,585,o),
(54,374,cs),
(54,185,o),
(111,69,o),
(215,31,c),
(194,51,l),
(47,51,l),
(47,0,l)
);
}
);
width = 560;
}
);
metricLeft = "luCarrier-canadian";
metricRight = "=|";
note = uni162F;
unicode = 5679;
},
{
color = 9;
glyphname = "lheCarrier-canadian";
lastChange = "2023-01-13 15:55:56 +0000";
layers = (
{
anchors = (
{
name = middle_center_can;
pos = (273,345);
}
);
layerId = "2974A4AB-0281-4EAC-B7D6-9B88228DB59B";
shapes = (
{
closed = 1;
nodes = (
(403,-13,o),
(494,99,o),
(494,345,cs),
(494,590,o),
(403,702,o),
(287,702,cs),
(181,702,o),
(127,623,o),
(112,529,c),
(117,528,l),
(117,690,l),
(63,690,l),
(63,419,l),
(114,419,l),
(120,545,o),
(163,644,o),
(273,644,cs),
(368,644,o),
(432,556,o),
(432,345,cs),
(432,133,o),
(368,45,o),
(273,45,cs),
(163,45,o),
(120,145,o),
(114,270,c),
(63,270,l),
(63,0,l),
(117,0,l),
(117,161,l),
(112,160,l),
(127,67,o),
(181,-13,o),
(287,-13,cs)
);
}
);
width = 544;
}
);
metricLeft = "nunavuth-canadian";
metricRight = "theCarrier-canadian";
note = uni1630;
unicode = 5680;
},
{
color = 9;
glyphname = "lhaCarrier-canadian";
lastChange = "2023-01-13 15:55:56 +0000";
layers = (
{
layerId = "2974A4AB-0281-4EAC-B7D6-9B88228DB59B";
shapes = (
{
closed = 1;
nodes = (
(363,-13,o),
(417,67,o),
(432,160,c),
(427,161,l),
(427,0,l),
(482,0,l),
(482,270,l),
(430,270,l),
(424,145,o),
(381,45,o),
(270,45,cs),
(176,45,o),
(112,133,o),
(112,345,cs),
(112,556,o),
(176,644,o),
(270,644,cs),
(381,644,o),
(424,545,o),
(430,419,c),
(482,419,l),
(482,690,l),
(427,690,l),
(427,528,l),
(432,529,l),
(417,623,o),
(363,702,o),
(257,702,cs),
(141,702,o),
(50,590,o),
(50,345,cs),
(50,99,o),
(141,-13,o),
(257,-13,cs)
);
}
);
width = 545;
}
);
metricLeft = "=|theCarrier-canadian";
metricRight = "nunavuth-canadian";
note = uni1633;
unicode = 5683;
},
{
color = 9;
glyphname = "tlhuCarrier-canadian";
lastChange = "2023-01-13 15:55:56 +0000";
layers = (
{
layerId = "2974A4AB-0281-4EAC-B7D6-9B88228DB59B";
shapes = (
{
closed = 1;
nodes = (
(433,-13,o),
(506,104,o),
(506,316,cs),
(506,488,o),
(461,602,o),
(373,649,c),
(358,641,l),
(503,641,l),
(503,558,l),
(550,558,l),
(550,773,l),
(503,773,l),
(503,690,l),
(325,690,l),
(325,639,l),
(407,602,o),
(446,493,o),
(446,327,cs),
(446,133,o),
(396,44,o),
(280,44,cs),
(164,44,o),
(115,133,o),
(115,327,cs),
(115,494,o),
(154,603,o),
(237,639,c),
(237,690,l),
(47,690,l),
(47,639,l),
(200,639,l),
(184,646,l),
(98,598,o),
(54,487,o),
(54,316,cs),
(54,104,o),
(128,-13,o),
(280,-13,cs)
);
}
);
width = 582;
}
);
metricLeft = "lhuCarrier-canadian";
note = uni1634;
unicode = 5684;
},
{
color = 9;
glyphname = "tlhoCarrier-canadian";
lastChange = "2023-01-13 15:56:00 +0000";
layers = (
{
layerId = "2974A4AB-0281-4EAC-B7D6-9B88228DB59B";
shapes = (
{
closed = 1;
nodes = (
(78,-83,l),
(78,0,l),
(258,0,l),
(258,50,l),
(175,88,o),
(136,197,o),
(136,363,cs),
(136,556,o),
(185,645,o),
(302,645,cs),
(418,645,o),
(467,556,o),
(467,363,cs),
(467,196,o),
(428,87,o),
(346,50,c),
(346,0,l),
(534,0,l),
(534,51,l),
(383,51,l),
(398,43,l),
(484,92,o),
(527,203,o),
(527,374,cs),
(527,585,o),
(454,702,o),
(302,702,cs),
(150,702,o),
(76,585,o),
(76,374,cs),
(76,202,o),
(122,88,o),
(209,41,c),
(224,48,l),
(78,48,l),
(78,131,l),
(32,131,l),
(32,-83,l)
);
}
);
width = 581;
}
);
metricLeft = "=|tlhuCarrier-canadian";
metricRight = "lhuCarrier-canadian";
note = uni1635;
unicode = 5685;
},
{
color = 9;
glyphname = "tlheCarrier-canadian";
lastChange = "2023-01-13 15:56:00 +0000";
layers = (
{
anchors = (
{
name = middle_center_can;
pos = (282,345);
}
);
layerId = "2974A4AB-0281-4EAC-B7D6-9B88228DB59B";
shapes = (
{
closed = 1;
nodes = (
(411,-13,o),
(501,99,o),
(501,345,cs),
(501,590,o),
(411,702,o),
(295,702,cs),
(192,702,o),
(131,632,o),
(111,526,c),
(117,522,l),
(117,704,l),
(177,704,l),
(177,750,l),
(11,750,l),
(11,704,l),
(71,704,l),
(71,419,l),
(123,419,l),
(128,545,o),
(172,644,o),
(281,644,cs),
(377,644,o),
(440,559,o),
(440,345,cs),
(440,133,o),
(377,45,o),
(281,45,cs),
(172,45,o),
(128,145,o),
(123,270,c),
(71,270,l),
(71,0,l),
(126,0,l),
(126,162,l),
(121,155,l),
(138,62,o),
(191,-13,o),
(295,-13,cs)
);
}
);
width = 551;
}
);
metricLeft = "dleCarrier-canadian";
metricRight = "theCarrier-canadian";
note = uni1636;
unicode = 5686;
},
{
color = 9;
glyphname = "tlhaCarrier-canadian";
lastChange = "2023-01-13 15:55:56 +0000";
layers = (
{
layerId = "2974A4AB-0281-4EAC-B7D6-9B88228DB59B";
shapes = (
{
closed = 1;
nodes = (
(361,-13,o),
(414,62,o),
(432,155,c),
(427,162,l),
(427,0,l),
(482,0,l),
(482,270,l),
(430,270,l),
(424,145,o),
(381,45,o),
(270,45,cs),
(176,45,o),
(112,133,o),
(112,345,cs),
(112,559,o),
(176,644,o),
(270,644,cs),
(381,644,o),
(424,545,o),
(430,419,c),
(482,419,l),
(482,704,l),
(542,704,l),
(542,750,l),
(375,750,l),
(375,704,l),
(435,704,l),
(435,523,l),
(441,526,l),
(420,632,o),
(359,702,o),
(257,702,cs),
(141,702,o),
(50,590,o),
(50,345,cs),
(50,99,o),
(141,-13,o),
(257,-13,cs)
);
}
);
width = 553;
}
);
metricLeft = "=|theCarrier-canadian";
metricRight = "=|dleCarrier-canadian";
note = uni1639;
unicode = 5689;
},
{
color = 9;
glyphname = "tluCarrier-canadian";
lastChange = "2023-01-13 15:56:00 +0000";
layers = (
{
layerId = "2974A4AB-0281-4EAC-B7D6-9B88228DB59B";
shapes = (
{
closed = 1;
nodes = (
(268,-13,o),
(314,25,o),
(331,109,c),
(316,109,l),
(332,25,o),
(379,-13,o),
(436,-13,cs),
(530,-13,o),
(593,59,o),
(593,284,cs),
(593,510,o),
(544,611,o),
(453,648,c),
(439,641,l),
(590,641,l),
(590,558,l),
(637,558,l),
(637,773,l),
(590,773,l),
(590,690,l),
(368,690,l),
(368,639,l),
(483,635,o),
(531,529,o),
(531,286,cs),
(531,86,o),
(490,44,o),
(434,44,cs),
(385,44,o),
(353,88,o),
(353,189,cs),
(353,298,l),
(295,298,l),
(295,189,ls),
(295,88,o),
(261,44,o),
(213,44,cs),
(156,44,o),
(116,86,o),
(116,286,cs),
(116,529,o),
(164,635,o),
(279,639,c),
(279,690,l),
(48,690,l),
(48,639,l),
(206,639,l),
(190,646,l),
(102,608,o),
(54,508,o),
(54,284,cs),
(54,59,o),
(116,-13,o),
(211,-13,cs)
);
}
);
width = 669;
}
);
metricRight = "tlhuCarrier-canadian";
note = uni163A;
unicode = 5690;
},
{
color = 1;
glyphname = "tloCarrier-canadian";
lastChange = "2023-01-13 15:56:00 +0000";
layers = (
{
layerId = "2974A4AB-0281-4EAC-B7D6-9B88228DB59B";
shapes = (
{
closed = 1;
nodes = (
(637,-83,l),
(637,131,l),
(590,131,l),
(590,48,l),
(439,48,l),
(453,42,l),
(544,78,o),
(593,180,o),
(593,406,cs),
(593,631,o),
(530,702,o),
(436,702,cs),
(379,702,o),
(332,665,o),
(316,581,c),
(331,581,l),
(314,665,o),
(268,702,o),
(211,702,cs),
(116,702,o),
(54,631,o),
(54,406,cs),
(54,182,o),
(102,82,o),
(190,43,c),
(206,51,l),
(48,51,l),
(48,0,l),
(279,0,l),
(279,50,l),
(164,55,o),
(116,160,o),
(116,404,cs),
(116,604,o),
(156,645,o),
(213,645,cs),
(261,645,o),
(295,602,o),
(295,500,cs),
(295,391,l),
(353,391,l),
(353,500,ls),
(353,602,o),
(385,645,o),
(434,645,cs),
(490,645,o),
(531,604,o),
(531,404,cs),
(531,160,o),
(483,55,o),
(368,50,c),
(368,0,l),
(590,0,l),
(590,-83,l)
);
}
);
width = 669;
}
);
metricLeft = "tluCarrier-canadian";
metricRight = "tlhuCarrier-canadian";
note = uni163B;
unicode = 5691;
},
{
color = 9;
glyphname = "tleCarrier-canadian";
lastChange = "2023-01-13 15:56:00 +0000";
layers = (
{
anchors = (
{
name = middle_center_can;
pos = (220,345);
}
);
layerId = "2974A4AB-0281-4EAC-B7D6-9B88228DB59B";
shapes = (
{
closed = 1;
nodes = (
(421,-13,o),
(496,57,o),
(496,179,cs),
(496,270,o),
(453,334,o),
(378,350,c),
(378,340,l),
(453,355,o),
(496,420,o),
(496,511,cs),
(496,633,o),
(421,702,o),
(310,702,cs),
(198,702,o),
(129,633,o),
(111,531,c),
(117,526,l),
(117,704,l),
(178,704,l),
(178,750,l),
(11,750,l),
(11,704,l),
(71,704,l),
(71,419,l),
(121,419,l),
(123,550,o),
(167,646,o),
(296,646,cs),
(384,646,o),
(436,599,o),
(436,503,cs),
(436,419,o),
(395,371,o),
(327,371,cs),
(295,371,l),
(295,319,l),
(327,319,ls),
(394,319,o),
(436,270,o),
(436,187,cs),
(436,92,o),
(384,43,o),
(295,43,cs),
(167,43,o),
(123,140,o),
(121,270,c),
(71,270,l),
(71,0,l),
(126,0,l),
(126,154,l),
(117,146,l),
(138,53,o),
(202,-13,o),
(310,-13,cs)
);
}
);
width = 556;
}
);
metricLeft = "dleCarrier-canadian";
metricRight = "geCarrier-canadian";
note = uni163C;
unicode = 5692;
},
{
color = 9;
glyphname = "tlaCarrier-canadian";
lastChange = "2023-01-13 15:56:00 +0000";
layers = (
{
layerId = "2974A4AB-0281-4EAC-B7D6-9B88228DB59B";
shapes = (
{
closed = 1;
nodes = (
(354,-13,o),
(417,53,o),
(439,146,c),
(431,154,l),
(431,0,l),
(485,0,l),
(485,270,l),
(435,270,l),
(434,140,o),
(388,43,o),
(261,43,cs),
(172,43,o),
(120,92,o),
(120,187,cs),
(120,270,o),
(161,319,o),
(229,319,cs),
(259,319,l),
(259,371,l),
(229,371,ls),
(160,371,o),
(120,419,o),
(120,503,cs),
(120,599,o),
(173,646,o),
(260,646,cs),
(388,646,o),
(434,550,o),
(435,419,c),
(485,419,l),
(485,704,l),
(545,704,l),
(545,750,l),
(379,750,l),
(379,704,l),
(439,704,l),
(439,526,l),
(444,531,l),
(426,633,o),
(357,702,o),
(245,702,cs),
(134,702,o),
(60,633,o),
(60,511,cs),
(60,420,o),
(102,355,o),
(178,340,c),
(178,350,l),
(102,334,o),
(60,270,o),
(60,179,cs),
(60,57,o),
(134,-13,o),
(245,-13,cs)
);
}
);
width = 556;
}
);
metricLeft = "=|geCarrier-canadian";
metricRight = "=|dleCarrier-canadian";
note = uni163F;
unicode = 5695;
},
{
color = 9;
glyphname = "zuCarrier-canadian";
lastChange = "2023-01-13 15:55:56 +0000";
layers = (
{
layerId = "2974A4AB-0281-4EAC-B7D6-9B88228DB59B";
shapes = (
{
closed = 1;
nodes = (
(417,-13,o),
(504,76,o),
(504,228,cs),
(504,345,o),
(431,497,o),
(431,576,cs),
(431,605,o),
(442,637,o),
(491,637,cs),
(512,637,l),
(512,690,l),
(476,690,ls),
(402,690,o),
(372,645,o),
(372,582,cs),
(372,495,o),
(443,349,o),
(443,237,cs),
(443,113,o),
(384,45,o),
(278,45,cs),
(172,45,o),
(113,113,o),
(113,237,cs),
(113,349,o),
(185,495,o),
(185,582,cs),
(185,645,o),
(156,690,o),
(81,690,cs),
(45,690,l),
(45,637,l),
(66,637,ls),
(115,637,o),
(127,604,o),
(127,576,cs),
(127,497,o),
(52,345,o),
(52,228,cs),
(52,76,o),
(139,-13,o),
(278,-13,cs)
);
}
);
width = 557;
}
);
metricRight = "=|";
note = uni1640;
unicode = 5696;
},
{
color = 9;
glyphname = "zoCarrier-canadian";
lastChange = "2023-01-13 15:55:56 +0000";
layers = (
{
layerId = "2974A4AB-0281-4EAC-B7D6-9B88228DB59B";
shapes = (
{
closed = 1;
nodes = (
(81,0,ls),
(156,0,o),
(185,44,o),
(185,107,cs),
(185,195,o),
(114,341,o),
(114,453,cs),
(114,577,o),
(173,644,o),
(279,644,cs),
(385,644,o),
(444,577,o),
(444,453,cs),
(444,341,o),
(372,195,o),
(372,107,cs),
(372,44,o),
(402,0,o),
(476,0,cs),
(512,0,l),
(512,53,l),
(492,53,ls),
(442,53,o),
(431,86,o),
(431,114,cs),
(431,193,o),
(505,345,o),
(505,462,cs),
(505,613,o),
(418,702,o),
(279,702,cs),
(140,702,o),
(53,613,o),
(53,462,cs),
(53,345,o),
(127,193,o),
(127,114,cs),
(127,85,o),
(115,53,o),
(67,53,cs),
(45,53,l),
(45,0,l)
);
}
);
width = 557;
}
);
metricLeft = "zuCarrier-canadian";
metricRight = "zuCarrier-canadian";
note = uni1641;
unicode = 5697;
},
{
color = 9;
glyphname = "zeCarrier-canadian";
lastChange = "2023-01-13 15:55:56 +0000";
layers = (
{
anchors = (
{
name = middle_center_can;
pos = (274,345);
}
);
layerId = "2974A4AB-0281-4EAC-B7D6-9B88228DB59B";
shapes = (
{
closed = 1;
nodes = (
(410,-13,o),
(478,91,o),
(478,345,cs),
(478,599,o),
(410,702,o),
(319,702,cs),
(243,702,o),
(173,599,o),
(137,599,cs),
(119,599,o),
(103,611,o),
(103,656,cs),
(103,690,l),
(47,690,l),
(47,639,ls),
(47,576,o),
(78,544,o),
(123,544,cs),
(183,544,o),
(245,644,o),
(306,644,cs),
(367,644,o),
(417,569,o),
(417,345,cs),
(417,121,o),
(367,45,o),
(306,45,cs),
(245,45,o),
(183,146,o),
(123,146,cs),
(78,146,o),
(47,114,o),
(47,51,cs),
(47,0,l),
(103,0,l),
(103,34,ls),
(103,78,o),
(119,91,o),
(137,91,cs),
(173,91,o),
(243,-13,o),
(319,-13,cs)
);
}
);
width = 528;
}
);
metricRight = "theCarrier-canadian";
note = uni1642;
unicode = 5698;
},
